%TF.GenerationSoftware,KiCad,Pcbnew,(5.1.8)-1*%
%TF.CreationDate,2021-01-17T21:43:13+01:00*%
%TF.ProjectId,D32 Joystick Adapter Faceplate A1,44333220-4a6f-4797-9374-69636b204164,rev?*%
%TF.SameCoordinates,Original*%
%TF.FileFunction,Legend,Top*%
%TF.FilePolarity,Positive*%
%FSLAX46Y46*%
G04 Gerber Fmt 4.6, Leading zero omitted, Abs format (unit mm)*
G04 Created by KiCad (PCBNEW (5.1.8)-1) date 2021-01-17 21:43:13*
%MOMM*%
%LPD*%
G01*
G04 APERTURE LIST*
%ADD10C,0.010000*%
G04 APERTURE END LIST*
D10*
%TO.C,G\u002A\u002A\u002A*%
G36*
X157056667Y-124460000D02*
G01*
X89323334Y-124460000D01*
X89323334Y-97790000D01*
X116332000Y-97790000D01*
X116332000Y-99737333D01*
X116848467Y-99737333D01*
X117148505Y-99728561D01*
X117345447Y-99686507D01*
X117505250Y-99587565D01*
X117652800Y-99449466D01*
X117837631Y-99236450D01*
X117921347Y-99034346D01*
X117940667Y-98763666D01*
X117920277Y-98487775D01*
X117834635Y-98286408D01*
X117697095Y-98128666D01*
X118279334Y-98128666D01*
X118279334Y-98933000D01*
X118283879Y-99316418D01*
X118300502Y-99559060D01*
X118333687Y-99689313D01*
X118387914Y-99735564D01*
X118406334Y-99737333D01*
X118494640Y-99681410D01*
X118531029Y-99496030D01*
X118533334Y-99398666D01*
X118555582Y-99160154D01*
X118627526Y-99064236D01*
X118656344Y-99060000D01*
X118776534Y-99121723D01*
X118947681Y-99279329D01*
X119051514Y-99398666D01*
X119303461Y-99643188D01*
X119539112Y-99743599D01*
X119738987Y-99696885D01*
X119872595Y-99525666D01*
X119982224Y-99374488D01*
X120163319Y-99317953D01*
X120269281Y-99314000D01*
X120490459Y-99339718D01*
X120610049Y-99440227D01*
X120650000Y-99525666D01*
X120750497Y-99683209D01*
X120852055Y-99737333D01*
X120898170Y-99703853D01*
X120896815Y-99587672D01*
X120843768Y-99365182D01*
X120734806Y-99012772D01*
X120708687Y-98933000D01*
X121115667Y-98933000D01*
X121135486Y-99207303D01*
X121214959Y-99390720D01*
X121353221Y-99532997D01*
X121654538Y-99693573D01*
X122006700Y-99737879D01*
X122334590Y-99657113D01*
X122348900Y-99649687D01*
X122467677Y-99524853D01*
X122511398Y-99293957D01*
X122512667Y-99226354D01*
X122504394Y-99011486D01*
X122446988Y-98916010D01*
X122291567Y-98891473D01*
X122174000Y-98890666D01*
X121961926Y-98909444D01*
X121843969Y-98956354D01*
X121835334Y-98975333D01*
X121907790Y-99038979D01*
X122047000Y-99060000D01*
X122208807Y-99095643D01*
X122258066Y-99232679D01*
X122258667Y-99262608D01*
X122196946Y-99462875D01*
X122038358Y-99557873D01*
X121822770Y-99542226D01*
X121590044Y-99410559D01*
X121535152Y-99360181D01*
X121360690Y-99091685D01*
X121354429Y-98809280D01*
X122720095Y-98809280D01*
X122736069Y-99150824D01*
X122859669Y-99454663D01*
X122955864Y-99568334D01*
X123225512Y-99714244D01*
X123535405Y-99724882D01*
X123827149Y-99602617D01*
X123913515Y-99529515D01*
X124057654Y-99332900D01*
X124116013Y-99084145D01*
X124121334Y-98933000D01*
X124460000Y-98933000D01*
X124464545Y-99316418D01*
X124481169Y-99559060D01*
X124514354Y-99689313D01*
X124568581Y-99735564D01*
X124587000Y-99737333D01*
X124653366Y-99704133D01*
X124693405Y-99584436D01*
X124713149Y-99348092D01*
X124718233Y-99081166D01*
X124722465Y-98425000D01*
X125057924Y-99081166D01*
X125261618Y-99448647D01*
X125420749Y-99664211D01*
X125542298Y-99737243D01*
X125546143Y-99737333D01*
X125618389Y-99720679D01*
X125663121Y-99649748D01*
X125686304Y-99493090D01*
X125687629Y-99445282D01*
X127001437Y-99445282D01*
X127059294Y-99569839D01*
X127148167Y-99645884D01*
X127414123Y-99724877D01*
X127732689Y-99719885D01*
X128001557Y-99641441D01*
X128715787Y-99641441D01*
X128861359Y-99708461D01*
X129161269Y-99734751D01*
X129370667Y-99737333D01*
X129718201Y-99731351D01*
X129926769Y-99709647D01*
X130026438Y-99666584D01*
X130048000Y-99610333D01*
X130008199Y-99535763D01*
X129867506Y-99496199D01*
X129593987Y-99483450D01*
X129552884Y-99483333D01*
X129057768Y-99483333D01*
X129510551Y-99030550D01*
X129800228Y-98702114D01*
X129944719Y-98431639D01*
X129949264Y-98199330D01*
X129819099Y-97985388D01*
X129794000Y-97959333D01*
X129591859Y-97835924D01*
X129339827Y-97783893D01*
X129087702Y-97798751D01*
X128885281Y-97876006D01*
X128782363Y-98011166D01*
X128778000Y-98050962D01*
X128799760Y-98155204D01*
X128896905Y-98159600D01*
X129007529Y-98121875D01*
X129301652Y-98061204D01*
X129512620Y-98122275D01*
X129617352Y-98295593D01*
X129624667Y-98375784D01*
X129590737Y-98543739D01*
X129472784Y-98728167D01*
X129246561Y-98963925D01*
X129159000Y-99045268D01*
X128869218Y-99324917D01*
X128719944Y-99518617D01*
X128715787Y-99641441D01*
X128001557Y-99641441D01*
X128017941Y-99636661D01*
X128104566Y-99581867D01*
X128246795Y-99378347D01*
X128289931Y-99122931D01*
X128231658Y-98884338D01*
X128132064Y-98766139D01*
X128031330Y-98672863D01*
X128059938Y-98584587D01*
X128126624Y-98513947D01*
X128250728Y-98301779D01*
X128228435Y-98093941D01*
X128080708Y-97920569D01*
X127828507Y-97811796D01*
X127623086Y-97790000D01*
X127307627Y-97818463D01*
X127134341Y-97910046D01*
X127084667Y-98062116D01*
X127117483Y-98182288D01*
X127232834Y-98168084D01*
X127547026Y-98075134D01*
X127796206Y-98081901D01*
X127917905Y-98154820D01*
X127974324Y-98279784D01*
X127892477Y-98409369D01*
X127885875Y-98416029D01*
X127726643Y-98525652D01*
X127628953Y-98552000D01*
X127521982Y-98619905D01*
X127508000Y-98679000D01*
X127577522Y-98785439D01*
X127660400Y-98806000D01*
X127869196Y-98868703D01*
X127987875Y-99020249D01*
X128000046Y-99205788D01*
X127889319Y-99370470D01*
X127838781Y-99402887D01*
X127606498Y-99458141D01*
X127295840Y-99403583D01*
X127134866Y-99347636D01*
X127025783Y-99352289D01*
X127001437Y-99445282D01*
X125687629Y-99445282D01*
X125693899Y-99219251D01*
X125693285Y-98961230D01*
X125680889Y-98543057D01*
X125649733Y-98280161D01*
X125598002Y-98159334D01*
X125581834Y-98149841D01*
X125523513Y-98179704D01*
X125488389Y-98330695D01*
X125472513Y-98623663D01*
X125470968Y-98735444D01*
X125465935Y-99356333D01*
X125156136Y-98742500D01*
X124985696Y-98423808D01*
X124855328Y-98234213D01*
X124742044Y-98145657D01*
X124653168Y-98128666D01*
X124563635Y-98136556D01*
X124507161Y-98181341D01*
X124476140Y-98294694D01*
X124462965Y-98508289D01*
X124460028Y-98853799D01*
X124460000Y-98933000D01*
X124121334Y-98933000D01*
X124093277Y-98635350D01*
X123991481Y-98424402D01*
X123913515Y-98336484D01*
X123653862Y-98177227D01*
X123347750Y-98130846D01*
X123064383Y-98204362D01*
X123002829Y-98244092D01*
X122809698Y-98487785D01*
X122720095Y-98809280D01*
X121354429Y-98809280D01*
X121354340Y-98805281D01*
X121509844Y-98512145D01*
X121704810Y-98352452D01*
X121958707Y-98316855D01*
X122300580Y-98402455D01*
X122364500Y-98426855D01*
X122487992Y-98433052D01*
X122512667Y-98358450D01*
X122440368Y-98221880D01*
X122253845Y-98142372D01*
X121998656Y-98120923D01*
X121720363Y-98158535D01*
X121464524Y-98256207D01*
X121353221Y-98333002D01*
X121198765Y-98498869D01*
X121129685Y-98690657D01*
X121115667Y-98933000D01*
X120708687Y-98933000D01*
X120707597Y-98929673D01*
X120579348Y-98555593D01*
X120482100Y-98317981D01*
X120401252Y-98190226D01*
X120322204Y-98145720D01*
X120277856Y-98146507D01*
X120178058Y-98205142D01*
X120072315Y-98366427D01*
X119947585Y-98653841D01*
X119852910Y-98911592D01*
X119734994Y-99233681D01*
X119634943Y-99484610D01*
X119567221Y-99629169D01*
X119549334Y-99650617D01*
X119479839Y-99586798D01*
X119352868Y-99427185D01*
X119285028Y-99333358D01*
X119063056Y-99017666D01*
X119234441Y-98789679D01*
X119344502Y-98623313D01*
X119351759Y-98502304D01*
X119263961Y-98345179D01*
X119149357Y-98211224D01*
X118996335Y-98146917D01*
X118743976Y-98128842D01*
X118700715Y-98128666D01*
X118279334Y-98128666D01*
X117697095Y-98128666D01*
X117652800Y-98077866D01*
X117474717Y-97915521D01*
X117312937Y-97829190D01*
X117101500Y-97795268D01*
X116848467Y-97790000D01*
X116332000Y-97790000D01*
X89323334Y-97790000D01*
X89323334Y-96247041D01*
X112369691Y-96247041D01*
X112395000Y-96350666D01*
X112514589Y-96411735D01*
X112726620Y-96434044D01*
X112957876Y-96413917D01*
X113064490Y-96384294D01*
X113190093Y-96249101D01*
X113276157Y-95966093D01*
X113316025Y-95594056D01*
X113645534Y-95594056D01*
X113675819Y-95893954D01*
X113825665Y-96185782D01*
X113884179Y-96254558D01*
X114132614Y-96409233D01*
X114431809Y-96441729D01*
X114718142Y-96354732D01*
X114886522Y-96212248D01*
X115033290Y-95909632D01*
X115066697Y-95562571D01*
X114988474Y-95234119D01*
X114854182Y-95034484D01*
X114587259Y-94854322D01*
X114573508Y-94852407D01*
X115240156Y-94852407D01*
X115277276Y-95023812D01*
X115399943Y-95278012D01*
X115603619Y-95746064D01*
X115654667Y-96082345D01*
X115673974Y-96323186D01*
X115738595Y-96426343D01*
X115781667Y-96435333D01*
X115868601Y-96381291D01*
X115904195Y-96207552D01*
X116501334Y-96207552D01*
X116538777Y-96324701D01*
X116671396Y-96392930D01*
X116929627Y-96424016D01*
X117072834Y-96428649D01*
X117390714Y-96392874D01*
X117602000Y-96266000D01*
X117748991Y-96040316D01*
X117733065Y-95832329D01*
X117560541Y-95653964D01*
X117237738Y-95517150D01*
X117199834Y-95506838D01*
X116957075Y-95420584D01*
X116851446Y-95314730D01*
X116840000Y-95248349D01*
X116911267Y-95099965D01*
X117094793Y-95026177D01*
X117345170Y-95039823D01*
X117457138Y-95073875D01*
X117624159Y-95120080D01*
X117683781Y-95077495D01*
X117686667Y-95045296D01*
X117607945Y-94911902D01*
X117605689Y-94911212D01*
X117856000Y-94911212D01*
X117929572Y-94970744D01*
X118106838Y-94995993D01*
X118110000Y-94996000D01*
X118364000Y-94996000D01*
X118364000Y-95715666D01*
X118369422Y-96075461D01*
X118389159Y-96295669D01*
X118428417Y-96405790D01*
X118491000Y-96435333D01*
X118554493Y-96404608D01*
X118593354Y-96292766D01*
X118612787Y-96070306D01*
X118618000Y-95715666D01*
X118618000Y-94996000D01*
X119464667Y-94996000D01*
X119464667Y-95631000D01*
X119458014Y-95965945D01*
X119433973Y-96162554D01*
X119386419Y-96251450D01*
X119337667Y-96266000D01*
X119224995Y-96311717D01*
X119210667Y-96350666D01*
X119285779Y-96403685D01*
X119473418Y-96433174D01*
X119549334Y-96435333D01*
X119761407Y-96416555D01*
X119879364Y-96369645D01*
X119888000Y-96350666D01*
X119823571Y-96268460D01*
X119803334Y-96266000D01*
X119760672Y-96187207D01*
X119730937Y-95973922D01*
X119721937Y-95742719D01*
X120174142Y-95742719D01*
X120221309Y-95953433D01*
X120393123Y-96233747D01*
X120672557Y-96394979D01*
X121039458Y-96429168D01*
X121306167Y-96381969D01*
X121454729Y-96294731D01*
X121496667Y-96204733D01*
X121449843Y-96120390D01*
X121348500Y-96141915D01*
X120983707Y-96243797D01*
X120706035Y-96201554D01*
X120517794Y-96016287D01*
X120422888Y-95701358D01*
X120425957Y-95631000D01*
X121666000Y-95631000D01*
X121670545Y-96014418D01*
X121687169Y-96257060D01*
X121720354Y-96387313D01*
X121774581Y-96433564D01*
X121793000Y-96435333D01*
X121887677Y-96369895D01*
X121919891Y-96162242D01*
X121920000Y-96143996D01*
X121943297Y-95904944D01*
X122019289Y-95818015D01*
X122157127Y-95882227D01*
X122365510Y-96096065D01*
X122557283Y-96289174D01*
X122730203Y-96412056D01*
X122803839Y-96435333D01*
X122859879Y-96405169D01*
X122841679Y-96358224D01*
X123949955Y-96358224D01*
X123971805Y-96420543D01*
X124035032Y-96435331D01*
X124036003Y-96435333D01*
X124181218Y-96356777D01*
X124277980Y-96181333D01*
X124348720Y-96025039D01*
X124454185Y-95950666D01*
X124650939Y-95928364D01*
X124759284Y-95927333D01*
X125005469Y-95938215D01*
X125140327Y-95990820D01*
X125221452Y-96115087D01*
X125247917Y-96181333D01*
X125362664Y-96368519D01*
X125492042Y-96435333D01*
X125549327Y-96418098D01*
X125567230Y-96349386D01*
X125540641Y-96203683D01*
X125464452Y-95955475D01*
X125333555Y-95579250D01*
X125304146Y-95496963D01*
X125172773Y-95127404D01*
X125067735Y-94826666D01*
X125814667Y-94826666D01*
X125814667Y-96435333D01*
X126244513Y-96435333D01*
X126532698Y-96417869D01*
X126621091Y-96386090D01*
X127330181Y-96386090D01*
X127367007Y-96433395D01*
X127384910Y-96435333D01*
X127506602Y-96364559D01*
X127592667Y-96223666D01*
X127685810Y-96074633D01*
X127850191Y-96017264D01*
X127973386Y-96012000D01*
X128200917Y-96040726D01*
X128331007Y-96150235D01*
X128370072Y-96223666D01*
X128477037Y-96379815D01*
X128576164Y-96435333D01*
X128611938Y-96380510D01*
X128586759Y-96206770D01*
X128497756Y-95900208D01*
X128414408Y-95652166D01*
X128277743Y-95277038D01*
X128171599Y-95038999D01*
X128081427Y-94911912D01*
X127992679Y-94869640D01*
X127978472Y-94869000D01*
X127888136Y-94901304D01*
X127797521Y-95015464D01*
X127692007Y-95237348D01*
X127556972Y-95592822D01*
X127535786Y-95652166D01*
X127409769Y-96020398D01*
X127342834Y-96256732D01*
X127330181Y-96386090D01*
X126621091Y-96386090D01*
X126730845Y-96346632D01*
X126916321Y-96193355D01*
X126921846Y-96187846D01*
X127108282Y-95939712D01*
X127168845Y-95664740D01*
X127169334Y-95631000D01*
X127095287Y-95284107D01*
X126886521Y-95023342D01*
X126563096Y-94866151D01*
X126244513Y-94826666D01*
X128862667Y-94826666D01*
X128862667Y-95631000D01*
X128867212Y-96014418D01*
X128883836Y-96257060D01*
X128917020Y-96387313D01*
X128971247Y-96433564D01*
X128989667Y-96435333D01*
X129083598Y-96371073D01*
X129116437Y-96165988D01*
X129116667Y-96139000D01*
X129131252Y-95939629D01*
X129202659Y-95857872D01*
X129357545Y-95842666D01*
X129626663Y-95766831D01*
X129821487Y-95568548D01*
X129899726Y-95291651D01*
X129899834Y-95280575D01*
X129829521Y-95034908D01*
X129657430Y-94911333D01*
X129963334Y-94911333D01*
X130036906Y-94970780D01*
X130214173Y-94995993D01*
X130217334Y-94996000D01*
X130471334Y-94996000D01*
X130471334Y-95715666D01*
X130476756Y-96075461D01*
X130496492Y-96295669D01*
X130535750Y-96405790D01*
X130598334Y-96435333D01*
X130661827Y-96404608D01*
X130700687Y-96292766D01*
X130720120Y-96070306D01*
X130725334Y-95715666D01*
X130725334Y-94996000D01*
X131021667Y-94996000D01*
X131217534Y-94974734D01*
X131315441Y-94922444D01*
X131318000Y-94911333D01*
X131238784Y-94869404D01*
X131022514Y-94839939D01*
X130701260Y-94826948D01*
X130640667Y-94826666D01*
X131402667Y-94826666D01*
X131402667Y-96435333D01*
X131953000Y-96435333D01*
X132240582Y-96423370D01*
X132437476Y-96391681D01*
X132503334Y-96350666D01*
X132427187Y-96302369D01*
X132232491Y-96271713D01*
X132080000Y-96266000D01*
X131656667Y-96266000D01*
X131656667Y-95673333D01*
X132080000Y-95673333D01*
X132321488Y-95658103D01*
X132474765Y-95619164D01*
X132503334Y-95588666D01*
X132427187Y-95540369D01*
X132232491Y-95509713D01*
X132080000Y-95504000D01*
X131829397Y-95498450D01*
X131704431Y-95464330D01*
X131661420Y-95375431D01*
X131656667Y-95250000D01*
X131665916Y-95099638D01*
X131722783Y-95024658D01*
X131870948Y-94998852D01*
X132080000Y-94996000D01*
X132321488Y-94980770D01*
X132474765Y-94941831D01*
X132503334Y-94911333D01*
X132425576Y-94867089D01*
X132219594Y-94836798D01*
X131953000Y-94826666D01*
X132757334Y-94826666D01*
X132757334Y-95631000D01*
X132761879Y-96014418D01*
X132778502Y-96257060D01*
X132811687Y-96387313D01*
X132865914Y-96433564D01*
X132884334Y-96435333D01*
X132972640Y-96379410D01*
X133009029Y-96194030D01*
X133011334Y-96096666D01*
X133034749Y-95855340D01*
X133108897Y-95760763D01*
X133131219Y-95758000D01*
X133249242Y-95819988D01*
X133417893Y-95978198D01*
X133519334Y-96096666D01*
X133695492Y-96291379D01*
X133848479Y-96413828D01*
X133907448Y-96435333D01*
X134005504Y-96409773D01*
X133997364Y-96319345D01*
X133876321Y-96143427D01*
X133771399Y-96017002D01*
X133623259Y-95829550D01*
X133578784Y-95712580D01*
X133623396Y-95615360D01*
X133647840Y-95587002D01*
X133751647Y-95376299D01*
X133762450Y-95130437D01*
X133677183Y-94933904D01*
X133671734Y-94928266D01*
X133531220Y-94867875D01*
X133291946Y-94831483D01*
X133163734Y-94826666D01*
X132757334Y-94826666D01*
X131953000Y-94826666D01*
X131402667Y-94826666D01*
X130640667Y-94826666D01*
X130305235Y-94836568D01*
X130069520Y-94863602D01*
X129965591Y-94903759D01*
X129963334Y-94911333D01*
X129657430Y-94911333D01*
X129618878Y-94883650D01*
X129268351Y-94827101D01*
X129227485Y-94826666D01*
X128862667Y-94826666D01*
X126244513Y-94826666D01*
X125814667Y-94826666D01*
X125067735Y-94826666D01*
X125065451Y-94820127D01*
X124993446Y-94607763D01*
X124968000Y-94523296D01*
X124905080Y-94474770D01*
X124763217Y-94488351D01*
X124612755Y-94546230D01*
X124524040Y-94630595D01*
X124522201Y-94636166D01*
X124476595Y-94775446D01*
X124387432Y-95032356D01*
X124269220Y-95365456D01*
X124181279Y-95609833D01*
X124049830Y-95980495D01*
X123974343Y-96220750D01*
X123949955Y-96358224D01*
X122841679Y-96358224D01*
X122819679Y-96301481D01*
X122673500Y-96104472D01*
X122593041Y-96006873D01*
X122234314Y-95578412D01*
X122542824Y-95262469D01*
X122751859Y-95034743D01*
X122839178Y-94898246D01*
X122812895Y-94835499D01*
X122745500Y-94825977D01*
X122637807Y-94884999D01*
X122462586Y-95039460D01*
X122283087Y-95228144D01*
X121926506Y-95631000D01*
X121923253Y-95228833D01*
X121905813Y-94969333D01*
X121852448Y-94846964D01*
X121793000Y-94826666D01*
X121732460Y-94855453D01*
X121694148Y-94960736D01*
X121673582Y-95170904D01*
X121666279Y-95514343D01*
X121666000Y-95631000D01*
X120425957Y-95631000D01*
X120437561Y-95365074D01*
X120573444Y-95136712D01*
X120812796Y-95027413D01*
X121137878Y-95048319D01*
X121348500Y-95120084D01*
X121470919Y-95132635D01*
X121496667Y-95056450D01*
X121430974Y-94922573D01*
X121226011Y-94847607D01*
X120911834Y-94826666D01*
X120586098Y-94900233D01*
X120341240Y-95099182D01*
X120197256Y-95390886D01*
X120174142Y-95742719D01*
X119721937Y-95742719D01*
X119718746Y-95660778D01*
X119718667Y-95631000D01*
X119729172Y-95311039D01*
X119757611Y-95088025D01*
X119799363Y-94996594D01*
X119803334Y-94996000D01*
X119885585Y-94936129D01*
X119888000Y-94917549D01*
X119808683Y-94886524D01*
X119592103Y-94860271D01*
X119270318Y-94841466D01*
X118875385Y-94832783D01*
X118872000Y-94832762D01*
X118421290Y-94836756D01*
X118090885Y-94854113D01*
X117898711Y-94883449D01*
X117856000Y-94911212D01*
X117605689Y-94911212D01*
X117372937Y-94840047D01*
X117135456Y-94826666D01*
X116838474Y-94888416D01*
X116646671Y-95058746D01*
X116586000Y-95288013D01*
X116621871Y-95469970D01*
X116750408Y-95601572D01*
X117002998Y-95708357D01*
X117157500Y-95752985D01*
X117417121Y-95857338D01*
X117510994Y-95986142D01*
X117438062Y-96137452D01*
X117390123Y-96181507D01*
X117192887Y-96244730D01*
X116895521Y-96212942D01*
X116649500Y-96135870D01*
X116526076Y-96131304D01*
X116501334Y-96207552D01*
X115904195Y-96207552D01*
X115905600Y-96200697D01*
X115908667Y-96084864D01*
X115974012Y-95707747D01*
X116162667Y-95321592D01*
X116319578Y-95061575D01*
X116394756Y-94913320D01*
X116397194Y-94845610D01*
X116335885Y-94827229D01*
X116305257Y-94826666D01*
X116200886Y-94894735D01*
X116064045Y-95067164D01*
X115999095Y-95173182D01*
X115804343Y-95519697D01*
X115597706Y-95173182D01*
X115418670Y-94917392D01*
X115293387Y-94813701D01*
X115240156Y-94852407D01*
X114573508Y-94852407D01*
X114319852Y-94817084D01*
X114071968Y-94897604D01*
X113863616Y-95070716D01*
X113714802Y-95311255D01*
X113645534Y-95594056D01*
X113316025Y-95594056D01*
X113320465Y-95552628D01*
X113320801Y-95026060D01*
X113293197Y-94593833D01*
X113214603Y-94517556D01*
X113040233Y-94484236D01*
X112836543Y-94491825D01*
X112669988Y-94538273D01*
X112606667Y-94615000D01*
X112680268Y-94717143D01*
X112818334Y-94742000D01*
X112923868Y-94749359D01*
X112986785Y-94794622D01*
X113018101Y-94912571D01*
X113028833Y-95137984D01*
X113030000Y-95410274D01*
X113016405Y-95797630D01*
X112967279Y-96038475D01*
X112870111Y-96154061D01*
X112712390Y-96165639D01*
X112601865Y-96137475D01*
X112445089Y-96144967D01*
X112369691Y-96247041D01*
X89323334Y-96247041D01*
X89323334Y-90191166D01*
X117774967Y-90191166D01*
X117851582Y-90219316D01*
X118059674Y-90241066D01*
X118361418Y-90253200D01*
X118521478Y-90254666D01*
X119271622Y-90254666D01*
X119295692Y-90211961D01*
X119718667Y-90211961D01*
X119792846Y-90240067D01*
X119976038Y-90242073D01*
X120023823Y-90238610D01*
X120149237Y-90221284D01*
X120254174Y-90178221D01*
X120263200Y-90170265D01*
X120819334Y-90170265D01*
X120902314Y-90217582D01*
X121148081Y-90239934D01*
X121551877Y-90236891D01*
X121554747Y-90236796D01*
X122290161Y-90212333D01*
X122906548Y-89196333D01*
X123129803Y-88821450D01*
X123317434Y-88493270D01*
X123453259Y-88241106D01*
X123521098Y-88094271D01*
X123525801Y-88074500D01*
X123469552Y-88016350D01*
X123284849Y-87982165D01*
X122953534Y-87969025D01*
X122867516Y-87968666D01*
X122485463Y-87983040D01*
X122206274Y-88023026D01*
X122075071Y-88074500D01*
X121984340Y-88184379D01*
X121834750Y-88403597D01*
X121646452Y-88698526D01*
X121439596Y-89035536D01*
X121234330Y-89380997D01*
X121050807Y-89701280D01*
X120909174Y-89962756D01*
X120829583Y-90131794D01*
X120819334Y-90170265D01*
X120263200Y-90170265D01*
X120358788Y-90086015D01*
X120483237Y-89921261D01*
X120647673Y-89660553D01*
X120872254Y-89280485D01*
X120921355Y-89196333D01*
X121140155Y-88818828D01*
X121328927Y-88488935D01*
X121470702Y-88236619D01*
X121548511Y-88091845D01*
X121556591Y-88074500D01*
X121518412Y-88004924D01*
X121376792Y-87970340D01*
X121194922Y-87975612D01*
X121035992Y-88025604D01*
X121023478Y-88033463D01*
X120953429Y-88122343D01*
X120819650Y-88324668D01*
X120641424Y-88608238D01*
X120438038Y-88940854D01*
X120228777Y-89290318D01*
X120032927Y-89624431D01*
X119869772Y-89910994D01*
X119758599Y-90117808D01*
X119718667Y-90211961D01*
X119295692Y-90211961D01*
X119877131Y-89180385D01*
X120088926Y-88791529D01*
X120257461Y-88456405D01*
X120370140Y-88202119D01*
X120414364Y-88055774D01*
X120410122Y-88033588D01*
X120296284Y-88002356D01*
X120059658Y-87984715D01*
X119746454Y-87983627D01*
X119668302Y-87986035D01*
X118999000Y-88011000D01*
X118388801Y-89069333D01*
X118171269Y-89450391D01*
X117987449Y-89779570D01*
X117852570Y-90029037D01*
X117781862Y-90170961D01*
X117774967Y-90191166D01*
X89323334Y-90191166D01*
X89323334Y-79245208D01*
X112183334Y-79245208D01*
X112219318Y-79360248D01*
X112314592Y-79581791D01*
X112450134Y-79866204D01*
X112480731Y-79927446D01*
X112778129Y-80518000D01*
X114512731Y-80518000D01*
X115033959Y-80519334D01*
X115492515Y-80523061D01*
X115863356Y-80528765D01*
X116121439Y-80536030D01*
X116241722Y-80544443D01*
X116247334Y-80546758D01*
X116211328Y-80629249D01*
X116113927Y-80829998D01*
X115971052Y-81116616D01*
X115838801Y-81377930D01*
X115498556Y-82150047D01*
X115298266Y-82872876D01*
X115232512Y-83583968D01*
X115295876Y-84320870D01*
X115364198Y-84667066D01*
X115608001Y-85366002D01*
X116000598Y-86007759D01*
X116526694Y-86576970D01*
X117170993Y-87058268D01*
X117918199Y-87436286D01*
X118237000Y-87553327D01*
X118331216Y-87573621D01*
X118490930Y-87591967D01*
X118725256Y-87608544D01*
X119043308Y-87623531D01*
X119454200Y-87637108D01*
X119967046Y-87649454D01*
X120590959Y-87660749D01*
X121335053Y-87671171D01*
X122208441Y-87680901D01*
X123220239Y-87690116D01*
X124379559Y-87698998D01*
X125695515Y-87707725D01*
X126257801Y-87711152D01*
X133939935Y-87757000D01*
X133275532Y-88960953D01*
X133055094Y-89367767D01*
X132871155Y-89721433D01*
X132736440Y-89996300D01*
X132663675Y-90166717D01*
X132656009Y-90209787D01*
X132755842Y-90230448D01*
X132982157Y-90246086D01*
X133292120Y-90254122D01*
X133401506Y-90254666D01*
X134102122Y-90254666D01*
X134561578Y-89471500D01*
X134858502Y-88958961D01*
X135076292Y-88564757D01*
X135226243Y-88264053D01*
X135319645Y-88032014D01*
X135367793Y-87843808D01*
X135381979Y-87674602D01*
X135382000Y-87667335D01*
X135304604Y-87225414D01*
X135087283Y-86844320D01*
X134801486Y-86594167D01*
X134493000Y-86402333D01*
X126661334Y-86360000D01*
X118829667Y-86317666D01*
X118326672Y-86115036D01*
X117798695Y-85820729D01*
X117322740Y-85400906D01*
X116944941Y-84899280D01*
X116842764Y-84709000D01*
X116721433Y-84404077D01*
X116656994Y-84083435D01*
X116635205Y-83673883D01*
X116634915Y-83640862D01*
X116636418Y-83377207D01*
X116652932Y-83164071D01*
X116696352Y-82962862D01*
X116778572Y-82734985D01*
X116911487Y-82441848D01*
X117106992Y-82044857D01*
X117158614Y-81941685D01*
X117378545Y-81493237D01*
X117528963Y-81158019D01*
X117622188Y-80901013D01*
X117670537Y-80687199D01*
X117686330Y-80481560D01*
X117686667Y-80440553D01*
X117630268Y-79981295D01*
X117453945Y-79630166D01*
X117147006Y-79365904D01*
X117146024Y-79365309D01*
X117054278Y-79317641D01*
X116940826Y-79279941D01*
X116785021Y-79250741D01*
X116566214Y-79228574D01*
X116263756Y-79211973D01*
X115857001Y-79199470D01*
X115325300Y-79189597D01*
X114648005Y-79180888D01*
X114532834Y-79179594D01*
X113761996Y-79173554D01*
X113152943Y-79174529D01*
X112698266Y-79182727D01*
X112390551Y-79198354D01*
X112222390Y-79221618D01*
X112183334Y-79245208D01*
X89323334Y-79245208D01*
X89323334Y-78486151D01*
X108881334Y-78486151D01*
X108956901Y-78529133D01*
X109163092Y-78611789D01*
X109469135Y-78722547D01*
X109844262Y-78849834D01*
X109876167Y-78860329D01*
X110269180Y-78989757D01*
X110609683Y-79102720D01*
X110861885Y-79187290D01*
X110989992Y-79231534D01*
X110991532Y-79232109D01*
X111073158Y-79228695D01*
X111055032Y-79135698D01*
X110974776Y-78936685D01*
X110946608Y-78867000D01*
X111011116Y-78829422D01*
X111222394Y-78797570D01*
X111557981Y-78771431D01*
X111995411Y-78750988D01*
X112512220Y-78736227D01*
X113085944Y-78727133D01*
X113694119Y-78723692D01*
X114314281Y-78725888D01*
X114923965Y-78733708D01*
X115500708Y-78747135D01*
X116022044Y-78766155D01*
X116465511Y-78790753D01*
X116808643Y-78820916D01*
X117028977Y-78856626D01*
X117074397Y-78871040D01*
X117531690Y-79147227D01*
X117867496Y-79534528D01*
X118070978Y-80015878D01*
X118131937Y-80536472D01*
X118122063Y-80754770D01*
X118087162Y-80952590D01*
X118013116Y-81167682D01*
X117885810Y-81437798D01*
X117691128Y-81800689D01*
X117593729Y-81975805D01*
X117363869Y-82396247D01*
X117207502Y-82712126D01*
X117109368Y-82963089D01*
X117054207Y-83188783D01*
X117026758Y-83428856D01*
X117025084Y-83453154D01*
X117067896Y-84037166D01*
X117262765Y-84592512D01*
X117592420Y-85089488D01*
X118039588Y-85498386D01*
X118311529Y-85665662D01*
X118745000Y-85894333D01*
X126661334Y-85936666D01*
X134577667Y-85979000D01*
X134959577Y-86203531D01*
X135363125Y-86529691D01*
X135626829Y-86951239D01*
X135750438Y-87467719D01*
X135760597Y-87677397D01*
X135756175Y-87895491D01*
X135731474Y-88082443D01*
X135672792Y-88274456D01*
X135566429Y-88507733D01*
X135398682Y-88818478D01*
X135191500Y-89181137D01*
X134981973Y-89547246D01*
X134806954Y-89858582D01*
X134682018Y-90087021D01*
X134622738Y-90204438D01*
X134620000Y-90213240D01*
X134694470Y-90240777D01*
X134877260Y-90254363D01*
X134912599Y-90254666D01*
X135067140Y-90243426D01*
X135186114Y-90189187D01*
X135303164Y-90061171D01*
X135451934Y-89828601D01*
X135537302Y-89683166D01*
X135826767Y-89179453D01*
X136039107Y-88791383D01*
X136185825Y-88490313D01*
X136278421Y-88247597D01*
X136328397Y-88034591D01*
X136347257Y-87822651D01*
X136348166Y-87663794D01*
X136258269Y-87071727D01*
X136019175Y-86522962D01*
X135650472Y-86047211D01*
X135171750Y-85674184D01*
X134964582Y-85565326D01*
X134896804Y-85535142D01*
X134824933Y-85508492D01*
X134738370Y-85485091D01*
X134626513Y-85464659D01*
X134478762Y-85446913D01*
X134284516Y-85431571D01*
X134033174Y-85418351D01*
X133714136Y-85406971D01*
X133316800Y-85397148D01*
X132830568Y-85388601D01*
X132244836Y-85381048D01*
X131549006Y-85374206D01*
X130732476Y-85367794D01*
X129784645Y-85361529D01*
X128694913Y-85355129D01*
X127452679Y-85348313D01*
X126647403Y-85344000D01*
X118717139Y-85301666D01*
X118350069Y-85043907D01*
X117944765Y-84663353D01*
X117679618Y-84198240D01*
X117566013Y-83669931D01*
X117562509Y-83566000D01*
X117563282Y-83397281D01*
X117574727Y-83251605D01*
X117607074Y-83102915D01*
X117670555Y-82925156D01*
X117775401Y-82692272D01*
X117931841Y-82378207D01*
X118150106Y-81956905D01*
X118327122Y-81618666D01*
X118498490Y-81273594D01*
X118598687Y-81008515D01*
X118645532Y-80759357D01*
X118656840Y-80462047D01*
X118656738Y-80433333D01*
X118578530Y-79840418D01*
X118358833Y-79313523D01*
X118009920Y-78877993D01*
X117833005Y-78732185D01*
X117660264Y-78607791D01*
X117505087Y-78505944D01*
X117349018Y-78424390D01*
X117173601Y-78360874D01*
X116960377Y-78313143D01*
X116690892Y-78278942D01*
X116346687Y-78256018D01*
X115909308Y-78242115D01*
X115360296Y-78234980D01*
X114681196Y-78232359D01*
X113853550Y-78231998D01*
X113737512Y-78232000D01*
X110571037Y-78232000D01*
X110474595Y-78020333D01*
X110366814Y-77864140D01*
X110266144Y-77808666D01*
X110145062Y-77843194D01*
X109927983Y-77932997D01*
X109657164Y-78057404D01*
X109374857Y-78195741D01*
X109123319Y-78327336D01*
X108944802Y-78431519D01*
X108881334Y-78486151D01*
X89323334Y-78486151D01*
X89323334Y-76614443D01*
X110659334Y-76614443D01*
X110698807Y-76719984D01*
X110803086Y-76929221D01*
X110950963Y-77199993D01*
X110976304Y-77244552D01*
X111293275Y-77798885D01*
X114214804Y-77828379D01*
X115063815Y-77837823D01*
X115762467Y-77849524D01*
X116329734Y-77866716D01*
X116784586Y-77892633D01*
X117145997Y-77930509D01*
X117432938Y-77983579D01*
X117664382Y-78055075D01*
X117859301Y-78148234D01*
X118036668Y-78266288D01*
X118215453Y-78412472D01*
X118352011Y-78533633D01*
X118763070Y-79009100D01*
X119036899Y-79576398D01*
X119177734Y-80244479D01*
X119182069Y-80288198D01*
X119195638Y-80466491D01*
X119194149Y-80626613D01*
X119168842Y-80790468D01*
X119110958Y-80979961D01*
X119011741Y-81216995D01*
X118862430Y-81523475D01*
X118654267Y-81921306D01*
X118378495Y-82432392D01*
X118176128Y-82804000D01*
X118080629Y-83034641D01*
X118039938Y-83306081D01*
X118043716Y-83668995D01*
X118070447Y-83996689D01*
X118122499Y-84214504D01*
X118219573Y-84381801D01*
X118317073Y-84492538D01*
X118542198Y-84679835D01*
X118782847Y-84813552D01*
X118822466Y-84827530D01*
X118947059Y-84840612D01*
X119230343Y-84854159D01*
X119661676Y-84867989D01*
X120230414Y-84881922D01*
X120925917Y-84895774D01*
X121737542Y-84909367D01*
X122654648Y-84922518D01*
X123666592Y-84935046D01*
X124762733Y-84946770D01*
X125932428Y-84957509D01*
X126911572Y-84965252D01*
X134739477Y-85022863D01*
X135166572Y-85213035D01*
X135683840Y-85527136D01*
X136136030Y-85962928D01*
X136474922Y-86473611D01*
X136483693Y-86491354D01*
X136593590Y-86752451D01*
X136657296Y-87017525D01*
X136686081Y-87348478D01*
X136691419Y-87632415D01*
X136689374Y-87945912D01*
X136671895Y-88188290D01*
X136626383Y-88406257D01*
X136540236Y-88646518D01*
X136400854Y-88955781D01*
X136249834Y-89269277D01*
X136077710Y-89626526D01*
X135936615Y-89925122D01*
X135841006Y-90134063D01*
X135805339Y-90222342D01*
X135805334Y-90222539D01*
X135883652Y-90236947D01*
X136093529Y-90243401D01*
X136397343Y-90241207D01*
X136571882Y-90236677D01*
X137338430Y-90212333D01*
X137689640Y-89450333D01*
X137861869Y-89059081D01*
X137970630Y-88751019D01*
X138032876Y-88460319D01*
X138065561Y-88121153D01*
X138074147Y-87957386D01*
X138064488Y-87209165D01*
X137955109Y-86553154D01*
X137736290Y-85938128D01*
X137661027Y-85780125D01*
X137233183Y-85101859D01*
X136692046Y-84548747D01*
X136042560Y-84124730D01*
X135289673Y-83833748D01*
X135181785Y-83805225D01*
X135067761Y-83778956D01*
X134940822Y-83755883D01*
X134789831Y-83735798D01*
X134603651Y-83718494D01*
X134371143Y-83703761D01*
X134081171Y-83691393D01*
X133722597Y-83681181D01*
X133284283Y-83672916D01*
X132755094Y-83666391D01*
X132123890Y-83661398D01*
X131379535Y-83657728D01*
X130510891Y-83655175D01*
X129506821Y-83653528D01*
X128356187Y-83652581D01*
X127047853Y-83652126D01*
X126985889Y-83652114D01*
X125627374Y-83651406D01*
X124429482Y-83649752D01*
X123383503Y-83647028D01*
X122480729Y-83643113D01*
X121712450Y-83637883D01*
X121069958Y-83631217D01*
X120544544Y-83622991D01*
X120127498Y-83613083D01*
X119810112Y-83601371D01*
X119583677Y-83587733D01*
X119439484Y-83572045D01*
X119368824Y-83554185D01*
X119358478Y-83544833D01*
X119380717Y-83431366D01*
X119453269Y-83240352D01*
X123917925Y-83240352D01*
X123918518Y-83241654D01*
X124044922Y-83306903D01*
X124236629Y-83286225D01*
X124392400Y-83206166D01*
X124404195Y-83190485D01*
X124883334Y-83190485D01*
X124961832Y-83206401D01*
X125172672Y-83218860D01*
X125478873Y-83226148D01*
X125678608Y-83227333D01*
X126063500Y-83222415D01*
X126310758Y-83204271D01*
X126451889Y-83167813D01*
X126518397Y-83107955D01*
X126526412Y-83090447D01*
X126596808Y-82948038D01*
X126733959Y-82702105D01*
X126919667Y-82382604D01*
X127135733Y-82019490D01*
X127363960Y-81642719D01*
X127586148Y-81282246D01*
X127784100Y-80968029D01*
X127939618Y-80730023D01*
X128034502Y-80598183D01*
X128049819Y-80582796D01*
X128155296Y-80566920D01*
X128408185Y-80552323D01*
X128786565Y-80539559D01*
X129268516Y-80529181D01*
X129832119Y-80521743D01*
X130455451Y-80517797D01*
X130640667Y-80517390D01*
X133138334Y-80514187D01*
X133874811Y-79241841D01*
X134119477Y-78815334D01*
X134335470Y-78431598D01*
X134507747Y-78117936D01*
X134621262Y-77901652D01*
X134659409Y-77817881D01*
X134664096Y-77777079D01*
X134638781Y-77743713D01*
X134567167Y-77716592D01*
X134432959Y-77694527D01*
X134219858Y-77676328D01*
X133911570Y-77660804D01*
X133491797Y-77646766D01*
X132944243Y-77633025D01*
X132252612Y-77618389D01*
X131806265Y-77609554D01*
X130960684Y-77594140D01*
X130266560Y-77585251D01*
X129706087Y-77584543D01*
X129261457Y-77593669D01*
X128914864Y-77614285D01*
X128648503Y-77648047D01*
X128444565Y-77696608D01*
X128285246Y-77761624D01*
X128152738Y-77844750D01*
X128029234Y-77947640D01*
X128013451Y-77962059D01*
X127932379Y-78068462D01*
X127780511Y-78297562D01*
X127570065Y-78628947D01*
X127313259Y-79042208D01*
X127022313Y-79516935D01*
X126709445Y-80032719D01*
X126386874Y-80569150D01*
X126066818Y-81105817D01*
X125761497Y-81622313D01*
X125483129Y-82098226D01*
X125243933Y-82513147D01*
X125056128Y-82846666D01*
X124931932Y-83078373D01*
X124883564Y-83187860D01*
X124883334Y-83190485D01*
X124404195Y-83190485D01*
X124465910Y-83108438D01*
X124610792Y-82881570D01*
X124815892Y-82544285D01*
X125070055Y-82115304D01*
X125362125Y-81613350D01*
X125680949Y-81057144D01*
X125842695Y-80772000D01*
X126276386Y-80005635D01*
X126636019Y-79373028D01*
X126930388Y-78860257D01*
X127168290Y-78453401D01*
X127358520Y-78138538D01*
X127509873Y-77901748D01*
X127631146Y-77729109D01*
X127731132Y-77606700D01*
X127818629Y-77520600D01*
X127902431Y-77456887D01*
X127960477Y-77420042D01*
X128037158Y-77379152D01*
X128130293Y-77345554D01*
X128256690Y-77318388D01*
X128433159Y-77296798D01*
X128676509Y-77279924D01*
X129003551Y-77266909D01*
X129431092Y-77256895D01*
X129975944Y-77249024D01*
X130654914Y-77242437D01*
X131484812Y-77236277D01*
X131572000Y-77235684D01*
X132412371Y-77229757D01*
X133099665Y-77223851D01*
X133650137Y-77217038D01*
X134080041Y-77208390D01*
X134405632Y-77196980D01*
X134643162Y-77181880D01*
X134808887Y-77162161D01*
X134919062Y-77136897D01*
X134989939Y-77105159D01*
X135037773Y-77066020D01*
X135064046Y-77036365D01*
X135157559Y-76881645D01*
X135164883Y-76783847D01*
X135072014Y-76766654D01*
X134826978Y-76751129D01*
X134446939Y-76737641D01*
X133949057Y-76726560D01*
X133350496Y-76718253D01*
X132668416Y-76713090D01*
X131919981Y-76711439D01*
X131799837Y-76711521D01*
X130893993Y-76713284D01*
X130140534Y-76717933D01*
X129522512Y-76727656D01*
X129022980Y-76744638D01*
X128624991Y-76771065D01*
X128311596Y-76809124D01*
X128065850Y-76861000D01*
X127870803Y-76928881D01*
X127709510Y-77014951D01*
X127565022Y-77121397D01*
X127420393Y-77250406D01*
X127388400Y-77280586D01*
X127254089Y-77441931D01*
X127057544Y-77722837D01*
X126817593Y-78094196D01*
X126553066Y-78526902D01*
X126292956Y-78973919D01*
X125962756Y-79553897D01*
X125585954Y-80212471D01*
X125199584Y-80885108D01*
X124840679Y-81507274D01*
X124682002Y-81781154D01*
X124432166Y-82218843D01*
X124218384Y-82607437D01*
X124053112Y-82923105D01*
X123948807Y-83142019D01*
X123917925Y-83240352D01*
X119453269Y-83240352D01*
X119467835Y-83202003D01*
X119484745Y-83163833D01*
X121861653Y-83163833D01*
X121923706Y-83191211D01*
X122120214Y-83212661D01*
X122416323Y-83225248D01*
X122615678Y-83227333D01*
X123406015Y-83227333D01*
X124133989Y-81978500D01*
X124410563Y-81504066D01*
X124744626Y-80931062D01*
X125108364Y-80307194D01*
X125473961Y-79680169D01*
X125813602Y-79097692D01*
X125824696Y-79078666D01*
X126144913Y-78541643D01*
X126454648Y-78044618D01*
X126736733Y-77613709D01*
X126974001Y-77275033D01*
X127149283Y-77054707D01*
X127168882Y-77033774D01*
X127318972Y-76882893D01*
X127462343Y-76756771D01*
X127615107Y-76653188D01*
X127793373Y-76569929D01*
X128013252Y-76504774D01*
X128290857Y-76455507D01*
X128642296Y-76419909D01*
X129083682Y-76395762D01*
X129631125Y-76380849D01*
X130300736Y-76372952D01*
X131108626Y-76369853D01*
X131995601Y-76369333D01*
X135521135Y-76369333D01*
X135874901Y-75751030D01*
X136036687Y-75461687D01*
X136159602Y-75229340D01*
X136223766Y-75092052D01*
X136228667Y-75073696D01*
X136146749Y-75061840D01*
X135911989Y-75050820D01*
X135540878Y-75040877D01*
X135049904Y-75032249D01*
X134455559Y-75025176D01*
X133774333Y-75019896D01*
X133022716Y-75016649D01*
X132228167Y-75015671D01*
X131245147Y-75016551D01*
X130415486Y-75019440D01*
X129723210Y-75025513D01*
X129152347Y-75035945D01*
X128686923Y-75051912D01*
X128310965Y-75074587D01*
X128008501Y-75105148D01*
X127763557Y-75144767D01*
X127560161Y-75194622D01*
X127382339Y-75255886D01*
X127214119Y-75329736D01*
X127084667Y-75394078D01*
X126478195Y-75795592D01*
X125932630Y-76349701D01*
X125835413Y-76472492D01*
X125730351Y-76627076D01*
X125550486Y-76911738D01*
X125305662Y-77309900D01*
X125005727Y-77804981D01*
X124660525Y-78380402D01*
X124279903Y-79019586D01*
X123873706Y-79705952D01*
X123451780Y-80422921D01*
X123023970Y-81153915D01*
X122600123Y-81882354D01*
X122190084Y-82591659D01*
X121861653Y-83163833D01*
X119484745Y-83163833D01*
X119605769Y-82890653D01*
X119770977Y-82550000D01*
X120080254Y-81881794D01*
X120282746Y-81298854D01*
X120385589Y-80761163D01*
X120395919Y-80228704D01*
X120320873Y-79661459D01*
X120302436Y-79569667D01*
X120059646Y-78788973D01*
X119683628Y-78106515D01*
X119185949Y-77532733D01*
X118578174Y-77078066D01*
X117871870Y-76752950D01*
X117078603Y-76567827D01*
X116960584Y-76553602D01*
X116634673Y-76522485D01*
X116429651Y-76520516D01*
X116298422Y-76555537D01*
X116193887Y-76635389D01*
X116141144Y-76690033D01*
X115927722Y-76892145D01*
X115713352Y-77064137D01*
X115475704Y-77234387D01*
X115063162Y-76886526D01*
X114650621Y-76538666D01*
X112654977Y-76538666D01*
X112080472Y-76541741D01*
X111574348Y-76550408D01*
X111158661Y-76563830D01*
X110855465Y-76581169D01*
X110686813Y-76601588D01*
X110659334Y-76614443D01*
X89323334Y-76614443D01*
X89323334Y-76294206D01*
X114314111Y-76294206D01*
X114368150Y-76344131D01*
X114537584Y-76368779D01*
X114572095Y-76369333D01*
X114787811Y-76335131D01*
X114994247Y-76212201D01*
X115186795Y-76032924D01*
X115515289Y-75696516D01*
X115803242Y-76032924D01*
X116001319Y-76239937D01*
X116173074Y-76340119D01*
X116383927Y-76368965D01*
X116423264Y-76369333D01*
X116632971Y-76357303D01*
X116747890Y-76327321D01*
X116755334Y-76316128D01*
X116701056Y-76235924D01*
X116558516Y-76067659D01*
X116358152Y-75844039D01*
X116130401Y-75597766D01*
X115905703Y-75361545D01*
X115714494Y-75168080D01*
X115587214Y-75050074D01*
X115558390Y-75030085D01*
X115480948Y-75077031D01*
X115320263Y-75218341D01*
X115106884Y-75422980D01*
X114871360Y-75659912D01*
X114644239Y-75898102D01*
X114456070Y-76106512D01*
X114337403Y-76254107D01*
X114314111Y-76294206D01*
X89323334Y-76294206D01*
X89323334Y-66040000D01*
X157056667Y-66040000D01*
X157056667Y-124460000D01*
G37*
X157056667Y-124460000D02*
X89323334Y-124460000D01*
X89323334Y-97790000D01*
X116332000Y-97790000D01*
X116332000Y-99737333D01*
X116848467Y-99737333D01*
X117148505Y-99728561D01*
X117345447Y-99686507D01*
X117505250Y-99587565D01*
X117652800Y-99449466D01*
X117837631Y-99236450D01*
X117921347Y-99034346D01*
X117940667Y-98763666D01*
X117920277Y-98487775D01*
X117834635Y-98286408D01*
X117697095Y-98128666D01*
X118279334Y-98128666D01*
X118279334Y-98933000D01*
X118283879Y-99316418D01*
X118300502Y-99559060D01*
X118333687Y-99689313D01*
X118387914Y-99735564D01*
X118406334Y-99737333D01*
X118494640Y-99681410D01*
X118531029Y-99496030D01*
X118533334Y-99398666D01*
X118555582Y-99160154D01*
X118627526Y-99064236D01*
X118656344Y-99060000D01*
X118776534Y-99121723D01*
X118947681Y-99279329D01*
X119051514Y-99398666D01*
X119303461Y-99643188D01*
X119539112Y-99743599D01*
X119738987Y-99696885D01*
X119872595Y-99525666D01*
X119982224Y-99374488D01*
X120163319Y-99317953D01*
X120269281Y-99314000D01*
X120490459Y-99339718D01*
X120610049Y-99440227D01*
X120650000Y-99525666D01*
X120750497Y-99683209D01*
X120852055Y-99737333D01*
X120898170Y-99703853D01*
X120896815Y-99587672D01*
X120843768Y-99365182D01*
X120734806Y-99012772D01*
X120708687Y-98933000D01*
X121115667Y-98933000D01*
X121135486Y-99207303D01*
X121214959Y-99390720D01*
X121353221Y-99532997D01*
X121654538Y-99693573D01*
X122006700Y-99737879D01*
X122334590Y-99657113D01*
X122348900Y-99649687D01*
X122467677Y-99524853D01*
X122511398Y-99293957D01*
X122512667Y-99226354D01*
X122504394Y-99011486D01*
X122446988Y-98916010D01*
X122291567Y-98891473D01*
X122174000Y-98890666D01*
X121961926Y-98909444D01*
X121843969Y-98956354D01*
X121835334Y-98975333D01*
X121907790Y-99038979D01*
X122047000Y-99060000D01*
X122208807Y-99095643D01*
X122258066Y-99232679D01*
X122258667Y-99262608D01*
X122196946Y-99462875D01*
X122038358Y-99557873D01*
X121822770Y-99542226D01*
X121590044Y-99410559D01*
X121535152Y-99360181D01*
X121360690Y-99091685D01*
X121354429Y-98809280D01*
X122720095Y-98809280D01*
X122736069Y-99150824D01*
X122859669Y-99454663D01*
X122955864Y-99568334D01*
X123225512Y-99714244D01*
X123535405Y-99724882D01*
X123827149Y-99602617D01*
X123913515Y-99529515D01*
X124057654Y-99332900D01*
X124116013Y-99084145D01*
X124121334Y-98933000D01*
X124460000Y-98933000D01*
X124464545Y-99316418D01*
X124481169Y-99559060D01*
X124514354Y-99689313D01*
X124568581Y-99735564D01*
X124587000Y-99737333D01*
X124653366Y-99704133D01*
X124693405Y-99584436D01*
X124713149Y-99348092D01*
X124718233Y-99081166D01*
X124722465Y-98425000D01*
X125057924Y-99081166D01*
X125261618Y-99448647D01*
X125420749Y-99664211D01*
X125542298Y-99737243D01*
X125546143Y-99737333D01*
X125618389Y-99720679D01*
X125663121Y-99649748D01*
X125686304Y-99493090D01*
X125687629Y-99445282D01*
X127001437Y-99445282D01*
X127059294Y-99569839D01*
X127148167Y-99645884D01*
X127414123Y-99724877D01*
X127732689Y-99719885D01*
X128001557Y-99641441D01*
X128715787Y-99641441D01*
X128861359Y-99708461D01*
X129161269Y-99734751D01*
X129370667Y-99737333D01*
X129718201Y-99731351D01*
X129926769Y-99709647D01*
X130026438Y-99666584D01*
X130048000Y-99610333D01*
X130008199Y-99535763D01*
X129867506Y-99496199D01*
X129593987Y-99483450D01*
X129552884Y-99483333D01*
X129057768Y-99483333D01*
X129510551Y-99030550D01*
X129800228Y-98702114D01*
X129944719Y-98431639D01*
X129949264Y-98199330D01*
X129819099Y-97985388D01*
X129794000Y-97959333D01*
X129591859Y-97835924D01*
X129339827Y-97783893D01*
X129087702Y-97798751D01*
X128885281Y-97876006D01*
X128782363Y-98011166D01*
X128778000Y-98050962D01*
X128799760Y-98155204D01*
X128896905Y-98159600D01*
X129007529Y-98121875D01*
X129301652Y-98061204D01*
X129512620Y-98122275D01*
X129617352Y-98295593D01*
X129624667Y-98375784D01*
X129590737Y-98543739D01*
X129472784Y-98728167D01*
X129246561Y-98963925D01*
X129159000Y-99045268D01*
X128869218Y-99324917D01*
X128719944Y-99518617D01*
X128715787Y-99641441D01*
X128001557Y-99641441D01*
X128017941Y-99636661D01*
X128104566Y-99581867D01*
X128246795Y-99378347D01*
X128289931Y-99122931D01*
X128231658Y-98884338D01*
X128132064Y-98766139D01*
X128031330Y-98672863D01*
X128059938Y-98584587D01*
X128126624Y-98513947D01*
X128250728Y-98301779D01*
X128228435Y-98093941D01*
X128080708Y-97920569D01*
X127828507Y-97811796D01*
X127623086Y-97790000D01*
X127307627Y-97818463D01*
X127134341Y-97910046D01*
X127084667Y-98062116D01*
X127117483Y-98182288D01*
X127232834Y-98168084D01*
X127547026Y-98075134D01*
X127796206Y-98081901D01*
X127917905Y-98154820D01*
X127974324Y-98279784D01*
X127892477Y-98409369D01*
X127885875Y-98416029D01*
X127726643Y-98525652D01*
X127628953Y-98552000D01*
X127521982Y-98619905D01*
X127508000Y-98679000D01*
X127577522Y-98785439D01*
X127660400Y-98806000D01*
X127869196Y-98868703D01*
X127987875Y-99020249D01*
X128000046Y-99205788D01*
X127889319Y-99370470D01*
X127838781Y-99402887D01*
X127606498Y-99458141D01*
X127295840Y-99403583D01*
X127134866Y-99347636D01*
X127025783Y-99352289D01*
X127001437Y-99445282D01*
X125687629Y-99445282D01*
X125693899Y-99219251D01*
X125693285Y-98961230D01*
X125680889Y-98543057D01*
X125649733Y-98280161D01*
X125598002Y-98159334D01*
X125581834Y-98149841D01*
X125523513Y-98179704D01*
X125488389Y-98330695D01*
X125472513Y-98623663D01*
X125470968Y-98735444D01*
X125465935Y-99356333D01*
X125156136Y-98742500D01*
X124985696Y-98423808D01*
X124855328Y-98234213D01*
X124742044Y-98145657D01*
X124653168Y-98128666D01*
X124563635Y-98136556D01*
X124507161Y-98181341D01*
X124476140Y-98294694D01*
X124462965Y-98508289D01*
X124460028Y-98853799D01*
X124460000Y-98933000D01*
X124121334Y-98933000D01*
X124093277Y-98635350D01*
X123991481Y-98424402D01*
X123913515Y-98336484D01*
X123653862Y-98177227D01*
X123347750Y-98130846D01*
X123064383Y-98204362D01*
X123002829Y-98244092D01*
X122809698Y-98487785D01*
X122720095Y-98809280D01*
X121354429Y-98809280D01*
X121354340Y-98805281D01*
X121509844Y-98512145D01*
X121704810Y-98352452D01*
X121958707Y-98316855D01*
X122300580Y-98402455D01*
X122364500Y-98426855D01*
X122487992Y-98433052D01*
X122512667Y-98358450D01*
X122440368Y-98221880D01*
X122253845Y-98142372D01*
X121998656Y-98120923D01*
X121720363Y-98158535D01*
X121464524Y-98256207D01*
X121353221Y-98333002D01*
X121198765Y-98498869D01*
X121129685Y-98690657D01*
X121115667Y-98933000D01*
X120708687Y-98933000D01*
X120707597Y-98929673D01*
X120579348Y-98555593D01*
X120482100Y-98317981D01*
X120401252Y-98190226D01*
X120322204Y-98145720D01*
X120277856Y-98146507D01*
X120178058Y-98205142D01*
X120072315Y-98366427D01*
X119947585Y-98653841D01*
X119852910Y-98911592D01*
X119734994Y-99233681D01*
X119634943Y-99484610D01*
X119567221Y-99629169D01*
X119549334Y-99650617D01*
X119479839Y-99586798D01*
X119352868Y-99427185D01*
X119285028Y-99333358D01*
X119063056Y-99017666D01*
X119234441Y-98789679D01*
X119344502Y-98623313D01*
X119351759Y-98502304D01*
X119263961Y-98345179D01*
X119149357Y-98211224D01*
X118996335Y-98146917D01*
X118743976Y-98128842D01*
X118700715Y-98128666D01*
X118279334Y-98128666D01*
X117697095Y-98128666D01*
X117652800Y-98077866D01*
X117474717Y-97915521D01*
X117312937Y-97829190D01*
X117101500Y-97795268D01*
X116848467Y-97790000D01*
X116332000Y-97790000D01*
X89323334Y-97790000D01*
X89323334Y-96247041D01*
X112369691Y-96247041D01*
X112395000Y-96350666D01*
X112514589Y-96411735D01*
X112726620Y-96434044D01*
X112957876Y-96413917D01*
X113064490Y-96384294D01*
X113190093Y-96249101D01*
X113276157Y-95966093D01*
X113316025Y-95594056D01*
X113645534Y-95594056D01*
X113675819Y-95893954D01*
X113825665Y-96185782D01*
X113884179Y-96254558D01*
X114132614Y-96409233D01*
X114431809Y-96441729D01*
X114718142Y-96354732D01*
X114886522Y-96212248D01*
X115033290Y-95909632D01*
X115066697Y-95562571D01*
X114988474Y-95234119D01*
X114854182Y-95034484D01*
X114587259Y-94854322D01*
X114573508Y-94852407D01*
X115240156Y-94852407D01*
X115277276Y-95023812D01*
X115399943Y-95278012D01*
X115603619Y-95746064D01*
X115654667Y-96082345D01*
X115673974Y-96323186D01*
X115738595Y-96426343D01*
X115781667Y-96435333D01*
X115868601Y-96381291D01*
X115904195Y-96207552D01*
X116501334Y-96207552D01*
X116538777Y-96324701D01*
X116671396Y-96392930D01*
X116929627Y-96424016D01*
X117072834Y-96428649D01*
X117390714Y-96392874D01*
X117602000Y-96266000D01*
X117748991Y-96040316D01*
X117733065Y-95832329D01*
X117560541Y-95653964D01*
X117237738Y-95517150D01*
X117199834Y-95506838D01*
X116957075Y-95420584D01*
X116851446Y-95314730D01*
X116840000Y-95248349D01*
X116911267Y-95099965D01*
X117094793Y-95026177D01*
X117345170Y-95039823D01*
X117457138Y-95073875D01*
X117624159Y-95120080D01*
X117683781Y-95077495D01*
X117686667Y-95045296D01*
X117607945Y-94911902D01*
X117605689Y-94911212D01*
X117856000Y-94911212D01*
X117929572Y-94970744D01*
X118106838Y-94995993D01*
X118110000Y-94996000D01*
X118364000Y-94996000D01*
X118364000Y-95715666D01*
X118369422Y-96075461D01*
X118389159Y-96295669D01*
X118428417Y-96405790D01*
X118491000Y-96435333D01*
X118554493Y-96404608D01*
X118593354Y-96292766D01*
X118612787Y-96070306D01*
X118618000Y-95715666D01*
X118618000Y-94996000D01*
X119464667Y-94996000D01*
X119464667Y-95631000D01*
X119458014Y-95965945D01*
X119433973Y-96162554D01*
X119386419Y-96251450D01*
X119337667Y-96266000D01*
X119224995Y-96311717D01*
X119210667Y-96350666D01*
X119285779Y-96403685D01*
X119473418Y-96433174D01*
X119549334Y-96435333D01*
X119761407Y-96416555D01*
X119879364Y-96369645D01*
X119888000Y-96350666D01*
X119823571Y-96268460D01*
X119803334Y-96266000D01*
X119760672Y-96187207D01*
X119730937Y-95973922D01*
X119721937Y-95742719D01*
X120174142Y-95742719D01*
X120221309Y-95953433D01*
X120393123Y-96233747D01*
X120672557Y-96394979D01*
X121039458Y-96429168D01*
X121306167Y-96381969D01*
X121454729Y-96294731D01*
X121496667Y-96204733D01*
X121449843Y-96120390D01*
X121348500Y-96141915D01*
X120983707Y-96243797D01*
X120706035Y-96201554D01*
X120517794Y-96016287D01*
X120422888Y-95701358D01*
X120425957Y-95631000D01*
X121666000Y-95631000D01*
X121670545Y-96014418D01*
X121687169Y-96257060D01*
X121720354Y-96387313D01*
X121774581Y-96433564D01*
X121793000Y-96435333D01*
X121887677Y-96369895D01*
X121919891Y-96162242D01*
X121920000Y-96143996D01*
X121943297Y-95904944D01*
X122019289Y-95818015D01*
X122157127Y-95882227D01*
X122365510Y-96096065D01*
X122557283Y-96289174D01*
X122730203Y-96412056D01*
X122803839Y-96435333D01*
X122859879Y-96405169D01*
X122841679Y-96358224D01*
X123949955Y-96358224D01*
X123971805Y-96420543D01*
X124035032Y-96435331D01*
X124036003Y-96435333D01*
X124181218Y-96356777D01*
X124277980Y-96181333D01*
X124348720Y-96025039D01*
X124454185Y-95950666D01*
X124650939Y-95928364D01*
X124759284Y-95927333D01*
X125005469Y-95938215D01*
X125140327Y-95990820D01*
X125221452Y-96115087D01*
X125247917Y-96181333D01*
X125362664Y-96368519D01*
X125492042Y-96435333D01*
X125549327Y-96418098D01*
X125567230Y-96349386D01*
X125540641Y-96203683D01*
X125464452Y-95955475D01*
X125333555Y-95579250D01*
X125304146Y-95496963D01*
X125172773Y-95127404D01*
X125067735Y-94826666D01*
X125814667Y-94826666D01*
X125814667Y-96435333D01*
X126244513Y-96435333D01*
X126532698Y-96417869D01*
X126621091Y-96386090D01*
X127330181Y-96386090D01*
X127367007Y-96433395D01*
X127384910Y-96435333D01*
X127506602Y-96364559D01*
X127592667Y-96223666D01*
X127685810Y-96074633D01*
X127850191Y-96017264D01*
X127973386Y-96012000D01*
X128200917Y-96040726D01*
X128331007Y-96150235D01*
X128370072Y-96223666D01*
X128477037Y-96379815D01*
X128576164Y-96435333D01*
X128611938Y-96380510D01*
X128586759Y-96206770D01*
X128497756Y-95900208D01*
X128414408Y-95652166D01*
X128277743Y-95277038D01*
X128171599Y-95038999D01*
X128081427Y-94911912D01*
X127992679Y-94869640D01*
X127978472Y-94869000D01*
X127888136Y-94901304D01*
X127797521Y-95015464D01*
X127692007Y-95237348D01*
X127556972Y-95592822D01*
X127535786Y-95652166D01*
X127409769Y-96020398D01*
X127342834Y-96256732D01*
X127330181Y-96386090D01*
X126621091Y-96386090D01*
X126730845Y-96346632D01*
X126916321Y-96193355D01*
X126921846Y-96187846D01*
X127108282Y-95939712D01*
X127168845Y-95664740D01*
X127169334Y-95631000D01*
X127095287Y-95284107D01*
X126886521Y-95023342D01*
X126563096Y-94866151D01*
X126244513Y-94826666D01*
X128862667Y-94826666D01*
X128862667Y-95631000D01*
X128867212Y-96014418D01*
X128883836Y-96257060D01*
X128917020Y-96387313D01*
X128971247Y-96433564D01*
X128989667Y-96435333D01*
X129083598Y-96371073D01*
X129116437Y-96165988D01*
X129116667Y-96139000D01*
X129131252Y-95939629D01*
X129202659Y-95857872D01*
X129357545Y-95842666D01*
X129626663Y-95766831D01*
X129821487Y-95568548D01*
X129899726Y-95291651D01*
X129899834Y-95280575D01*
X129829521Y-95034908D01*
X129657430Y-94911333D01*
X129963334Y-94911333D01*
X130036906Y-94970780D01*
X130214173Y-94995993D01*
X130217334Y-94996000D01*
X130471334Y-94996000D01*
X130471334Y-95715666D01*
X130476756Y-96075461D01*
X130496492Y-96295669D01*
X130535750Y-96405790D01*
X130598334Y-96435333D01*
X130661827Y-96404608D01*
X130700687Y-96292766D01*
X130720120Y-96070306D01*
X130725334Y-95715666D01*
X130725334Y-94996000D01*
X131021667Y-94996000D01*
X131217534Y-94974734D01*
X131315441Y-94922444D01*
X131318000Y-94911333D01*
X131238784Y-94869404D01*
X131022514Y-94839939D01*
X130701260Y-94826948D01*
X130640667Y-94826666D01*
X131402667Y-94826666D01*
X131402667Y-96435333D01*
X131953000Y-96435333D01*
X132240582Y-96423370D01*
X132437476Y-96391681D01*
X132503334Y-96350666D01*
X132427187Y-96302369D01*
X132232491Y-96271713D01*
X132080000Y-96266000D01*
X131656667Y-96266000D01*
X131656667Y-95673333D01*
X132080000Y-95673333D01*
X132321488Y-95658103D01*
X132474765Y-95619164D01*
X132503334Y-95588666D01*
X132427187Y-95540369D01*
X132232491Y-95509713D01*
X132080000Y-95504000D01*
X131829397Y-95498450D01*
X131704431Y-95464330D01*
X131661420Y-95375431D01*
X131656667Y-95250000D01*
X131665916Y-95099638D01*
X131722783Y-95024658D01*
X131870948Y-94998852D01*
X132080000Y-94996000D01*
X132321488Y-94980770D01*
X132474765Y-94941831D01*
X132503334Y-94911333D01*
X132425576Y-94867089D01*
X132219594Y-94836798D01*
X131953000Y-94826666D01*
X132757334Y-94826666D01*
X132757334Y-95631000D01*
X132761879Y-96014418D01*
X132778502Y-96257060D01*
X132811687Y-96387313D01*
X132865914Y-96433564D01*
X132884334Y-96435333D01*
X132972640Y-96379410D01*
X133009029Y-96194030D01*
X133011334Y-96096666D01*
X133034749Y-95855340D01*
X133108897Y-95760763D01*
X133131219Y-95758000D01*
X133249242Y-95819988D01*
X133417893Y-95978198D01*
X133519334Y-96096666D01*
X133695492Y-96291379D01*
X133848479Y-96413828D01*
X133907448Y-96435333D01*
X134005504Y-96409773D01*
X133997364Y-96319345D01*
X133876321Y-96143427D01*
X133771399Y-96017002D01*
X133623259Y-95829550D01*
X133578784Y-95712580D01*
X133623396Y-95615360D01*
X133647840Y-95587002D01*
X133751647Y-95376299D01*
X133762450Y-95130437D01*
X133677183Y-94933904D01*
X133671734Y-94928266D01*
X133531220Y-94867875D01*
X133291946Y-94831483D01*
X133163734Y-94826666D01*
X132757334Y-94826666D01*
X131953000Y-94826666D01*
X131402667Y-94826666D01*
X130640667Y-94826666D01*
X130305235Y-94836568D01*
X130069520Y-94863602D01*
X129965591Y-94903759D01*
X129963334Y-94911333D01*
X129657430Y-94911333D01*
X129618878Y-94883650D01*
X129268351Y-94827101D01*
X129227485Y-94826666D01*
X128862667Y-94826666D01*
X126244513Y-94826666D01*
X125814667Y-94826666D01*
X125067735Y-94826666D01*
X125065451Y-94820127D01*
X124993446Y-94607763D01*
X124968000Y-94523296D01*
X124905080Y-94474770D01*
X124763217Y-94488351D01*
X124612755Y-94546230D01*
X124524040Y-94630595D01*
X124522201Y-94636166D01*
X124476595Y-94775446D01*
X124387432Y-95032356D01*
X124269220Y-95365456D01*
X124181279Y-95609833D01*
X124049830Y-95980495D01*
X123974343Y-96220750D01*
X123949955Y-96358224D01*
X122841679Y-96358224D01*
X122819679Y-96301481D01*
X122673500Y-96104472D01*
X122593041Y-96006873D01*
X122234314Y-95578412D01*
X122542824Y-95262469D01*
X122751859Y-95034743D01*
X122839178Y-94898246D01*
X122812895Y-94835499D01*
X122745500Y-94825977D01*
X122637807Y-94884999D01*
X122462586Y-95039460D01*
X122283087Y-95228144D01*
X121926506Y-95631000D01*
X121923253Y-95228833D01*
X121905813Y-94969333D01*
X121852448Y-94846964D01*
X121793000Y-94826666D01*
X121732460Y-94855453D01*
X121694148Y-94960736D01*
X121673582Y-95170904D01*
X121666279Y-95514343D01*
X121666000Y-95631000D01*
X120425957Y-95631000D01*
X120437561Y-95365074D01*
X120573444Y-95136712D01*
X120812796Y-95027413D01*
X121137878Y-95048319D01*
X121348500Y-95120084D01*
X121470919Y-95132635D01*
X121496667Y-95056450D01*
X121430974Y-94922573D01*
X121226011Y-94847607D01*
X120911834Y-94826666D01*
X120586098Y-94900233D01*
X120341240Y-95099182D01*
X120197256Y-95390886D01*
X120174142Y-95742719D01*
X119721937Y-95742719D01*
X119718746Y-95660778D01*
X119718667Y-95631000D01*
X119729172Y-95311039D01*
X119757611Y-95088025D01*
X119799363Y-94996594D01*
X119803334Y-94996000D01*
X119885585Y-94936129D01*
X119888000Y-94917549D01*
X119808683Y-94886524D01*
X119592103Y-94860271D01*
X119270318Y-94841466D01*
X118875385Y-94832783D01*
X118872000Y-94832762D01*
X118421290Y-94836756D01*
X118090885Y-94854113D01*
X117898711Y-94883449D01*
X117856000Y-94911212D01*
X117605689Y-94911212D01*
X117372937Y-94840047D01*
X117135456Y-94826666D01*
X116838474Y-94888416D01*
X116646671Y-95058746D01*
X116586000Y-95288013D01*
X116621871Y-95469970D01*
X116750408Y-95601572D01*
X117002998Y-95708357D01*
X117157500Y-95752985D01*
X117417121Y-95857338D01*
X117510994Y-95986142D01*
X117438062Y-96137452D01*
X117390123Y-96181507D01*
X117192887Y-96244730D01*
X116895521Y-96212942D01*
X116649500Y-96135870D01*
X116526076Y-96131304D01*
X116501334Y-96207552D01*
X115904195Y-96207552D01*
X115905600Y-96200697D01*
X115908667Y-96084864D01*
X115974012Y-95707747D01*
X116162667Y-95321592D01*
X116319578Y-95061575D01*
X116394756Y-94913320D01*
X116397194Y-94845610D01*
X116335885Y-94827229D01*
X116305257Y-94826666D01*
X116200886Y-94894735D01*
X116064045Y-95067164D01*
X115999095Y-95173182D01*
X115804343Y-95519697D01*
X115597706Y-95173182D01*
X115418670Y-94917392D01*
X115293387Y-94813701D01*
X115240156Y-94852407D01*
X114573508Y-94852407D01*
X114319852Y-94817084D01*
X114071968Y-94897604D01*
X113863616Y-95070716D01*
X113714802Y-95311255D01*
X113645534Y-95594056D01*
X113316025Y-95594056D01*
X113320465Y-95552628D01*
X113320801Y-95026060D01*
X113293197Y-94593833D01*
X113214603Y-94517556D01*
X113040233Y-94484236D01*
X112836543Y-94491825D01*
X112669988Y-94538273D01*
X112606667Y-94615000D01*
X112680268Y-94717143D01*
X112818334Y-94742000D01*
X112923868Y-94749359D01*
X112986785Y-94794622D01*
X113018101Y-94912571D01*
X113028833Y-95137984D01*
X113030000Y-95410274D01*
X113016405Y-95797630D01*
X112967279Y-96038475D01*
X112870111Y-96154061D01*
X112712390Y-96165639D01*
X112601865Y-96137475D01*
X112445089Y-96144967D01*
X112369691Y-96247041D01*
X89323334Y-96247041D01*
X89323334Y-90191166D01*
X117774967Y-90191166D01*
X117851582Y-90219316D01*
X118059674Y-90241066D01*
X118361418Y-90253200D01*
X118521478Y-90254666D01*
X119271622Y-90254666D01*
X119295692Y-90211961D01*
X119718667Y-90211961D01*
X119792846Y-90240067D01*
X119976038Y-90242073D01*
X120023823Y-90238610D01*
X120149237Y-90221284D01*
X120254174Y-90178221D01*
X120263200Y-90170265D01*
X120819334Y-90170265D01*
X120902314Y-90217582D01*
X121148081Y-90239934D01*
X121551877Y-90236891D01*
X121554747Y-90236796D01*
X122290161Y-90212333D01*
X122906548Y-89196333D01*
X123129803Y-88821450D01*
X123317434Y-88493270D01*
X123453259Y-88241106D01*
X123521098Y-88094271D01*
X123525801Y-88074500D01*
X123469552Y-88016350D01*
X123284849Y-87982165D01*
X122953534Y-87969025D01*
X122867516Y-87968666D01*
X122485463Y-87983040D01*
X122206274Y-88023026D01*
X122075071Y-88074500D01*
X121984340Y-88184379D01*
X121834750Y-88403597D01*
X121646452Y-88698526D01*
X121439596Y-89035536D01*
X121234330Y-89380997D01*
X121050807Y-89701280D01*
X120909174Y-89962756D01*
X120829583Y-90131794D01*
X120819334Y-90170265D01*
X120263200Y-90170265D01*
X120358788Y-90086015D01*
X120483237Y-89921261D01*
X120647673Y-89660553D01*
X120872254Y-89280485D01*
X120921355Y-89196333D01*
X121140155Y-88818828D01*
X121328927Y-88488935D01*
X121470702Y-88236619D01*
X121548511Y-88091845D01*
X121556591Y-88074500D01*
X121518412Y-88004924D01*
X121376792Y-87970340D01*
X121194922Y-87975612D01*
X121035992Y-88025604D01*
X121023478Y-88033463D01*
X120953429Y-88122343D01*
X120819650Y-88324668D01*
X120641424Y-88608238D01*
X120438038Y-88940854D01*
X120228777Y-89290318D01*
X120032927Y-89624431D01*
X119869772Y-89910994D01*
X119758599Y-90117808D01*
X119718667Y-90211961D01*
X119295692Y-90211961D01*
X119877131Y-89180385D01*
X120088926Y-88791529D01*
X120257461Y-88456405D01*
X120370140Y-88202119D01*
X120414364Y-88055774D01*
X120410122Y-88033588D01*
X120296284Y-88002356D01*
X120059658Y-87984715D01*
X119746454Y-87983627D01*
X119668302Y-87986035D01*
X118999000Y-88011000D01*
X118388801Y-89069333D01*
X118171269Y-89450391D01*
X117987449Y-89779570D01*
X117852570Y-90029037D01*
X117781862Y-90170961D01*
X117774967Y-90191166D01*
X89323334Y-90191166D01*
X89323334Y-79245208D01*
X112183334Y-79245208D01*
X112219318Y-79360248D01*
X112314592Y-79581791D01*
X112450134Y-79866204D01*
X112480731Y-79927446D01*
X112778129Y-80518000D01*
X114512731Y-80518000D01*
X115033959Y-80519334D01*
X115492515Y-80523061D01*
X115863356Y-80528765D01*
X116121439Y-80536030D01*
X116241722Y-80544443D01*
X116247334Y-80546758D01*
X116211328Y-80629249D01*
X116113927Y-80829998D01*
X115971052Y-81116616D01*
X115838801Y-81377930D01*
X115498556Y-82150047D01*
X115298266Y-82872876D01*
X115232512Y-83583968D01*
X115295876Y-84320870D01*
X115364198Y-84667066D01*
X115608001Y-85366002D01*
X116000598Y-86007759D01*
X116526694Y-86576970D01*
X117170993Y-87058268D01*
X117918199Y-87436286D01*
X118237000Y-87553327D01*
X118331216Y-87573621D01*
X118490930Y-87591967D01*
X118725256Y-87608544D01*
X119043308Y-87623531D01*
X119454200Y-87637108D01*
X119967046Y-87649454D01*
X120590959Y-87660749D01*
X121335053Y-87671171D01*
X122208441Y-87680901D01*
X123220239Y-87690116D01*
X124379559Y-87698998D01*
X125695515Y-87707725D01*
X126257801Y-87711152D01*
X133939935Y-87757000D01*
X133275532Y-88960953D01*
X133055094Y-89367767D01*
X132871155Y-89721433D01*
X132736440Y-89996300D01*
X132663675Y-90166717D01*
X132656009Y-90209787D01*
X132755842Y-90230448D01*
X132982157Y-90246086D01*
X133292120Y-90254122D01*
X133401506Y-90254666D01*
X134102122Y-90254666D01*
X134561578Y-89471500D01*
X134858502Y-88958961D01*
X135076292Y-88564757D01*
X135226243Y-88264053D01*
X135319645Y-88032014D01*
X135367793Y-87843808D01*
X135381979Y-87674602D01*
X135382000Y-87667335D01*
X135304604Y-87225414D01*
X135087283Y-86844320D01*
X134801486Y-86594167D01*
X134493000Y-86402333D01*
X126661334Y-86360000D01*
X118829667Y-86317666D01*
X118326672Y-86115036D01*
X117798695Y-85820729D01*
X117322740Y-85400906D01*
X116944941Y-84899280D01*
X116842764Y-84709000D01*
X116721433Y-84404077D01*
X116656994Y-84083435D01*
X116635205Y-83673883D01*
X116634915Y-83640862D01*
X116636418Y-83377207D01*
X116652932Y-83164071D01*
X116696352Y-82962862D01*
X116778572Y-82734985D01*
X116911487Y-82441848D01*
X117106992Y-82044857D01*
X117158614Y-81941685D01*
X117378545Y-81493237D01*
X117528963Y-81158019D01*
X117622188Y-80901013D01*
X117670537Y-80687199D01*
X117686330Y-80481560D01*
X117686667Y-80440553D01*
X117630268Y-79981295D01*
X117453945Y-79630166D01*
X117147006Y-79365904D01*
X117146024Y-79365309D01*
X117054278Y-79317641D01*
X116940826Y-79279941D01*
X116785021Y-79250741D01*
X116566214Y-79228574D01*
X116263756Y-79211973D01*
X115857001Y-79199470D01*
X115325300Y-79189597D01*
X114648005Y-79180888D01*
X114532834Y-79179594D01*
X113761996Y-79173554D01*
X113152943Y-79174529D01*
X112698266Y-79182727D01*
X112390551Y-79198354D01*
X112222390Y-79221618D01*
X112183334Y-79245208D01*
X89323334Y-79245208D01*
X89323334Y-78486151D01*
X108881334Y-78486151D01*
X108956901Y-78529133D01*
X109163092Y-78611789D01*
X109469135Y-78722547D01*
X109844262Y-78849834D01*
X109876167Y-78860329D01*
X110269180Y-78989757D01*
X110609683Y-79102720D01*
X110861885Y-79187290D01*
X110989992Y-79231534D01*
X110991532Y-79232109D01*
X111073158Y-79228695D01*
X111055032Y-79135698D01*
X110974776Y-78936685D01*
X110946608Y-78867000D01*
X111011116Y-78829422D01*
X111222394Y-78797570D01*
X111557981Y-78771431D01*
X111995411Y-78750988D01*
X112512220Y-78736227D01*
X113085944Y-78727133D01*
X113694119Y-78723692D01*
X114314281Y-78725888D01*
X114923965Y-78733708D01*
X115500708Y-78747135D01*
X116022044Y-78766155D01*
X116465511Y-78790753D01*
X116808643Y-78820916D01*
X117028977Y-78856626D01*
X117074397Y-78871040D01*
X117531690Y-79147227D01*
X117867496Y-79534528D01*
X118070978Y-80015878D01*
X118131937Y-80536472D01*
X118122063Y-80754770D01*
X118087162Y-80952590D01*
X118013116Y-81167682D01*
X117885810Y-81437798D01*
X117691128Y-81800689D01*
X117593729Y-81975805D01*
X117363869Y-82396247D01*
X117207502Y-82712126D01*
X117109368Y-82963089D01*
X117054207Y-83188783D01*
X117026758Y-83428856D01*
X117025084Y-83453154D01*
X117067896Y-84037166D01*
X117262765Y-84592512D01*
X117592420Y-85089488D01*
X118039588Y-85498386D01*
X118311529Y-85665662D01*
X118745000Y-85894333D01*
X126661334Y-85936666D01*
X134577667Y-85979000D01*
X134959577Y-86203531D01*
X135363125Y-86529691D01*
X135626829Y-86951239D01*
X135750438Y-87467719D01*
X135760597Y-87677397D01*
X135756175Y-87895491D01*
X135731474Y-88082443D01*
X135672792Y-88274456D01*
X135566429Y-88507733D01*
X135398682Y-88818478D01*
X135191500Y-89181137D01*
X134981973Y-89547246D01*
X134806954Y-89858582D01*
X134682018Y-90087021D01*
X134622738Y-90204438D01*
X134620000Y-90213240D01*
X134694470Y-90240777D01*
X134877260Y-90254363D01*
X134912599Y-90254666D01*
X135067140Y-90243426D01*
X135186114Y-90189187D01*
X135303164Y-90061171D01*
X135451934Y-89828601D01*
X135537302Y-89683166D01*
X135826767Y-89179453D01*
X136039107Y-88791383D01*
X136185825Y-88490313D01*
X136278421Y-88247597D01*
X136328397Y-88034591D01*
X136347257Y-87822651D01*
X136348166Y-87663794D01*
X136258269Y-87071727D01*
X136019175Y-86522962D01*
X135650472Y-86047211D01*
X135171750Y-85674184D01*
X134964582Y-85565326D01*
X134896804Y-85535142D01*
X134824933Y-85508492D01*
X134738370Y-85485091D01*
X134626513Y-85464659D01*
X134478762Y-85446913D01*
X134284516Y-85431571D01*
X134033174Y-85418351D01*
X133714136Y-85406971D01*
X133316800Y-85397148D01*
X132830568Y-85388601D01*
X132244836Y-85381048D01*
X131549006Y-85374206D01*
X130732476Y-85367794D01*
X129784645Y-85361529D01*
X128694913Y-85355129D01*
X127452679Y-85348313D01*
X126647403Y-85344000D01*
X118717139Y-85301666D01*
X118350069Y-85043907D01*
X117944765Y-84663353D01*
X117679618Y-84198240D01*
X117566013Y-83669931D01*
X117562509Y-83566000D01*
X117563282Y-83397281D01*
X117574727Y-83251605D01*
X117607074Y-83102915D01*
X117670555Y-82925156D01*
X117775401Y-82692272D01*
X117931841Y-82378207D01*
X118150106Y-81956905D01*
X118327122Y-81618666D01*
X118498490Y-81273594D01*
X118598687Y-81008515D01*
X118645532Y-80759357D01*
X118656840Y-80462047D01*
X118656738Y-80433333D01*
X118578530Y-79840418D01*
X118358833Y-79313523D01*
X118009920Y-78877993D01*
X117833005Y-78732185D01*
X117660264Y-78607791D01*
X117505087Y-78505944D01*
X117349018Y-78424390D01*
X117173601Y-78360874D01*
X116960377Y-78313143D01*
X116690892Y-78278942D01*
X116346687Y-78256018D01*
X115909308Y-78242115D01*
X115360296Y-78234980D01*
X114681196Y-78232359D01*
X113853550Y-78231998D01*
X113737512Y-78232000D01*
X110571037Y-78232000D01*
X110474595Y-78020333D01*
X110366814Y-77864140D01*
X110266144Y-77808666D01*
X110145062Y-77843194D01*
X109927983Y-77932997D01*
X109657164Y-78057404D01*
X109374857Y-78195741D01*
X109123319Y-78327336D01*
X108944802Y-78431519D01*
X108881334Y-78486151D01*
X89323334Y-78486151D01*
X89323334Y-76614443D01*
X110659334Y-76614443D01*
X110698807Y-76719984D01*
X110803086Y-76929221D01*
X110950963Y-77199993D01*
X110976304Y-77244552D01*
X111293275Y-77798885D01*
X114214804Y-77828379D01*
X115063815Y-77837823D01*
X115762467Y-77849524D01*
X116329734Y-77866716D01*
X116784586Y-77892633D01*
X117145997Y-77930509D01*
X117432938Y-77983579D01*
X117664382Y-78055075D01*
X117859301Y-78148234D01*
X118036668Y-78266288D01*
X118215453Y-78412472D01*
X118352011Y-78533633D01*
X118763070Y-79009100D01*
X119036899Y-79576398D01*
X119177734Y-80244479D01*
X119182069Y-80288198D01*
X119195638Y-80466491D01*
X119194149Y-80626613D01*
X119168842Y-80790468D01*
X119110958Y-80979961D01*
X119011741Y-81216995D01*
X118862430Y-81523475D01*
X118654267Y-81921306D01*
X118378495Y-82432392D01*
X118176128Y-82804000D01*
X118080629Y-83034641D01*
X118039938Y-83306081D01*
X118043716Y-83668995D01*
X118070447Y-83996689D01*
X118122499Y-84214504D01*
X118219573Y-84381801D01*
X118317073Y-84492538D01*
X118542198Y-84679835D01*
X118782847Y-84813552D01*
X118822466Y-84827530D01*
X118947059Y-84840612D01*
X119230343Y-84854159D01*
X119661676Y-84867989D01*
X120230414Y-84881922D01*
X120925917Y-84895774D01*
X121737542Y-84909367D01*
X122654648Y-84922518D01*
X123666592Y-84935046D01*
X124762733Y-84946770D01*
X125932428Y-84957509D01*
X126911572Y-84965252D01*
X134739477Y-85022863D01*
X135166572Y-85213035D01*
X135683840Y-85527136D01*
X136136030Y-85962928D01*
X136474922Y-86473611D01*
X136483693Y-86491354D01*
X136593590Y-86752451D01*
X136657296Y-87017525D01*
X136686081Y-87348478D01*
X136691419Y-87632415D01*
X136689374Y-87945912D01*
X136671895Y-88188290D01*
X136626383Y-88406257D01*
X136540236Y-88646518D01*
X136400854Y-88955781D01*
X136249834Y-89269277D01*
X136077710Y-89626526D01*
X135936615Y-89925122D01*
X135841006Y-90134063D01*
X135805339Y-90222342D01*
X135805334Y-90222539D01*
X135883652Y-90236947D01*
X136093529Y-90243401D01*
X136397343Y-90241207D01*
X136571882Y-90236677D01*
X137338430Y-90212333D01*
X137689640Y-89450333D01*
X137861869Y-89059081D01*
X137970630Y-88751019D01*
X138032876Y-88460319D01*
X138065561Y-88121153D01*
X138074147Y-87957386D01*
X138064488Y-87209165D01*
X137955109Y-86553154D01*
X137736290Y-85938128D01*
X137661027Y-85780125D01*
X137233183Y-85101859D01*
X136692046Y-84548747D01*
X136042560Y-84124730D01*
X135289673Y-83833748D01*
X135181785Y-83805225D01*
X135067761Y-83778956D01*
X134940822Y-83755883D01*
X134789831Y-83735798D01*
X134603651Y-83718494D01*
X134371143Y-83703761D01*
X134081171Y-83691393D01*
X133722597Y-83681181D01*
X133284283Y-83672916D01*
X132755094Y-83666391D01*
X132123890Y-83661398D01*
X131379535Y-83657728D01*
X130510891Y-83655175D01*
X129506821Y-83653528D01*
X128356187Y-83652581D01*
X127047853Y-83652126D01*
X126985889Y-83652114D01*
X125627374Y-83651406D01*
X124429482Y-83649752D01*
X123383503Y-83647028D01*
X122480729Y-83643113D01*
X121712450Y-83637883D01*
X121069958Y-83631217D01*
X120544544Y-83622991D01*
X120127498Y-83613083D01*
X119810112Y-83601371D01*
X119583677Y-83587733D01*
X119439484Y-83572045D01*
X119368824Y-83554185D01*
X119358478Y-83544833D01*
X119380717Y-83431366D01*
X119453269Y-83240352D01*
X123917925Y-83240352D01*
X123918518Y-83241654D01*
X124044922Y-83306903D01*
X124236629Y-83286225D01*
X124392400Y-83206166D01*
X124404195Y-83190485D01*
X124883334Y-83190485D01*
X124961832Y-83206401D01*
X125172672Y-83218860D01*
X125478873Y-83226148D01*
X125678608Y-83227333D01*
X126063500Y-83222415D01*
X126310758Y-83204271D01*
X126451889Y-83167813D01*
X126518397Y-83107955D01*
X126526412Y-83090447D01*
X126596808Y-82948038D01*
X126733959Y-82702105D01*
X126919667Y-82382604D01*
X127135733Y-82019490D01*
X127363960Y-81642719D01*
X127586148Y-81282246D01*
X127784100Y-80968029D01*
X127939618Y-80730023D01*
X128034502Y-80598183D01*
X128049819Y-80582796D01*
X128155296Y-80566920D01*
X128408185Y-80552323D01*
X128786565Y-80539559D01*
X129268516Y-80529181D01*
X129832119Y-80521743D01*
X130455451Y-80517797D01*
X130640667Y-80517390D01*
X133138334Y-80514187D01*
X133874811Y-79241841D01*
X134119477Y-78815334D01*
X134335470Y-78431598D01*
X134507747Y-78117936D01*
X134621262Y-77901652D01*
X134659409Y-77817881D01*
X134664096Y-77777079D01*
X134638781Y-77743713D01*
X134567167Y-77716592D01*
X134432959Y-77694527D01*
X134219858Y-77676328D01*
X133911570Y-77660804D01*
X133491797Y-77646766D01*
X132944243Y-77633025D01*
X132252612Y-77618389D01*
X131806265Y-77609554D01*
X130960684Y-77594140D01*
X130266560Y-77585251D01*
X129706087Y-77584543D01*
X129261457Y-77593669D01*
X128914864Y-77614285D01*
X128648503Y-77648047D01*
X128444565Y-77696608D01*
X128285246Y-77761624D01*
X128152738Y-77844750D01*
X128029234Y-77947640D01*
X128013451Y-77962059D01*
X127932379Y-78068462D01*
X127780511Y-78297562D01*
X127570065Y-78628947D01*
X127313259Y-79042208D01*
X127022313Y-79516935D01*
X126709445Y-80032719D01*
X126386874Y-80569150D01*
X126066818Y-81105817D01*
X125761497Y-81622313D01*
X125483129Y-82098226D01*
X125243933Y-82513147D01*
X125056128Y-82846666D01*
X124931932Y-83078373D01*
X124883564Y-83187860D01*
X124883334Y-83190485D01*
X124404195Y-83190485D01*
X124465910Y-83108438D01*
X124610792Y-82881570D01*
X124815892Y-82544285D01*
X125070055Y-82115304D01*
X125362125Y-81613350D01*
X125680949Y-81057144D01*
X125842695Y-80772000D01*
X126276386Y-80005635D01*
X126636019Y-79373028D01*
X126930388Y-78860257D01*
X127168290Y-78453401D01*
X127358520Y-78138538D01*
X127509873Y-77901748D01*
X127631146Y-77729109D01*
X127731132Y-77606700D01*
X127818629Y-77520600D01*
X127902431Y-77456887D01*
X127960477Y-77420042D01*
X128037158Y-77379152D01*
X128130293Y-77345554D01*
X128256690Y-77318388D01*
X128433159Y-77296798D01*
X128676509Y-77279924D01*
X129003551Y-77266909D01*
X129431092Y-77256895D01*
X129975944Y-77249024D01*
X130654914Y-77242437D01*
X131484812Y-77236277D01*
X131572000Y-77235684D01*
X132412371Y-77229757D01*
X133099665Y-77223851D01*
X133650137Y-77217038D01*
X134080041Y-77208390D01*
X134405632Y-77196980D01*
X134643162Y-77181880D01*
X134808887Y-77162161D01*
X134919062Y-77136897D01*
X134989939Y-77105159D01*
X135037773Y-77066020D01*
X135064046Y-77036365D01*
X135157559Y-76881645D01*
X135164883Y-76783847D01*
X135072014Y-76766654D01*
X134826978Y-76751129D01*
X134446939Y-76737641D01*
X133949057Y-76726560D01*
X133350496Y-76718253D01*
X132668416Y-76713090D01*
X131919981Y-76711439D01*
X131799837Y-76711521D01*
X130893993Y-76713284D01*
X130140534Y-76717933D01*
X129522512Y-76727656D01*
X129022980Y-76744638D01*
X128624991Y-76771065D01*
X128311596Y-76809124D01*
X128065850Y-76861000D01*
X127870803Y-76928881D01*
X127709510Y-77014951D01*
X127565022Y-77121397D01*
X127420393Y-77250406D01*
X127388400Y-77280586D01*
X127254089Y-77441931D01*
X127057544Y-77722837D01*
X126817593Y-78094196D01*
X126553066Y-78526902D01*
X126292956Y-78973919D01*
X125962756Y-79553897D01*
X125585954Y-80212471D01*
X125199584Y-80885108D01*
X124840679Y-81507274D01*
X124682002Y-81781154D01*
X124432166Y-82218843D01*
X124218384Y-82607437D01*
X124053112Y-82923105D01*
X123948807Y-83142019D01*
X123917925Y-83240352D01*
X119453269Y-83240352D01*
X119467835Y-83202003D01*
X119484745Y-83163833D01*
X121861653Y-83163833D01*
X121923706Y-83191211D01*
X122120214Y-83212661D01*
X122416323Y-83225248D01*
X122615678Y-83227333D01*
X123406015Y-83227333D01*
X124133989Y-81978500D01*
X124410563Y-81504066D01*
X124744626Y-80931062D01*
X125108364Y-80307194D01*
X125473961Y-79680169D01*
X125813602Y-79097692D01*
X125824696Y-79078666D01*
X126144913Y-78541643D01*
X126454648Y-78044618D01*
X126736733Y-77613709D01*
X126974001Y-77275033D01*
X127149283Y-77054707D01*
X127168882Y-77033774D01*
X127318972Y-76882893D01*
X127462343Y-76756771D01*
X127615107Y-76653188D01*
X127793373Y-76569929D01*
X128013252Y-76504774D01*
X128290857Y-76455507D01*
X128642296Y-76419909D01*
X129083682Y-76395762D01*
X129631125Y-76380849D01*
X130300736Y-76372952D01*
X131108626Y-76369853D01*
X131995601Y-76369333D01*
X135521135Y-76369333D01*
X135874901Y-75751030D01*
X136036687Y-75461687D01*
X136159602Y-75229340D01*
X136223766Y-75092052D01*
X136228667Y-75073696D01*
X136146749Y-75061840D01*
X135911989Y-75050820D01*
X135540878Y-75040877D01*
X135049904Y-75032249D01*
X134455559Y-75025176D01*
X133774333Y-75019896D01*
X133022716Y-75016649D01*
X132228167Y-75015671D01*
X131245147Y-75016551D01*
X130415486Y-75019440D01*
X129723210Y-75025513D01*
X129152347Y-75035945D01*
X128686923Y-75051912D01*
X128310965Y-75074587D01*
X128008501Y-75105148D01*
X127763557Y-75144767D01*
X127560161Y-75194622D01*
X127382339Y-75255886D01*
X127214119Y-75329736D01*
X127084667Y-75394078D01*
X126478195Y-75795592D01*
X125932630Y-76349701D01*
X125835413Y-76472492D01*
X125730351Y-76627076D01*
X125550486Y-76911738D01*
X125305662Y-77309900D01*
X125005727Y-77804981D01*
X124660525Y-78380402D01*
X124279903Y-79019586D01*
X123873706Y-79705952D01*
X123451780Y-80422921D01*
X123023970Y-81153915D01*
X122600123Y-81882354D01*
X122190084Y-82591659D01*
X121861653Y-83163833D01*
X119484745Y-83163833D01*
X119605769Y-82890653D01*
X119770977Y-82550000D01*
X120080254Y-81881794D01*
X120282746Y-81298854D01*
X120385589Y-80761163D01*
X120395919Y-80228704D01*
X120320873Y-79661459D01*
X120302436Y-79569667D01*
X120059646Y-78788973D01*
X119683628Y-78106515D01*
X119185949Y-77532733D01*
X118578174Y-77078066D01*
X117871870Y-76752950D01*
X117078603Y-76567827D01*
X116960584Y-76553602D01*
X116634673Y-76522485D01*
X116429651Y-76520516D01*
X116298422Y-76555537D01*
X116193887Y-76635389D01*
X116141144Y-76690033D01*
X115927722Y-76892145D01*
X115713352Y-77064137D01*
X115475704Y-77234387D01*
X115063162Y-76886526D01*
X114650621Y-76538666D01*
X112654977Y-76538666D01*
X112080472Y-76541741D01*
X111574348Y-76550408D01*
X111158661Y-76563830D01*
X110855465Y-76581169D01*
X110686813Y-76601588D01*
X110659334Y-76614443D01*
X89323334Y-76614443D01*
X89323334Y-76294206D01*
X114314111Y-76294206D01*
X114368150Y-76344131D01*
X114537584Y-76368779D01*
X114572095Y-76369333D01*
X114787811Y-76335131D01*
X114994247Y-76212201D01*
X115186795Y-76032924D01*
X115515289Y-75696516D01*
X115803242Y-76032924D01*
X116001319Y-76239937D01*
X116173074Y-76340119D01*
X116383927Y-76368965D01*
X116423264Y-76369333D01*
X116632971Y-76357303D01*
X116747890Y-76327321D01*
X116755334Y-76316128D01*
X116701056Y-76235924D01*
X116558516Y-76067659D01*
X116358152Y-75844039D01*
X116130401Y-75597766D01*
X115905703Y-75361545D01*
X115714494Y-75168080D01*
X115587214Y-75050074D01*
X115558390Y-75030085D01*
X115480948Y-75077031D01*
X115320263Y-75218341D01*
X115106884Y-75422980D01*
X114871360Y-75659912D01*
X114644239Y-75898102D01*
X114456070Y-76106512D01*
X114337403Y-76254107D01*
X114314111Y-76294206D01*
X89323334Y-76294206D01*
X89323334Y-66040000D01*
X157056667Y-66040000D01*
X157056667Y-124460000D01*
G36*
X117157840Y-98105756D02*
G01*
X117452581Y-98274399D01*
X117638011Y-98524990D01*
X117686667Y-98763666D01*
X117609295Y-99061234D01*
X117398011Y-99296490D01*
X117084057Y-99444496D01*
X116785033Y-99483333D01*
X116688611Y-99475175D01*
X116629759Y-99428377D01*
X116599214Y-99309454D01*
X116587717Y-99084921D01*
X116586000Y-98763666D01*
X116588256Y-98415024D01*
X116601199Y-98202224D01*
X116634088Y-98091780D01*
X116696186Y-98050207D01*
X116785033Y-98044000D01*
X117157840Y-98105756D01*
G37*
X117157840Y-98105756D02*
X117452581Y-98274399D01*
X117638011Y-98524990D01*
X117686667Y-98763666D01*
X117609295Y-99061234D01*
X117398011Y-99296490D01*
X117084057Y-99444496D01*
X116785033Y-99483333D01*
X116688611Y-99475175D01*
X116629759Y-99428377D01*
X116599214Y-99309454D01*
X116587717Y-99084921D01*
X116586000Y-98763666D01*
X116588256Y-98415024D01*
X116601199Y-98202224D01*
X116634088Y-98091780D01*
X116696186Y-98050207D01*
X116785033Y-98044000D01*
X117157840Y-98105756D01*
G36*
X120364082Y-98646301D02*
G01*
X120450503Y-98918591D01*
X120457372Y-99070624D01*
X120378517Y-99134754D01*
X120269000Y-99144666D01*
X120109748Y-99126252D01*
X120057334Y-99090989D01*
X120079657Y-98982996D01*
X120135480Y-98777927D01*
X120158857Y-98698457D01*
X120260380Y-98359602D01*
X120364082Y-98646301D01*
G37*
X120364082Y-98646301D02*
X120450503Y-98918591D01*
X120457372Y-99070624D01*
X120378517Y-99134754D01*
X120269000Y-99144666D01*
X120109748Y-99126252D01*
X120057334Y-99090989D01*
X120079657Y-98982996D01*
X120135480Y-98777927D01*
X120158857Y-98698457D01*
X120260380Y-98359602D01*
X120364082Y-98646301D01*
G36*
X118932795Y-98346692D02*
G01*
X119085910Y-98462576D01*
X119126000Y-98562885D01*
X119057129Y-98694653D01*
X118898478Y-98821694D01*
X118721989Y-98889088D01*
X118696619Y-98890666D01*
X118583508Y-98855021D01*
X118538125Y-98719082D01*
X118533334Y-98594333D01*
X118550130Y-98392894D01*
X118621795Y-98310662D01*
X118728067Y-98298000D01*
X118932795Y-98346692D01*
G37*
X118932795Y-98346692D02*
X119085910Y-98462576D01*
X119126000Y-98562885D01*
X119057129Y-98694653D01*
X118898478Y-98821694D01*
X118721989Y-98889088D01*
X118696619Y-98890666D01*
X118583508Y-98855021D01*
X118538125Y-98719082D01*
X118533334Y-98594333D01*
X118550130Y-98392894D01*
X118621795Y-98310662D01*
X118728067Y-98298000D01*
X118932795Y-98346692D01*
G36*
X123671537Y-98364519D02*
G01*
X123798033Y-98521479D01*
X123888232Y-98763896D01*
X123915687Y-99008181D01*
X123901809Y-99092349D01*
X123756960Y-99380742D01*
X123555409Y-99532826D01*
X123324753Y-99537988D01*
X123105334Y-99398666D01*
X122965124Y-99170895D01*
X122934877Y-98914301D01*
X122995308Y-98664108D01*
X123127131Y-98455536D01*
X123311063Y-98323811D01*
X123527819Y-98304153D01*
X123671537Y-98364519D01*
G37*
X123671537Y-98364519D02*
X123798033Y-98521479D01*
X123888232Y-98763896D01*
X123915687Y-99008181D01*
X123901809Y-99092349D01*
X123756960Y-99380742D01*
X123555409Y-99532826D01*
X123324753Y-99537988D01*
X123105334Y-99398666D01*
X122965124Y-99170895D01*
X122934877Y-98914301D01*
X122995308Y-98664108D01*
X123127131Y-98455536D01*
X123311063Y-98323811D01*
X123527819Y-98304153D01*
X123671537Y-98364519D01*
G36*
X114579949Y-95070084D02*
G01*
X114734155Y-95260267D01*
X114821326Y-95518442D01*
X114828625Y-95796503D01*
X114743213Y-96046344D01*
X114674953Y-96132952D01*
X114452637Y-96254273D01*
X114210073Y-96216312D01*
X114046000Y-96096666D01*
X113910723Y-95866234D01*
X113882664Y-95593918D01*
X113947717Y-95327418D01*
X114091773Y-95114435D01*
X114300723Y-95002668D01*
X114371545Y-94996000D01*
X114579949Y-95070084D01*
G37*
X114579949Y-95070084D02*
X114734155Y-95260267D01*
X114821326Y-95518442D01*
X114828625Y-95796503D01*
X114743213Y-96046344D01*
X114674953Y-96132952D01*
X114452637Y-96254273D01*
X114210073Y-96216312D01*
X114046000Y-96096666D01*
X113910723Y-95866234D01*
X113882664Y-95593918D01*
X113947717Y-95327418D01*
X114091773Y-95114435D01*
X114300723Y-95002668D01*
X114371545Y-94996000D01*
X114579949Y-95070084D01*
G36*
X124910590Y-95201860D02*
G01*
X124990752Y-95441906D01*
X125042273Y-95605372D01*
X125052667Y-95646082D01*
X124978017Y-95663970D01*
X124794063Y-95673050D01*
X124750628Y-95673333D01*
X124553418Y-95662268D01*
X124485603Y-95608462D01*
X124507095Y-95482833D01*
X124582264Y-95262550D01*
X124667058Y-95038611D01*
X124768514Y-94784888D01*
X124910590Y-95201860D01*
G37*
X124910590Y-95201860D02*
X124990752Y-95441906D01*
X125042273Y-95605372D01*
X125052667Y-95646082D01*
X124978017Y-95663970D01*
X124794063Y-95673050D01*
X124750628Y-95673333D01*
X124553418Y-95662268D01*
X124485603Y-95608462D01*
X124507095Y-95482833D01*
X124582264Y-95262550D01*
X124667058Y-95038611D01*
X124768514Y-94784888D01*
X124910590Y-95201860D01*
G36*
X126484759Y-95045459D02*
G01*
X126722650Y-95164935D01*
X126850537Y-95283841D01*
X126895671Y-95431095D01*
X126912741Y-95631000D01*
X126893232Y-95844515D01*
X126850537Y-95978158D01*
X126682807Y-96122621D01*
X126437377Y-96232348D01*
X126243566Y-96266000D01*
X126154262Y-96252270D01*
X126101873Y-96187583D01*
X126076694Y-96036694D01*
X126069016Y-95764355D01*
X126068667Y-95631000D01*
X126072448Y-95306764D01*
X126090265Y-95116562D01*
X126131825Y-95025145D01*
X126206836Y-94997268D01*
X126243566Y-94996000D01*
X126484759Y-95045459D01*
G37*
X126484759Y-95045459D02*
X126722650Y-95164935D01*
X126850537Y-95283841D01*
X126895671Y-95431095D01*
X126912741Y-95631000D01*
X126893232Y-95844515D01*
X126850537Y-95978158D01*
X126682807Y-96122621D01*
X126437377Y-96232348D01*
X126243566Y-96266000D01*
X126154262Y-96252270D01*
X126101873Y-96187583D01*
X126076694Y-96036694D01*
X126069016Y-95764355D01*
X126068667Y-95631000D01*
X126072448Y-95306764D01*
X126090265Y-95116562D01*
X126131825Y-95025145D01*
X126206836Y-94997268D01*
X126243566Y-94996000D01*
X126484759Y-95045459D01*
G36*
X128068749Y-95344301D02*
G01*
X128155170Y-95616591D01*
X128162039Y-95768624D01*
X128083183Y-95832754D01*
X127973667Y-95842666D01*
X127814415Y-95824252D01*
X127762000Y-95788989D01*
X127784323Y-95680996D01*
X127840147Y-95475927D01*
X127863524Y-95396457D01*
X127965047Y-95057602D01*
X128068749Y-95344301D01*
G37*
X128068749Y-95344301D02*
X128155170Y-95616591D01*
X128162039Y-95768624D01*
X128083183Y-95832754D01*
X127973667Y-95842666D01*
X127814415Y-95824252D01*
X127762000Y-95788989D01*
X127784323Y-95680996D01*
X127840147Y-95475927D01*
X127863524Y-95396457D01*
X127965047Y-95057602D01*
X128068749Y-95344301D01*
G36*
X129458249Y-95050762D02*
G01*
X129624826Y-95177509D01*
X129708291Y-95319929D01*
X129709334Y-95334666D01*
X129639902Y-95475294D01*
X129479205Y-95606679D01*
X129298637Y-95672510D01*
X129279953Y-95673333D01*
X129172673Y-95642699D01*
X129125379Y-95521860D01*
X129116667Y-95334666D01*
X129131437Y-95112161D01*
X129189699Y-95014069D01*
X129279953Y-94996000D01*
X129458249Y-95050762D01*
G37*
X129458249Y-95050762D02*
X129624826Y-95177509D01*
X129708291Y-95319929D01*
X129709334Y-95334666D01*
X129639902Y-95475294D01*
X129479205Y-95606679D01*
X129298637Y-95672510D01*
X129279953Y-95673333D01*
X129172673Y-95642699D01*
X129125379Y-95521860D01*
X129116667Y-95334666D01*
X129131437Y-95112161D01*
X129189699Y-95014069D01*
X129279953Y-94996000D01*
X129458249Y-95050762D01*
G36*
X133234683Y-95011430D02*
G01*
X133235627Y-95011542D01*
X133460773Y-95094544D01*
X133567397Y-95242766D01*
X133557452Y-95407178D01*
X133432891Y-95538748D01*
X133212633Y-95588666D01*
X133077044Y-95565134D01*
X133020920Y-95461947D01*
X133011334Y-95286709D01*
X133023726Y-95087035D01*
X133085752Y-95010517D01*
X133234683Y-95011430D01*
G37*
X133234683Y-95011430D02*
X133235627Y-95011542D01*
X133460773Y-95094544D01*
X133567397Y-95242766D01*
X133557452Y-95407178D01*
X133432891Y-95538748D01*
X133212633Y-95588666D01*
X133077044Y-95565134D01*
X133020920Y-95461947D01*
X133011334Y-95286709D01*
X133023726Y-95087035D01*
X133085752Y-95010517D01*
X133234683Y-95011430D01*
%TD*%
M02*
