%TF.GenerationSoftware,KiCad,Pcbnew,(5.1.8)-1*%
%TF.CreationDate,2021-01-17T21:43:13+01:00*%
%TF.ProjectId,D32 Joystick Adapter Faceplate A1,44333220-4a6f-4797-9374-69636b204164,rev?*%
%TF.SameCoordinates,Original*%
%TF.FileFunction,Copper,L2,Bot*%
%TF.FilePolarity,Positive*%
%FSLAX46Y46*%
G04 Gerber Fmt 4.6, Leading zero omitted, Abs format (unit mm)*
G04 Created by KiCad (PCBNEW (5.1.8)-1) date 2021-01-17 21:43:13*
%MOMM*%
%LPD*%
G01*
G04 APERTURE LIST*
%TA.AperFunction,ComponentPad*%
%ADD10C,3.500000*%
%TD*%
%TA.AperFunction,Conductor*%
%ADD11C,0.254000*%
%TD*%
%TA.AperFunction,Conductor*%
%ADD12C,0.100000*%
%TD*%
G04 APERTURE END LIST*
D10*
%TO.P,M1,1*%
%TO.N,Net-(M1-Pad1)*%
X102235000Y-108585000D03*
%TD*%
%TO.P,M2,1*%
%TO.N,Net-(M1-Pad1)*%
X143510000Y-108585000D03*
%TD*%
%TO.P,M3,1*%
%TO.N,Net-(M1-Pad1)*%
X143510000Y-75565000D03*
%TD*%
%TO.P,M4,1*%
%TO.N,Net-(M1-Pad1)*%
X102235000Y-75565000D03*
%TD*%
D11*
%TO.N,Net-(M1-Pad1)*%
X144121222Y-72478096D02*
X144709164Y-72655606D01*
X145251436Y-72943937D01*
X145727364Y-73332094D01*
X146118845Y-73805314D01*
X146410951Y-74345552D01*
X146592563Y-74932244D01*
X146660000Y-75573879D01*
X146660001Y-108552711D01*
X146596904Y-109196221D01*
X146419394Y-109784164D01*
X146131063Y-110326436D01*
X145742906Y-110802364D01*
X145269686Y-111193845D01*
X144729449Y-111485950D01*
X144142756Y-111667563D01*
X143501130Y-111735000D01*
X138906775Y-111735000D01*
X138899987Y-111734335D01*
X138899500Y-111729699D01*
X138899500Y-110254609D01*
X142019997Y-110254609D01*
X142206073Y-110595766D01*
X142623409Y-110811513D01*
X143074815Y-110941696D01*
X143542946Y-110981313D01*
X144009811Y-110928842D01*
X144457468Y-110786297D01*
X144813927Y-110595766D01*
X145000003Y-110254609D01*
X143510000Y-108764605D01*
X142019997Y-110254609D01*
X138899500Y-110254609D01*
X138899500Y-110076581D01*
X138896742Y-110048581D01*
X138896769Y-110044745D01*
X138895869Y-110035574D01*
X138882914Y-109912323D01*
X138870887Y-109853733D01*
X138859678Y-109794971D01*
X138857014Y-109786149D01*
X138820367Y-109667762D01*
X138797192Y-109612632D01*
X138774778Y-109557153D01*
X138770451Y-109549017D01*
X138711507Y-109440002D01*
X138678065Y-109390422D01*
X138645303Y-109340355D01*
X138639478Y-109333214D01*
X138560482Y-109237724D01*
X138518066Y-109195603D01*
X138476184Y-109152834D01*
X138469084Y-109146961D01*
X138373045Y-109068633D01*
X138323203Y-109035518D01*
X138273862Y-109001733D01*
X138265756Y-108997350D01*
X138156332Y-108939168D01*
X138101054Y-108916384D01*
X138046045Y-108892807D01*
X138037241Y-108890082D01*
X137918601Y-108854262D01*
X137859872Y-108842633D01*
X137801405Y-108830206D01*
X137792247Y-108829244D01*
X137792244Y-108829243D01*
X137792241Y-108829243D01*
X137668902Y-108817150D01*
X137636919Y-108814000D01*
X132429775Y-108814000D01*
X132422987Y-108813335D01*
X132422500Y-108808699D01*
X132422500Y-108617946D01*
X141113687Y-108617946D01*
X141166158Y-109084811D01*
X141308703Y-109532468D01*
X141499234Y-109888927D01*
X141840391Y-110075003D01*
X143330395Y-108585000D01*
X143689605Y-108585000D01*
X145179609Y-110075003D01*
X145520766Y-109888927D01*
X145736513Y-109471591D01*
X145866696Y-109020185D01*
X145906313Y-108552054D01*
X145853842Y-108085189D01*
X145711297Y-107637532D01*
X145520766Y-107281073D01*
X145179609Y-107094997D01*
X143689605Y-108585000D01*
X143330395Y-108585000D01*
X141840391Y-107094997D01*
X141499234Y-107281073D01*
X141283487Y-107698409D01*
X141153304Y-108149815D01*
X141113687Y-108617946D01*
X132422500Y-108617946D01*
X132422500Y-106915391D01*
X142019997Y-106915391D01*
X143510000Y-108405395D01*
X145000003Y-106915391D01*
X144813927Y-106574234D01*
X144396591Y-106358487D01*
X143945185Y-106228304D01*
X143477054Y-106188687D01*
X143010189Y-106241158D01*
X142562532Y-106383703D01*
X142206073Y-106574234D01*
X142019997Y-106915391D01*
X132422500Y-106915391D01*
X132422500Y-100869081D01*
X132419742Y-100841081D01*
X132419769Y-100837245D01*
X132418869Y-100828074D01*
X132405914Y-100704823D01*
X132393887Y-100646233D01*
X132382678Y-100587471D01*
X132380014Y-100578649D01*
X132343367Y-100460262D01*
X132320192Y-100405132D01*
X132297778Y-100349653D01*
X132293451Y-100341517D01*
X132234507Y-100232502D01*
X132201065Y-100182922D01*
X132168303Y-100132855D01*
X132162478Y-100125714D01*
X132083482Y-100030224D01*
X132041066Y-99988103D01*
X131999184Y-99945334D01*
X131992084Y-99939461D01*
X131896045Y-99861133D01*
X131846203Y-99828018D01*
X131796862Y-99794233D01*
X131788756Y-99789850D01*
X131679332Y-99731668D01*
X131624054Y-99708884D01*
X131569045Y-99685307D01*
X131560241Y-99682582D01*
X131441601Y-99646762D01*
X131382872Y-99635133D01*
X131324405Y-99622706D01*
X131315247Y-99621744D01*
X131315244Y-99621743D01*
X131315241Y-99621743D01*
X131191902Y-99609650D01*
X131159919Y-99606500D01*
X114331081Y-99606500D01*
X114303081Y-99609258D01*
X114299245Y-99609231D01*
X114290074Y-99610131D01*
X114166823Y-99623086D01*
X114108233Y-99635113D01*
X114049471Y-99646322D01*
X114040649Y-99648986D01*
X113922262Y-99685633D01*
X113867132Y-99708808D01*
X113811653Y-99731222D01*
X113803517Y-99735549D01*
X113694502Y-99794493D01*
X113644922Y-99827935D01*
X113594855Y-99860697D01*
X113587714Y-99866522D01*
X113492224Y-99945518D01*
X113450103Y-99987934D01*
X113407334Y-100029816D01*
X113401461Y-100036916D01*
X113323133Y-100132955D01*
X113290018Y-100182797D01*
X113256233Y-100232138D01*
X113251850Y-100240244D01*
X113193668Y-100349668D01*
X113170884Y-100404946D01*
X113147307Y-100459955D01*
X113144582Y-100468759D01*
X113108762Y-100587399D01*
X113097141Y-100646092D01*
X113084706Y-100704595D01*
X113083744Y-100713753D01*
X113083744Y-100713754D01*
X113083743Y-100713759D01*
X113071650Y-100837098D01*
X113068500Y-100869082D01*
X113068501Y-108806715D01*
X113067835Y-108813513D01*
X113063199Y-108814000D01*
X107854081Y-108814000D01*
X107826081Y-108816758D01*
X107822245Y-108816731D01*
X107813074Y-108817631D01*
X107689823Y-108830586D01*
X107631233Y-108842613D01*
X107572471Y-108853822D01*
X107563649Y-108856486D01*
X107445262Y-108893133D01*
X107390132Y-108916308D01*
X107334653Y-108938722D01*
X107326517Y-108943049D01*
X107217502Y-109001993D01*
X107167922Y-109035435D01*
X107117855Y-109068197D01*
X107110714Y-109074022D01*
X107015224Y-109153018D01*
X106973103Y-109195434D01*
X106930334Y-109237316D01*
X106924461Y-109244416D01*
X106846133Y-109340455D01*
X106813018Y-109390297D01*
X106779233Y-109439638D01*
X106774850Y-109447744D01*
X106716668Y-109557168D01*
X106693890Y-109612432D01*
X106670307Y-109667455D01*
X106667582Y-109676259D01*
X106631762Y-109794899D01*
X106620141Y-109853592D01*
X106607706Y-109912095D01*
X106606744Y-109921253D01*
X106606744Y-109921254D01*
X106606743Y-109921259D01*
X106594650Y-110044598D01*
X106591500Y-110076582D01*
X106591501Y-111727716D01*
X106590835Y-111734513D01*
X106586199Y-111735000D01*
X102267279Y-111735000D01*
X101623779Y-111671904D01*
X101035836Y-111494394D01*
X100493564Y-111206063D01*
X100017636Y-110817906D01*
X99626155Y-110344686D01*
X99577451Y-110254609D01*
X100744997Y-110254609D01*
X100931073Y-110595766D01*
X101348409Y-110811513D01*
X101799815Y-110941696D01*
X102267946Y-110981313D01*
X102734811Y-110928842D01*
X103182468Y-110786297D01*
X103538927Y-110595766D01*
X103725003Y-110254609D01*
X102235000Y-108764605D01*
X100744997Y-110254609D01*
X99577451Y-110254609D01*
X99334050Y-109804449D01*
X99152437Y-109217756D01*
X99089395Y-108617946D01*
X99838687Y-108617946D01*
X99891158Y-109084811D01*
X100033703Y-109532468D01*
X100224234Y-109888927D01*
X100565391Y-110075003D01*
X102055395Y-108585000D01*
X102414605Y-108585000D01*
X103904609Y-110075003D01*
X104245766Y-109888927D01*
X104461513Y-109471591D01*
X104591696Y-109020185D01*
X104631313Y-108552054D01*
X104578842Y-108085189D01*
X104436297Y-107637532D01*
X104245766Y-107281073D01*
X103904609Y-107094997D01*
X102414605Y-108585000D01*
X102055395Y-108585000D01*
X100565391Y-107094997D01*
X100224234Y-107281073D01*
X100008487Y-107698409D01*
X99878304Y-108149815D01*
X99838687Y-108617946D01*
X99089395Y-108617946D01*
X99085000Y-108576130D01*
X99085000Y-106915391D01*
X100744997Y-106915391D01*
X102235000Y-108405395D01*
X103725003Y-106915391D01*
X103538927Y-106574234D01*
X103121591Y-106358487D01*
X102670185Y-106228304D01*
X102202054Y-106188687D01*
X101735189Y-106241158D01*
X101287532Y-106383703D01*
X100931073Y-106574234D01*
X100744997Y-106915391D01*
X99085000Y-106915391D01*
X99085000Y-77234609D01*
X100744997Y-77234609D01*
X100931073Y-77575766D01*
X101348409Y-77791513D01*
X101799815Y-77921696D01*
X102267946Y-77961313D01*
X102734811Y-77908842D01*
X103182468Y-77766297D01*
X103538927Y-77575766D01*
X103725003Y-77234609D01*
X142019997Y-77234609D01*
X142206073Y-77575766D01*
X142623409Y-77791513D01*
X143074815Y-77921696D01*
X143542946Y-77961313D01*
X144009811Y-77908842D01*
X144457468Y-77766297D01*
X144813927Y-77575766D01*
X145000003Y-77234609D01*
X143510000Y-75744605D01*
X142019997Y-77234609D01*
X103725003Y-77234609D01*
X102235000Y-75744605D01*
X100744997Y-77234609D01*
X99085000Y-77234609D01*
X99085000Y-75597946D01*
X99838687Y-75597946D01*
X99891158Y-76064811D01*
X100033703Y-76512468D01*
X100224234Y-76868927D01*
X100565391Y-77055003D01*
X102055395Y-75565000D01*
X102414605Y-75565000D01*
X103904609Y-77055003D01*
X104245766Y-76868927D01*
X104461513Y-76451591D01*
X104591696Y-76000185D01*
X104625736Y-75597946D01*
X141113687Y-75597946D01*
X141166158Y-76064811D01*
X141308703Y-76512468D01*
X141499234Y-76868927D01*
X141840391Y-77055003D01*
X143330395Y-75565000D01*
X143689605Y-75565000D01*
X145179609Y-77055003D01*
X145520766Y-76868927D01*
X145736513Y-76451591D01*
X145866696Y-76000185D01*
X145906313Y-75532054D01*
X145853842Y-75065189D01*
X145711297Y-74617532D01*
X145520766Y-74261073D01*
X145179609Y-74074997D01*
X143689605Y-75565000D01*
X143330395Y-75565000D01*
X141840391Y-74074997D01*
X141499234Y-74261073D01*
X141283487Y-74678409D01*
X141153304Y-75129815D01*
X141113687Y-75597946D01*
X104625736Y-75597946D01*
X104631313Y-75532054D01*
X104578842Y-75065189D01*
X104436297Y-74617532D01*
X104245766Y-74261073D01*
X103904609Y-74074997D01*
X102414605Y-75565000D01*
X102055395Y-75565000D01*
X100565391Y-74074997D01*
X100224234Y-74261073D01*
X100008487Y-74678409D01*
X99878304Y-75129815D01*
X99838687Y-75597946D01*
X99085000Y-75597946D01*
X99085000Y-75597279D01*
X99148096Y-74953778D01*
X99325606Y-74365836D01*
X99575745Y-73895391D01*
X100744997Y-73895391D01*
X102235000Y-75385395D01*
X103725003Y-73895391D01*
X142019997Y-73895391D01*
X143510000Y-75385395D01*
X145000003Y-73895391D01*
X144813927Y-73554234D01*
X144396591Y-73338487D01*
X143945185Y-73208304D01*
X143477054Y-73168687D01*
X143010189Y-73221158D01*
X142562532Y-73363703D01*
X142206073Y-73554234D01*
X142019997Y-73895391D01*
X103725003Y-73895391D01*
X103538927Y-73554234D01*
X103121591Y-73338487D01*
X102670185Y-73208304D01*
X102202054Y-73168687D01*
X101735189Y-73221158D01*
X101287532Y-73363703D01*
X100931073Y-73554234D01*
X100744997Y-73895391D01*
X99575745Y-73895391D01*
X99613937Y-73823564D01*
X100002094Y-73347636D01*
X100475314Y-72956155D01*
X101015552Y-72664049D01*
X101602244Y-72482437D01*
X102243879Y-72415000D01*
X143477721Y-72415000D01*
X144121222Y-72478096D01*
%TA.AperFunction,Conductor*%
D12*
G36*
X144121222Y-72478096D02*
G01*
X144709164Y-72655606D01*
X145251436Y-72943937D01*
X145727364Y-73332094D01*
X146118845Y-73805314D01*
X146410951Y-74345552D01*
X146592563Y-74932244D01*
X146660000Y-75573879D01*
X146660001Y-108552711D01*
X146596904Y-109196221D01*
X146419394Y-109784164D01*
X146131063Y-110326436D01*
X145742906Y-110802364D01*
X145269686Y-111193845D01*
X144729449Y-111485950D01*
X144142756Y-111667563D01*
X143501130Y-111735000D01*
X138906775Y-111735000D01*
X138899987Y-111734335D01*
X138899500Y-111729699D01*
X138899500Y-110254609D01*
X142019997Y-110254609D01*
X142206073Y-110595766D01*
X142623409Y-110811513D01*
X143074815Y-110941696D01*
X143542946Y-110981313D01*
X144009811Y-110928842D01*
X144457468Y-110786297D01*
X144813927Y-110595766D01*
X145000003Y-110254609D01*
X143510000Y-108764605D01*
X142019997Y-110254609D01*
X138899500Y-110254609D01*
X138899500Y-110076581D01*
X138896742Y-110048581D01*
X138896769Y-110044745D01*
X138895869Y-110035574D01*
X138882914Y-109912323D01*
X138870887Y-109853733D01*
X138859678Y-109794971D01*
X138857014Y-109786149D01*
X138820367Y-109667762D01*
X138797192Y-109612632D01*
X138774778Y-109557153D01*
X138770451Y-109549017D01*
X138711507Y-109440002D01*
X138678065Y-109390422D01*
X138645303Y-109340355D01*
X138639478Y-109333214D01*
X138560482Y-109237724D01*
X138518066Y-109195603D01*
X138476184Y-109152834D01*
X138469084Y-109146961D01*
X138373045Y-109068633D01*
X138323203Y-109035518D01*
X138273862Y-109001733D01*
X138265756Y-108997350D01*
X138156332Y-108939168D01*
X138101054Y-108916384D01*
X138046045Y-108892807D01*
X138037241Y-108890082D01*
X137918601Y-108854262D01*
X137859872Y-108842633D01*
X137801405Y-108830206D01*
X137792247Y-108829244D01*
X137792244Y-108829243D01*
X137792241Y-108829243D01*
X137668902Y-108817150D01*
X137636919Y-108814000D01*
X132429775Y-108814000D01*
X132422987Y-108813335D01*
X132422500Y-108808699D01*
X132422500Y-108617946D01*
X141113687Y-108617946D01*
X141166158Y-109084811D01*
X141308703Y-109532468D01*
X141499234Y-109888927D01*
X141840391Y-110075003D01*
X143330395Y-108585000D01*
X143689605Y-108585000D01*
X145179609Y-110075003D01*
X145520766Y-109888927D01*
X145736513Y-109471591D01*
X145866696Y-109020185D01*
X145906313Y-108552054D01*
X145853842Y-108085189D01*
X145711297Y-107637532D01*
X145520766Y-107281073D01*
X145179609Y-107094997D01*
X143689605Y-108585000D01*
X143330395Y-108585000D01*
X141840391Y-107094997D01*
X141499234Y-107281073D01*
X141283487Y-107698409D01*
X141153304Y-108149815D01*
X141113687Y-108617946D01*
X132422500Y-108617946D01*
X132422500Y-106915391D01*
X142019997Y-106915391D01*
X143510000Y-108405395D01*
X145000003Y-106915391D01*
X144813927Y-106574234D01*
X144396591Y-106358487D01*
X143945185Y-106228304D01*
X143477054Y-106188687D01*
X143010189Y-106241158D01*
X142562532Y-106383703D01*
X142206073Y-106574234D01*
X142019997Y-106915391D01*
X132422500Y-106915391D01*
X132422500Y-100869081D01*
X132419742Y-100841081D01*
X132419769Y-100837245D01*
X132418869Y-100828074D01*
X132405914Y-100704823D01*
X132393887Y-100646233D01*
X132382678Y-100587471D01*
X132380014Y-100578649D01*
X132343367Y-100460262D01*
X132320192Y-100405132D01*
X132297778Y-100349653D01*
X132293451Y-100341517D01*
X132234507Y-100232502D01*
X132201065Y-100182922D01*
X132168303Y-100132855D01*
X132162478Y-100125714D01*
X132083482Y-100030224D01*
X132041066Y-99988103D01*
X131999184Y-99945334D01*
X131992084Y-99939461D01*
X131896045Y-99861133D01*
X131846203Y-99828018D01*
X131796862Y-99794233D01*
X131788756Y-99789850D01*
X131679332Y-99731668D01*
X131624054Y-99708884D01*
X131569045Y-99685307D01*
X131560241Y-99682582D01*
X131441601Y-99646762D01*
X131382872Y-99635133D01*
X131324405Y-99622706D01*
X131315247Y-99621744D01*
X131315244Y-99621743D01*
X131315241Y-99621743D01*
X131191902Y-99609650D01*
X131159919Y-99606500D01*
X114331081Y-99606500D01*
X114303081Y-99609258D01*
X114299245Y-99609231D01*
X114290074Y-99610131D01*
X114166823Y-99623086D01*
X114108233Y-99635113D01*
X114049471Y-99646322D01*
X114040649Y-99648986D01*
X113922262Y-99685633D01*
X113867132Y-99708808D01*
X113811653Y-99731222D01*
X113803517Y-99735549D01*
X113694502Y-99794493D01*
X113644922Y-99827935D01*
X113594855Y-99860697D01*
X113587714Y-99866522D01*
X113492224Y-99945518D01*
X113450103Y-99987934D01*
X113407334Y-100029816D01*
X113401461Y-100036916D01*
X113323133Y-100132955D01*
X113290018Y-100182797D01*
X113256233Y-100232138D01*
X113251850Y-100240244D01*
X113193668Y-100349668D01*
X113170884Y-100404946D01*
X113147307Y-100459955D01*
X113144582Y-100468759D01*
X113108762Y-100587399D01*
X113097141Y-100646092D01*
X113084706Y-100704595D01*
X113083744Y-100713753D01*
X113083744Y-100713754D01*
X113083743Y-100713759D01*
X113071650Y-100837098D01*
X113068500Y-100869082D01*
X113068501Y-108806715D01*
X113067835Y-108813513D01*
X113063199Y-108814000D01*
X107854081Y-108814000D01*
X107826081Y-108816758D01*
X107822245Y-108816731D01*
X107813074Y-108817631D01*
X107689823Y-108830586D01*
X107631233Y-108842613D01*
X107572471Y-108853822D01*
X107563649Y-108856486D01*
X107445262Y-108893133D01*
X107390132Y-108916308D01*
X107334653Y-108938722D01*
X107326517Y-108943049D01*
X107217502Y-109001993D01*
X107167922Y-109035435D01*
X107117855Y-109068197D01*
X107110714Y-109074022D01*
X107015224Y-109153018D01*
X106973103Y-109195434D01*
X106930334Y-109237316D01*
X106924461Y-109244416D01*
X106846133Y-109340455D01*
X106813018Y-109390297D01*
X106779233Y-109439638D01*
X106774850Y-109447744D01*
X106716668Y-109557168D01*
X106693890Y-109612432D01*
X106670307Y-109667455D01*
X106667582Y-109676259D01*
X106631762Y-109794899D01*
X106620141Y-109853592D01*
X106607706Y-109912095D01*
X106606744Y-109921253D01*
X106606744Y-109921254D01*
X106606743Y-109921259D01*
X106594650Y-110044598D01*
X106591500Y-110076582D01*
X106591501Y-111727716D01*
X106590835Y-111734513D01*
X106586199Y-111735000D01*
X102267279Y-111735000D01*
X101623779Y-111671904D01*
X101035836Y-111494394D01*
X100493564Y-111206063D01*
X100017636Y-110817906D01*
X99626155Y-110344686D01*
X99577451Y-110254609D01*
X100744997Y-110254609D01*
X100931073Y-110595766D01*
X101348409Y-110811513D01*
X101799815Y-110941696D01*
X102267946Y-110981313D01*
X102734811Y-110928842D01*
X103182468Y-110786297D01*
X103538927Y-110595766D01*
X103725003Y-110254609D01*
X102235000Y-108764605D01*
X100744997Y-110254609D01*
X99577451Y-110254609D01*
X99334050Y-109804449D01*
X99152437Y-109217756D01*
X99089395Y-108617946D01*
X99838687Y-108617946D01*
X99891158Y-109084811D01*
X100033703Y-109532468D01*
X100224234Y-109888927D01*
X100565391Y-110075003D01*
X102055395Y-108585000D01*
X102414605Y-108585000D01*
X103904609Y-110075003D01*
X104245766Y-109888927D01*
X104461513Y-109471591D01*
X104591696Y-109020185D01*
X104631313Y-108552054D01*
X104578842Y-108085189D01*
X104436297Y-107637532D01*
X104245766Y-107281073D01*
X103904609Y-107094997D01*
X102414605Y-108585000D01*
X102055395Y-108585000D01*
X100565391Y-107094997D01*
X100224234Y-107281073D01*
X100008487Y-107698409D01*
X99878304Y-108149815D01*
X99838687Y-108617946D01*
X99089395Y-108617946D01*
X99085000Y-108576130D01*
X99085000Y-106915391D01*
X100744997Y-106915391D01*
X102235000Y-108405395D01*
X103725003Y-106915391D01*
X103538927Y-106574234D01*
X103121591Y-106358487D01*
X102670185Y-106228304D01*
X102202054Y-106188687D01*
X101735189Y-106241158D01*
X101287532Y-106383703D01*
X100931073Y-106574234D01*
X100744997Y-106915391D01*
X99085000Y-106915391D01*
X99085000Y-77234609D01*
X100744997Y-77234609D01*
X100931073Y-77575766D01*
X101348409Y-77791513D01*
X101799815Y-77921696D01*
X102267946Y-77961313D01*
X102734811Y-77908842D01*
X103182468Y-77766297D01*
X103538927Y-77575766D01*
X103725003Y-77234609D01*
X142019997Y-77234609D01*
X142206073Y-77575766D01*
X142623409Y-77791513D01*
X143074815Y-77921696D01*
X143542946Y-77961313D01*
X144009811Y-77908842D01*
X144457468Y-77766297D01*
X144813927Y-77575766D01*
X145000003Y-77234609D01*
X143510000Y-75744605D01*
X142019997Y-77234609D01*
X103725003Y-77234609D01*
X102235000Y-75744605D01*
X100744997Y-77234609D01*
X99085000Y-77234609D01*
X99085000Y-75597946D01*
X99838687Y-75597946D01*
X99891158Y-76064811D01*
X100033703Y-76512468D01*
X100224234Y-76868927D01*
X100565391Y-77055003D01*
X102055395Y-75565000D01*
X102414605Y-75565000D01*
X103904609Y-77055003D01*
X104245766Y-76868927D01*
X104461513Y-76451591D01*
X104591696Y-76000185D01*
X104625736Y-75597946D01*
X141113687Y-75597946D01*
X141166158Y-76064811D01*
X141308703Y-76512468D01*
X141499234Y-76868927D01*
X141840391Y-77055003D01*
X143330395Y-75565000D01*
X143689605Y-75565000D01*
X145179609Y-77055003D01*
X145520766Y-76868927D01*
X145736513Y-76451591D01*
X145866696Y-76000185D01*
X145906313Y-75532054D01*
X145853842Y-75065189D01*
X145711297Y-74617532D01*
X145520766Y-74261073D01*
X145179609Y-74074997D01*
X143689605Y-75565000D01*
X143330395Y-75565000D01*
X141840391Y-74074997D01*
X141499234Y-74261073D01*
X141283487Y-74678409D01*
X141153304Y-75129815D01*
X141113687Y-75597946D01*
X104625736Y-75597946D01*
X104631313Y-75532054D01*
X104578842Y-75065189D01*
X104436297Y-74617532D01*
X104245766Y-74261073D01*
X103904609Y-74074997D01*
X102414605Y-75565000D01*
X102055395Y-75565000D01*
X100565391Y-74074997D01*
X100224234Y-74261073D01*
X100008487Y-74678409D01*
X99878304Y-75129815D01*
X99838687Y-75597946D01*
X99085000Y-75597946D01*
X99085000Y-75597279D01*
X99148096Y-74953778D01*
X99325606Y-74365836D01*
X99575745Y-73895391D01*
X100744997Y-73895391D01*
X102235000Y-75385395D01*
X103725003Y-73895391D01*
X142019997Y-73895391D01*
X143510000Y-75385395D01*
X145000003Y-73895391D01*
X144813927Y-73554234D01*
X144396591Y-73338487D01*
X143945185Y-73208304D01*
X143477054Y-73168687D01*
X143010189Y-73221158D01*
X142562532Y-73363703D01*
X142206073Y-73554234D01*
X142019997Y-73895391D01*
X103725003Y-73895391D01*
X103538927Y-73554234D01*
X103121591Y-73338487D01*
X102670185Y-73208304D01*
X102202054Y-73168687D01*
X101735189Y-73221158D01*
X101287532Y-73363703D01*
X100931073Y-73554234D01*
X100744997Y-73895391D01*
X99575745Y-73895391D01*
X99613937Y-73823564D01*
X100002094Y-73347636D01*
X100475314Y-72956155D01*
X101015552Y-72664049D01*
X101602244Y-72482437D01*
X102243879Y-72415000D01*
X143477721Y-72415000D01*
X144121222Y-72478096D01*
G37*
%TD.AperFunction*%
%TD*%
M02*
