%TF.GenerationSoftware,KiCad,Pcbnew,(5.1.8)-1*%
%TF.CreationDate,2021-01-23T23:47:55+01:00*%
%TF.ProjectId,D32 Joystick Adapter,44333220-4a6f-4797-9374-69636b204164,rev?*%
%TF.SameCoordinates,Original*%
%TF.FileFunction,Legend,Top*%
%TF.FilePolarity,Positive*%
%FSLAX46Y46*%
G04 Gerber Fmt 4.6, Leading zero omitted, Abs format (unit mm)*
G04 Created by KiCad (PCBNEW (5.1.8)-1) date 2021-01-23 23:47:55*
%MOMM*%
%LPD*%
G01*
G04 APERTURE LIST*
%ADD10C,0.100000*%
%ADD11C,0.150000*%
%ADD12C,0.120000*%
G04 APERTURE END LIST*
D10*
X117246380Y-86696571D02*
X117246380Y-87229904D01*
X117055904Y-86391809D02*
X116865428Y-86963238D01*
X117360666Y-86963238D01*
X128041428Y-86506095D02*
X128079523Y-86468000D01*
X128155714Y-86429904D01*
X128346190Y-86429904D01*
X128422380Y-86468000D01*
X128460476Y-86506095D01*
X128498571Y-86582285D01*
X128498571Y-86658476D01*
X128460476Y-86772761D01*
X128003333Y-87229904D01*
X128498571Y-87229904D01*
X120205476Y-81349904D02*
X119824523Y-81349904D01*
X119786428Y-81730857D01*
X119824523Y-81692761D01*
X119900714Y-81654666D01*
X120091190Y-81654666D01*
X120167380Y-81692761D01*
X120205476Y-81730857D01*
X120243571Y-81807047D01*
X120243571Y-81997523D01*
X120205476Y-82073714D01*
X120167380Y-82111809D01*
X120091190Y-82149904D01*
X119900714Y-82149904D01*
X119824523Y-82111809D01*
X119786428Y-82073714D01*
X122834380Y-84016904D02*
X122682000Y-84016904D01*
X122605809Y-84055000D01*
X122567714Y-84093095D01*
X122491523Y-84207380D01*
X122453428Y-84359761D01*
X122453428Y-84664523D01*
X122491523Y-84740714D01*
X122529619Y-84778809D01*
X122605809Y-84816904D01*
X122758190Y-84816904D01*
X122834380Y-84778809D01*
X122872476Y-84740714D01*
X122910571Y-84664523D01*
X122910571Y-84474047D01*
X122872476Y-84397857D01*
X122834380Y-84359761D01*
X122758190Y-84321666D01*
X122605809Y-84321666D01*
X122529619Y-84359761D01*
X122491523Y-84397857D01*
X122453428Y-84474047D01*
X122415333Y-89096904D02*
X122910571Y-89096904D01*
X122643904Y-89401666D01*
X122758190Y-89401666D01*
X122834380Y-89439761D01*
X122872476Y-89477857D01*
X122910571Y-89554047D01*
X122910571Y-89744523D01*
X122872476Y-89820714D01*
X122834380Y-89858809D01*
X122758190Y-89896904D01*
X122529619Y-89896904D01*
X122453428Y-89858809D01*
X122415333Y-89820714D01*
X125323571Y-82022904D02*
X124866428Y-82022904D01*
X125095000Y-82022904D02*
X125095000Y-81222904D01*
X125018809Y-81337190D01*
X124942619Y-81413380D01*
X124866428Y-81451476D01*
D11*
X117555000Y-94813333D02*
X117507380Y-94765714D01*
X117412142Y-94622857D01*
X117364523Y-94527619D01*
X117316904Y-94384761D01*
X117269285Y-94146666D01*
X117269285Y-93956190D01*
X117316904Y-93718095D01*
X117364523Y-93575238D01*
X117412142Y-93480000D01*
X117507380Y-93337142D01*
X117555000Y-93289523D01*
X117935952Y-94432380D02*
X117935952Y-93432380D01*
X117935952Y-93813333D02*
X118031190Y-93765714D01*
X118221666Y-93765714D01*
X118316904Y-93813333D01*
X118364523Y-93860952D01*
X118412142Y-93956190D01*
X118412142Y-94241904D01*
X118364523Y-94337142D01*
X118316904Y-94384761D01*
X118221666Y-94432380D01*
X118031190Y-94432380D01*
X117935952Y-94384761D01*
X119269285Y-94432380D02*
X119269285Y-93908571D01*
X119221666Y-93813333D01*
X119126428Y-93765714D01*
X118935952Y-93765714D01*
X118840714Y-93813333D01*
X119269285Y-94384761D02*
X119174047Y-94432380D01*
X118935952Y-94432380D01*
X118840714Y-94384761D01*
X118793095Y-94289523D01*
X118793095Y-94194285D01*
X118840714Y-94099047D01*
X118935952Y-94051428D01*
X119174047Y-94051428D01*
X119269285Y-94003809D01*
X120174047Y-94384761D02*
X120078809Y-94432380D01*
X119888333Y-94432380D01*
X119793095Y-94384761D01*
X119745476Y-94337142D01*
X119697857Y-94241904D01*
X119697857Y-93956190D01*
X119745476Y-93860952D01*
X119793095Y-93813333D01*
X119888333Y-93765714D01*
X120078809Y-93765714D01*
X120174047Y-93813333D01*
X120602619Y-94432380D02*
X120602619Y-93432380D01*
X120697857Y-94051428D02*
X120983571Y-94432380D01*
X120983571Y-93765714D02*
X120602619Y-94146666D01*
X122316904Y-94432380D02*
X122221666Y-94384761D01*
X122174047Y-94337142D01*
X122126428Y-94241904D01*
X122126428Y-93956190D01*
X122174047Y-93860952D01*
X122221666Y-93813333D01*
X122316904Y-93765714D01*
X122459761Y-93765714D01*
X122555000Y-93813333D01*
X122602619Y-93860952D01*
X122650238Y-93956190D01*
X122650238Y-94241904D01*
X122602619Y-94337142D01*
X122555000Y-94384761D01*
X122459761Y-94432380D01*
X122316904Y-94432380D01*
X122935952Y-93765714D02*
X123316904Y-93765714D01*
X123078809Y-94432380D02*
X123078809Y-93575238D01*
X123126428Y-93480000D01*
X123221666Y-93432380D01*
X123316904Y-93432380D01*
X124412142Y-93765714D02*
X124412142Y-94765714D01*
X124412142Y-93813333D02*
X124507380Y-93765714D01*
X124697857Y-93765714D01*
X124793095Y-93813333D01*
X124840714Y-93860952D01*
X124888333Y-93956190D01*
X124888333Y-94241904D01*
X124840714Y-94337142D01*
X124793095Y-94384761D01*
X124697857Y-94432380D01*
X124507380Y-94432380D01*
X124412142Y-94384761D01*
X125459761Y-94432380D02*
X125364523Y-94384761D01*
X125316904Y-94289523D01*
X125316904Y-93432380D01*
X126269285Y-93765714D02*
X126269285Y-94432380D01*
X125840714Y-93765714D02*
X125840714Y-94289523D01*
X125888333Y-94384761D01*
X125983571Y-94432380D01*
X126126428Y-94432380D01*
X126221666Y-94384761D01*
X126269285Y-94337142D01*
X127174047Y-93765714D02*
X127174047Y-94575238D01*
X127126428Y-94670476D01*
X127078809Y-94718095D01*
X126983571Y-94765714D01*
X126840714Y-94765714D01*
X126745476Y-94718095D01*
X127174047Y-94384761D02*
X127078809Y-94432380D01*
X126888333Y-94432380D01*
X126793095Y-94384761D01*
X126745476Y-94337142D01*
X126697857Y-94241904D01*
X126697857Y-93956190D01*
X126745476Y-93860952D01*
X126793095Y-93813333D01*
X126888333Y-93765714D01*
X127078809Y-93765714D01*
X127174047Y-93813333D01*
X127555000Y-94813333D02*
X127602619Y-94765714D01*
X127697857Y-94622857D01*
X127745476Y-94527619D01*
X127793095Y-94384761D01*
X127840714Y-94146666D01*
X127840714Y-93956190D01*
X127793095Y-93718095D01*
X127745476Y-93575238D01*
X127697857Y-93480000D01*
X127602619Y-93337142D01*
X127555000Y-93289523D01*
X99957380Y-95789285D02*
X98957380Y-95789285D01*
X98957380Y-95551190D01*
X99005000Y-95408333D01*
X99100238Y-95313095D01*
X99195476Y-95265476D01*
X99385952Y-95217857D01*
X99528809Y-95217857D01*
X99719285Y-95265476D01*
X99814523Y-95313095D01*
X99909761Y-95408333D01*
X99957380Y-95551190D01*
X99957380Y-95789285D01*
X99957380Y-94789285D02*
X99290714Y-94789285D01*
X99481190Y-94789285D02*
X99385952Y-94741666D01*
X99338333Y-94694047D01*
X99290714Y-94598809D01*
X99290714Y-94503571D01*
X99957380Y-93741666D02*
X99433571Y-93741666D01*
X99338333Y-93789285D01*
X99290714Y-93884523D01*
X99290714Y-94075000D01*
X99338333Y-94170238D01*
X99909761Y-93741666D02*
X99957380Y-93836904D01*
X99957380Y-94075000D01*
X99909761Y-94170238D01*
X99814523Y-94217857D01*
X99719285Y-94217857D01*
X99624047Y-94170238D01*
X99576428Y-94075000D01*
X99576428Y-93836904D01*
X99528809Y-93741666D01*
X99290714Y-92836904D02*
X100100238Y-92836904D01*
X100195476Y-92884523D01*
X100243095Y-92932142D01*
X100290714Y-93027380D01*
X100290714Y-93170238D01*
X100243095Y-93265476D01*
X99909761Y-92836904D02*
X99957380Y-92932142D01*
X99957380Y-93122619D01*
X99909761Y-93217857D01*
X99862142Y-93265476D01*
X99766904Y-93313095D01*
X99481190Y-93313095D01*
X99385952Y-93265476D01*
X99338333Y-93217857D01*
X99290714Y-93122619D01*
X99290714Y-92932142D01*
X99338333Y-92836904D01*
X99957380Y-92217857D02*
X99909761Y-92313095D01*
X99862142Y-92360714D01*
X99766904Y-92408333D01*
X99481190Y-92408333D01*
X99385952Y-92360714D01*
X99338333Y-92313095D01*
X99290714Y-92217857D01*
X99290714Y-92075000D01*
X99338333Y-91979761D01*
X99385952Y-91932142D01*
X99481190Y-91884523D01*
X99766904Y-91884523D01*
X99862142Y-91932142D01*
X99909761Y-91979761D01*
X99957380Y-92075000D01*
X99957380Y-92217857D01*
X99290714Y-91455952D02*
X99957380Y-91455952D01*
X99385952Y-91455952D02*
X99338333Y-91408333D01*
X99290714Y-91313095D01*
X99290714Y-91170238D01*
X99338333Y-91075000D01*
X99433571Y-91027380D01*
X99957380Y-91027380D01*
X98957380Y-89884523D02*
X98957380Y-89265476D01*
X99338333Y-89598809D01*
X99338333Y-89455952D01*
X99385952Y-89360714D01*
X99433571Y-89313095D01*
X99528809Y-89265476D01*
X99766904Y-89265476D01*
X99862142Y-89313095D01*
X99909761Y-89360714D01*
X99957380Y-89455952D01*
X99957380Y-89741666D01*
X99909761Y-89836904D01*
X99862142Y-89884523D01*
X99052619Y-88884523D02*
X99005000Y-88836904D01*
X98957380Y-88741666D01*
X98957380Y-88503571D01*
X99005000Y-88408333D01*
X99052619Y-88360714D01*
X99147857Y-88313095D01*
X99243095Y-88313095D01*
X99385952Y-88360714D01*
X99957380Y-88932142D01*
X99957380Y-88313095D01*
X101607380Y-100813095D02*
X100607380Y-100813095D01*
X100607380Y-100575000D01*
X100655000Y-100432142D01*
X100750238Y-100336904D01*
X100845476Y-100289285D01*
X101035952Y-100241666D01*
X101178809Y-100241666D01*
X101369285Y-100289285D01*
X101464523Y-100336904D01*
X101559761Y-100432142D01*
X101607380Y-100575000D01*
X101607380Y-100813095D01*
X101607380Y-99813095D02*
X100940714Y-99813095D01*
X100607380Y-99813095D02*
X100655000Y-99860714D01*
X100702619Y-99813095D01*
X100655000Y-99765476D01*
X100607380Y-99813095D01*
X100702619Y-99813095D01*
X100940714Y-98908333D02*
X101750238Y-98908333D01*
X101845476Y-98955952D01*
X101893095Y-99003571D01*
X101940714Y-99098809D01*
X101940714Y-99241666D01*
X101893095Y-99336904D01*
X101559761Y-98908333D02*
X101607380Y-99003571D01*
X101607380Y-99194047D01*
X101559761Y-99289285D01*
X101512142Y-99336904D01*
X101416904Y-99384523D01*
X101131190Y-99384523D01*
X101035952Y-99336904D01*
X100988333Y-99289285D01*
X100940714Y-99194047D01*
X100940714Y-99003571D01*
X100988333Y-98908333D01*
X101607380Y-98432142D02*
X100940714Y-98432142D01*
X100607380Y-98432142D02*
X100655000Y-98479761D01*
X100702619Y-98432142D01*
X100655000Y-98384523D01*
X100607380Y-98432142D01*
X100702619Y-98432142D01*
X100940714Y-98098809D02*
X100940714Y-97717857D01*
X100607380Y-97955952D02*
X101464523Y-97955952D01*
X101559761Y-97908333D01*
X101607380Y-97813095D01*
X101607380Y-97717857D01*
X101607380Y-96955952D02*
X101083571Y-96955952D01*
X100988333Y-97003571D01*
X100940714Y-97098809D01*
X100940714Y-97289285D01*
X100988333Y-97384523D01*
X101559761Y-96955952D02*
X101607380Y-97051190D01*
X101607380Y-97289285D01*
X101559761Y-97384523D01*
X101464523Y-97432142D01*
X101369285Y-97432142D01*
X101274047Y-97384523D01*
X101226428Y-97289285D01*
X101226428Y-97051190D01*
X101178809Y-96955952D01*
X101607380Y-96336904D02*
X101559761Y-96432142D01*
X101464523Y-96479761D01*
X100607380Y-96479761D01*
X100607380Y-94908333D02*
X101321666Y-94908333D01*
X101464523Y-94955952D01*
X101559761Y-95051190D01*
X101607380Y-95194047D01*
X101607380Y-95289285D01*
X101607380Y-94289285D02*
X101559761Y-94384523D01*
X101512142Y-94432142D01*
X101416904Y-94479761D01*
X101131190Y-94479761D01*
X101035952Y-94432142D01*
X100988333Y-94384523D01*
X100940714Y-94289285D01*
X100940714Y-94146428D01*
X100988333Y-94051190D01*
X101035952Y-94003571D01*
X101131190Y-93955952D01*
X101416904Y-93955952D01*
X101512142Y-94003571D01*
X101559761Y-94051190D01*
X101607380Y-94146428D01*
X101607380Y-94289285D01*
X100940714Y-93622619D02*
X101607380Y-93384523D01*
X100940714Y-93146428D02*
X101607380Y-93384523D01*
X101845476Y-93479761D01*
X101893095Y-93527380D01*
X101940714Y-93622619D01*
X101559761Y-92813095D02*
X101607380Y-92717857D01*
X101607380Y-92527380D01*
X101559761Y-92432142D01*
X101464523Y-92384523D01*
X101416904Y-92384523D01*
X101321666Y-92432142D01*
X101274047Y-92527380D01*
X101274047Y-92670238D01*
X101226428Y-92765476D01*
X101131190Y-92813095D01*
X101083571Y-92813095D01*
X100988333Y-92765476D01*
X100940714Y-92670238D01*
X100940714Y-92527380D01*
X100988333Y-92432142D01*
X100940714Y-92098809D02*
X100940714Y-91717857D01*
X100607380Y-91955952D02*
X101464523Y-91955952D01*
X101559761Y-91908333D01*
X101607380Y-91813095D01*
X101607380Y-91717857D01*
X101607380Y-91384523D02*
X100940714Y-91384523D01*
X100607380Y-91384523D02*
X100655000Y-91432142D01*
X100702619Y-91384523D01*
X100655000Y-91336904D01*
X100607380Y-91384523D01*
X100702619Y-91384523D01*
X101559761Y-90479761D02*
X101607380Y-90575000D01*
X101607380Y-90765476D01*
X101559761Y-90860714D01*
X101512142Y-90908333D01*
X101416904Y-90955952D01*
X101131190Y-90955952D01*
X101035952Y-90908333D01*
X100988333Y-90860714D01*
X100940714Y-90765476D01*
X100940714Y-90575000D01*
X100988333Y-90479761D01*
X101607380Y-90051190D02*
X100607380Y-90051190D01*
X101226428Y-89955952D02*
X101607380Y-89670238D01*
X100940714Y-89670238D02*
X101321666Y-90051190D01*
X101321666Y-88527380D02*
X101321666Y-88051190D01*
X101607380Y-88622619D02*
X100607380Y-88289285D01*
X101607380Y-87955952D01*
X101607380Y-87194047D02*
X100607380Y-87194047D01*
X101559761Y-87194047D02*
X101607380Y-87289285D01*
X101607380Y-87479761D01*
X101559761Y-87575000D01*
X101512142Y-87622619D01*
X101416904Y-87670238D01*
X101131190Y-87670238D01*
X101035952Y-87622619D01*
X100988333Y-87575000D01*
X100940714Y-87479761D01*
X100940714Y-87289285D01*
X100988333Y-87194047D01*
X101607380Y-86289285D02*
X101083571Y-86289285D01*
X100988333Y-86336904D01*
X100940714Y-86432142D01*
X100940714Y-86622619D01*
X100988333Y-86717857D01*
X101559761Y-86289285D02*
X101607380Y-86384523D01*
X101607380Y-86622619D01*
X101559761Y-86717857D01*
X101464523Y-86765476D01*
X101369285Y-86765476D01*
X101274047Y-86717857D01*
X101226428Y-86622619D01*
X101226428Y-86384523D01*
X101178809Y-86289285D01*
X100940714Y-85813095D02*
X101940714Y-85813095D01*
X100988333Y-85813095D02*
X100940714Y-85717857D01*
X100940714Y-85527380D01*
X100988333Y-85432142D01*
X101035952Y-85384523D01*
X101131190Y-85336904D01*
X101416904Y-85336904D01*
X101512142Y-85384523D01*
X101559761Y-85432142D01*
X101607380Y-85527380D01*
X101607380Y-85717857D01*
X101559761Y-85813095D01*
X100940714Y-85051190D02*
X100940714Y-84670238D01*
X100607380Y-84908333D02*
X101464523Y-84908333D01*
X101559761Y-84860714D01*
X101607380Y-84765476D01*
X101607380Y-84670238D01*
X101559761Y-83955952D02*
X101607380Y-84051190D01*
X101607380Y-84241666D01*
X101559761Y-84336904D01*
X101464523Y-84384523D01*
X101083571Y-84384523D01*
X100988333Y-84336904D01*
X100940714Y-84241666D01*
X100940714Y-84051190D01*
X100988333Y-83955952D01*
X101083571Y-83908333D01*
X101178809Y-83908333D01*
X101274047Y-84384523D01*
X101607380Y-83479761D02*
X100940714Y-83479761D01*
X101131190Y-83479761D02*
X101035952Y-83432142D01*
X100988333Y-83384523D01*
X100940714Y-83289285D01*
X100940714Y-83194047D01*
X144407380Y-95241666D02*
X143931190Y-95575000D01*
X144407380Y-95813095D02*
X143407380Y-95813095D01*
X143407380Y-95432142D01*
X143455000Y-95336904D01*
X143502619Y-95289285D01*
X143597857Y-95241666D01*
X143740714Y-95241666D01*
X143835952Y-95289285D01*
X143883571Y-95336904D01*
X143931190Y-95432142D01*
X143931190Y-95813095D01*
X144359761Y-94432142D02*
X144407380Y-94527380D01*
X144407380Y-94717857D01*
X144359761Y-94813095D01*
X144264523Y-94860714D01*
X143883571Y-94860714D01*
X143788333Y-94813095D01*
X143740714Y-94717857D01*
X143740714Y-94527380D01*
X143788333Y-94432142D01*
X143883571Y-94384523D01*
X143978809Y-94384523D01*
X144074047Y-94860714D01*
X143740714Y-94051190D02*
X144407380Y-93813095D01*
X143740714Y-93575000D01*
X144407380Y-93194047D02*
X143740714Y-93194047D01*
X143407380Y-93194047D02*
X143455000Y-93241666D01*
X143502619Y-93194047D01*
X143455000Y-93146428D01*
X143407380Y-93194047D01*
X143502619Y-93194047D01*
X144359761Y-92765476D02*
X144407380Y-92670238D01*
X144407380Y-92479761D01*
X144359761Y-92384523D01*
X144264523Y-92336904D01*
X144216904Y-92336904D01*
X144121666Y-92384523D01*
X144074047Y-92479761D01*
X144074047Y-92622619D01*
X144026428Y-92717857D01*
X143931190Y-92765476D01*
X143883571Y-92765476D01*
X143788333Y-92717857D01*
X143740714Y-92622619D01*
X143740714Y-92479761D01*
X143788333Y-92384523D01*
X144407380Y-91908333D02*
X143740714Y-91908333D01*
X143407380Y-91908333D02*
X143455000Y-91955952D01*
X143502619Y-91908333D01*
X143455000Y-91860714D01*
X143407380Y-91908333D01*
X143502619Y-91908333D01*
X144407380Y-91289285D02*
X144359761Y-91384523D01*
X144312142Y-91432142D01*
X144216904Y-91479761D01*
X143931190Y-91479761D01*
X143835952Y-91432142D01*
X143788333Y-91384523D01*
X143740714Y-91289285D01*
X143740714Y-91146428D01*
X143788333Y-91051190D01*
X143835952Y-91003571D01*
X143931190Y-90955952D01*
X144216904Y-90955952D01*
X144312142Y-91003571D01*
X144359761Y-91051190D01*
X144407380Y-91146428D01*
X144407380Y-91289285D01*
X143740714Y-90527380D02*
X144407380Y-90527380D01*
X143835952Y-90527380D02*
X143788333Y-90479761D01*
X143740714Y-90384523D01*
X143740714Y-90241666D01*
X143788333Y-90146428D01*
X143883571Y-90098809D01*
X144407380Y-90098809D01*
X143883571Y-88527380D02*
X143931190Y-88384523D01*
X143978809Y-88336904D01*
X144074047Y-88289285D01*
X144216904Y-88289285D01*
X144312142Y-88336904D01*
X144359761Y-88384523D01*
X144407380Y-88479761D01*
X144407380Y-88860714D01*
X143407380Y-88860714D01*
X143407380Y-88527380D01*
X143455000Y-88432142D01*
X143502619Y-88384523D01*
X143597857Y-88336904D01*
X143693095Y-88336904D01*
X143788333Y-88384523D01*
X143835952Y-88432142D01*
X143883571Y-88527380D01*
X143883571Y-88860714D01*
X145390714Y-97479761D02*
X146200238Y-97479761D01*
X146295476Y-97527380D01*
X146343095Y-97575000D01*
X146390714Y-97670238D01*
X146390714Y-97813095D01*
X146343095Y-97908333D01*
X146009761Y-97479761D02*
X146057380Y-97575000D01*
X146057380Y-97765476D01*
X146009761Y-97860714D01*
X145962142Y-97908333D01*
X145866904Y-97955952D01*
X145581190Y-97955952D01*
X145485952Y-97908333D01*
X145438333Y-97860714D01*
X145390714Y-97765476D01*
X145390714Y-97575000D01*
X145438333Y-97479761D01*
X146057380Y-97003571D02*
X145390714Y-97003571D01*
X145057380Y-97003571D02*
X145105000Y-97051190D01*
X145152619Y-97003571D01*
X145105000Y-96955952D01*
X145057380Y-97003571D01*
X145152619Y-97003571D01*
X145390714Y-96670238D02*
X145390714Y-96289285D01*
X145057380Y-96527380D02*
X145914523Y-96527380D01*
X146009761Y-96479761D01*
X146057380Y-96384523D01*
X146057380Y-96289285D01*
X146057380Y-95955952D02*
X145057380Y-95955952D01*
X146057380Y-95527380D02*
X145533571Y-95527380D01*
X145438333Y-95575000D01*
X145390714Y-95670238D01*
X145390714Y-95813095D01*
X145438333Y-95908333D01*
X145485952Y-95955952D01*
X145390714Y-94622619D02*
X146057380Y-94622619D01*
X145390714Y-95051190D02*
X145914523Y-95051190D01*
X146009761Y-95003571D01*
X146057380Y-94908333D01*
X146057380Y-94765476D01*
X146009761Y-94670238D01*
X145962142Y-94622619D01*
X146057380Y-94146428D02*
X145057380Y-94146428D01*
X145438333Y-94146428D02*
X145390714Y-94051190D01*
X145390714Y-93860714D01*
X145438333Y-93765476D01*
X145485952Y-93717857D01*
X145581190Y-93670238D01*
X145866904Y-93670238D01*
X145962142Y-93717857D01*
X146009761Y-93765476D01*
X146057380Y-93860714D01*
X146057380Y-94051190D01*
X146009761Y-94146428D01*
X145962142Y-93241666D02*
X146009761Y-93194047D01*
X146057380Y-93241666D01*
X146009761Y-93289285D01*
X145962142Y-93241666D01*
X146057380Y-93241666D01*
X146009761Y-92336904D02*
X146057380Y-92432142D01*
X146057380Y-92622619D01*
X146009761Y-92717857D01*
X145962142Y-92765476D01*
X145866904Y-92813095D01*
X145581190Y-92813095D01*
X145485952Y-92765476D01*
X145438333Y-92717857D01*
X145390714Y-92622619D01*
X145390714Y-92432142D01*
X145438333Y-92336904D01*
X146057380Y-91765476D02*
X146009761Y-91860714D01*
X145962142Y-91908333D01*
X145866904Y-91955952D01*
X145581190Y-91955952D01*
X145485952Y-91908333D01*
X145438333Y-91860714D01*
X145390714Y-91765476D01*
X145390714Y-91622619D01*
X145438333Y-91527380D01*
X145485952Y-91479761D01*
X145581190Y-91432142D01*
X145866904Y-91432142D01*
X145962142Y-91479761D01*
X146009761Y-91527380D01*
X146057380Y-91622619D01*
X146057380Y-91765476D01*
X146057380Y-91003571D02*
X145390714Y-91003571D01*
X145485952Y-91003571D02*
X145438333Y-90955952D01*
X145390714Y-90860714D01*
X145390714Y-90717857D01*
X145438333Y-90622619D01*
X145533571Y-90575000D01*
X146057380Y-90575000D01*
X145533571Y-90575000D02*
X145438333Y-90527380D01*
X145390714Y-90432142D01*
X145390714Y-90289285D01*
X145438333Y-90194047D01*
X145533571Y-90146428D01*
X146057380Y-90146428D01*
X145009761Y-88955952D02*
X146295476Y-89813095D01*
X145390714Y-88765476D02*
X145390714Y-88384523D01*
X145057380Y-88622619D02*
X145914523Y-88622619D01*
X146009761Y-88575000D01*
X146057380Y-88479761D01*
X146057380Y-88384523D01*
X146009761Y-87670238D02*
X146057380Y-87765476D01*
X146057380Y-87955952D01*
X146009761Y-88051190D01*
X145914523Y-88098809D01*
X145533571Y-88098809D01*
X145438333Y-88051190D01*
X145390714Y-87955952D01*
X145390714Y-87765476D01*
X145438333Y-87670238D01*
X145533571Y-87622619D01*
X145628809Y-87622619D01*
X145724047Y-88098809D01*
X146057380Y-87194047D02*
X145057380Y-87194047D01*
X145438333Y-87194047D02*
X145390714Y-87098809D01*
X145390714Y-86908333D01*
X145438333Y-86813095D01*
X145485952Y-86765476D01*
X145581190Y-86717857D01*
X145866904Y-86717857D01*
X145962142Y-86765476D01*
X146009761Y-86813095D01*
X146057380Y-86908333D01*
X146057380Y-87098809D01*
X146009761Y-87194047D01*
X146057380Y-86146428D02*
X146009761Y-86241666D01*
X145914523Y-86289285D01*
X145057380Y-86289285D01*
D12*
%TO.C,J1*%
X125221998Y-80009999D02*
G75*
G02*
X120142002Y-80010000I-2539998J2539999D01*
G01*
X125222000Y-80010001D02*
G75*
G02*
X120142001Y-80010001I-2540000J-6349999D01*
G01*
%TO.C,J2*%
X107255000Y-112715000D02*
X107255000Y-100375000D01*
X107255000Y-100375000D02*
X138225000Y-100375000D01*
X138225000Y-100375000D02*
X138225000Y-112715000D01*
%TO.C,R1*%
X138660000Y-97790000D02*
X137890000Y-97790000D01*
X130580000Y-97790000D02*
X131350000Y-97790000D01*
X137890000Y-96420000D02*
X131350000Y-96420000D01*
X137890000Y-99160000D02*
X137890000Y-96420000D01*
X131350000Y-99160000D02*
X137890000Y-99160000D01*
X131350000Y-96420000D02*
X131350000Y-99160000D01*
%TO.C,R2*%
X131350000Y-74195000D02*
X131350000Y-76935000D01*
X131350000Y-76935000D02*
X137890000Y-76935000D01*
X137890000Y-76935000D02*
X137890000Y-74195000D01*
X137890000Y-74195000D02*
X131350000Y-74195000D01*
X130580000Y-75565000D02*
X131350000Y-75565000D01*
X138660000Y-75565000D02*
X137890000Y-75565000D01*
%TO.C,R3*%
X131985000Y-77370000D02*
X131985000Y-80110000D01*
X131985000Y-80110000D02*
X138525000Y-80110000D01*
X138525000Y-80110000D02*
X138525000Y-77370000D01*
X138525000Y-77370000D02*
X131985000Y-77370000D01*
X131215000Y-78740000D02*
X131985000Y-78740000D01*
X139295000Y-78740000D02*
X138525000Y-78740000D01*
%TO.C,R4*%
X132485000Y-85090000D02*
X133255000Y-85090000D01*
X140565000Y-85090000D02*
X139795000Y-85090000D01*
X133255000Y-86460000D02*
X139795000Y-86460000D01*
X133255000Y-83720000D02*
X133255000Y-86460000D01*
X139795000Y-83720000D02*
X133255000Y-83720000D01*
X139795000Y-86460000D02*
X139795000Y-83720000D01*
%TO.C,R5*%
X139295000Y-94615000D02*
X138525000Y-94615000D01*
X131215000Y-94615000D02*
X131985000Y-94615000D01*
X138525000Y-93245000D02*
X131985000Y-93245000D01*
X138525000Y-95985000D02*
X138525000Y-93245000D01*
X131985000Y-95985000D02*
X138525000Y-95985000D01*
X131985000Y-93245000D02*
X131985000Y-95985000D01*
%TO.C,R6*%
X133255000Y-80545000D02*
X133255000Y-83285000D01*
X133255000Y-83285000D02*
X139795000Y-83285000D01*
X139795000Y-83285000D02*
X139795000Y-80545000D01*
X139795000Y-80545000D02*
X133255000Y-80545000D01*
X132485000Y-81915000D02*
X133255000Y-81915000D01*
X140565000Y-81915000D02*
X139795000Y-81915000D01*
%TO.C,R7*%
X133255000Y-90070000D02*
X133255000Y-92810000D01*
X133255000Y-92810000D02*
X139795000Y-92810000D01*
X139795000Y-92810000D02*
X139795000Y-90070000D01*
X139795000Y-90070000D02*
X133255000Y-90070000D01*
X132485000Y-91440000D02*
X133255000Y-91440000D01*
X140565000Y-91440000D02*
X139795000Y-91440000D01*
%TO.C,R8*%
X132485000Y-88265000D02*
X133255000Y-88265000D01*
X140565000Y-88265000D02*
X139795000Y-88265000D01*
X133255000Y-89635000D02*
X139795000Y-89635000D01*
X133255000Y-86895000D02*
X133255000Y-89635000D01*
X139795000Y-86895000D02*
X133255000Y-86895000D01*
X139795000Y-89635000D02*
X139795000Y-86895000D01*
%TO.C,U1*%
X108855000Y-79315000D02*
X107605000Y-79315000D01*
X107605000Y-79315000D02*
X107605000Y-97215000D01*
X107605000Y-97215000D02*
X112105000Y-97215000D01*
X112105000Y-97215000D02*
X112105000Y-79315000D01*
X112105000Y-79315000D02*
X110855000Y-79315000D01*
X104605000Y-79255000D02*
X104605000Y-97275000D01*
X104605000Y-97275000D02*
X115105000Y-97275000D01*
X115105000Y-97275000D02*
X115105000Y-79255000D01*
X115105000Y-79255000D02*
X104605000Y-79255000D01*
X110855000Y-79315000D02*
G75*
G02*
X108855000Y-79315000I-1000000J0D01*
G01*
%TO.C,C1*%
X107425000Y-76415000D02*
X107425000Y-76100000D01*
X107425000Y-78840000D02*
X107425000Y-78525000D01*
X112365000Y-76415000D02*
X112365000Y-76100000D01*
X112365000Y-78840000D02*
X112365000Y-78525000D01*
X112365000Y-76100000D02*
X107425000Y-76100000D01*
X112365000Y-78840000D02*
X107425000Y-78840000D01*
%TO.C,JP1*%
X139700000Y-100330000D02*
X140970000Y-100330000D01*
X139700000Y-101600000D02*
X139700000Y-100330000D01*
X142012929Y-104520000D02*
X142410000Y-104520000D01*
X142012929Y-103760000D02*
X142410000Y-103760000D01*
X151070000Y-104520000D02*
X145070000Y-104520000D01*
X151070000Y-103760000D02*
X151070000Y-104520000D01*
X145070000Y-103760000D02*
X151070000Y-103760000D01*
X142410000Y-102870000D02*
X145070000Y-102870000D01*
X142080000Y-101980000D02*
X142410000Y-101980000D01*
X142080000Y-101220000D02*
X142410000Y-101220000D01*
X145070000Y-101880000D02*
X151070000Y-101880000D01*
X145070000Y-101760000D02*
X151070000Y-101760000D01*
X145070000Y-101640000D02*
X151070000Y-101640000D01*
X145070000Y-101520000D02*
X151070000Y-101520000D01*
X145070000Y-101400000D02*
X151070000Y-101400000D01*
X145070000Y-101280000D02*
X151070000Y-101280000D01*
X151070000Y-101980000D02*
X145070000Y-101980000D01*
X151070000Y-101220000D02*
X151070000Y-101980000D01*
X145070000Y-101220000D02*
X151070000Y-101220000D01*
X145070000Y-100270000D02*
X142410000Y-100270000D01*
X145070000Y-105470000D02*
X145070000Y-100270000D01*
X142410000Y-105470000D02*
X145070000Y-105470000D01*
X142410000Y-100270000D02*
X142410000Y-105470000D01*
%TO.C,J1*%
D11*
X122348666Y-79589380D02*
X122348666Y-80303666D01*
X122301047Y-80446523D01*
X122205809Y-80541761D01*
X122062952Y-80589380D01*
X121967714Y-80589380D01*
X123348666Y-80589380D02*
X122777238Y-80589380D01*
X123062952Y-80589380D02*
X123062952Y-79589380D01*
X122967714Y-79732238D01*
X122872476Y-79827476D01*
X122777238Y-79875095D01*
%TO.C,R1*%
X133167380Y-97956666D02*
X132691190Y-98290000D01*
X133167380Y-98528095D02*
X132167380Y-98528095D01*
X132167380Y-98147142D01*
X132215000Y-98051904D01*
X132262619Y-98004285D01*
X132357857Y-97956666D01*
X132500714Y-97956666D01*
X132595952Y-98004285D01*
X132643571Y-98051904D01*
X132691190Y-98147142D01*
X132691190Y-98528095D01*
X133167380Y-97004285D02*
X133167380Y-97575714D01*
X133167380Y-97290000D02*
X132167380Y-97290000D01*
X132310238Y-97385238D01*
X132405476Y-97480476D01*
X132453095Y-97575714D01*
X135294761Y-98242380D02*
X134723333Y-98242380D01*
X135009047Y-98242380D02*
X135009047Y-97242380D01*
X134913809Y-97385238D01*
X134818571Y-97480476D01*
X134723333Y-97528095D01*
X135913809Y-97242380D02*
X136009047Y-97242380D01*
X136104285Y-97290000D01*
X136151904Y-97337619D01*
X136199523Y-97432857D01*
X136247142Y-97623333D01*
X136247142Y-97861428D01*
X136199523Y-98051904D01*
X136151904Y-98147142D01*
X136104285Y-98194761D01*
X136009047Y-98242380D01*
X135913809Y-98242380D01*
X135818571Y-98194761D01*
X135770952Y-98147142D01*
X135723333Y-98051904D01*
X135675714Y-97861428D01*
X135675714Y-97623333D01*
X135723333Y-97432857D01*
X135770952Y-97337619D01*
X135818571Y-97290000D01*
X135913809Y-97242380D01*
X136675714Y-98242380D02*
X136675714Y-97242380D01*
X136770952Y-97861428D02*
X137056666Y-98242380D01*
X137056666Y-97575714D02*
X136675714Y-97956666D01*
%TO.C,R2*%
X133167380Y-75731666D02*
X132691190Y-76065000D01*
X133167380Y-76303095D02*
X132167380Y-76303095D01*
X132167380Y-75922142D01*
X132215000Y-75826904D01*
X132262619Y-75779285D01*
X132357857Y-75731666D01*
X132500714Y-75731666D01*
X132595952Y-75779285D01*
X132643571Y-75826904D01*
X132691190Y-75922142D01*
X132691190Y-76303095D01*
X132262619Y-75350714D02*
X132215000Y-75303095D01*
X132167380Y-75207857D01*
X132167380Y-74969761D01*
X132215000Y-74874523D01*
X132262619Y-74826904D01*
X132357857Y-74779285D01*
X132453095Y-74779285D01*
X132595952Y-74826904D01*
X133167380Y-75398333D01*
X133167380Y-74779285D01*
X135199523Y-75350714D02*
X135199523Y-76017380D01*
X134961428Y-74969761D02*
X134723333Y-75684047D01*
X135342380Y-75684047D01*
X135628095Y-75017380D02*
X136294761Y-75017380D01*
X135866190Y-76017380D01*
X136675714Y-76017380D02*
X136675714Y-75017380D01*
X136770952Y-75636428D02*
X137056666Y-76017380D01*
X137056666Y-75350714D02*
X136675714Y-75731666D01*
%TO.C,R3*%
X133802380Y-78906666D02*
X133326190Y-79240000D01*
X133802380Y-79478095D02*
X132802380Y-79478095D01*
X132802380Y-79097142D01*
X132850000Y-79001904D01*
X132897619Y-78954285D01*
X132992857Y-78906666D01*
X133135714Y-78906666D01*
X133230952Y-78954285D01*
X133278571Y-79001904D01*
X133326190Y-79097142D01*
X133326190Y-79478095D01*
X132802380Y-78573333D02*
X132802380Y-77954285D01*
X133183333Y-78287619D01*
X133183333Y-78144761D01*
X133230952Y-78049523D01*
X133278571Y-78001904D01*
X133373809Y-77954285D01*
X133611904Y-77954285D01*
X133707142Y-78001904D01*
X133754761Y-78049523D01*
X133802380Y-78144761D01*
X133802380Y-78430476D01*
X133754761Y-78525714D01*
X133707142Y-78573333D01*
X135929761Y-79192380D02*
X135358333Y-79192380D01*
X135644047Y-79192380D02*
X135644047Y-78192380D01*
X135548809Y-78335238D01*
X135453571Y-78430476D01*
X135358333Y-78478095D01*
X136548809Y-78192380D02*
X136644047Y-78192380D01*
X136739285Y-78240000D01*
X136786904Y-78287619D01*
X136834523Y-78382857D01*
X136882142Y-78573333D01*
X136882142Y-78811428D01*
X136834523Y-79001904D01*
X136786904Y-79097142D01*
X136739285Y-79144761D01*
X136644047Y-79192380D01*
X136548809Y-79192380D01*
X136453571Y-79144761D01*
X136405952Y-79097142D01*
X136358333Y-79001904D01*
X136310714Y-78811428D01*
X136310714Y-78573333D01*
X136358333Y-78382857D01*
X136405952Y-78287619D01*
X136453571Y-78240000D01*
X136548809Y-78192380D01*
X137310714Y-79192380D02*
X137310714Y-78192380D01*
X137405952Y-78811428D02*
X137691666Y-79192380D01*
X137691666Y-78525714D02*
X137310714Y-78906666D01*
%TO.C,R4*%
X135072380Y-85256666D02*
X134596190Y-85590000D01*
X135072380Y-85828095D02*
X134072380Y-85828095D01*
X134072380Y-85447142D01*
X134120000Y-85351904D01*
X134167619Y-85304285D01*
X134262857Y-85256666D01*
X134405714Y-85256666D01*
X134500952Y-85304285D01*
X134548571Y-85351904D01*
X134596190Y-85447142D01*
X134596190Y-85828095D01*
X134405714Y-84399523D02*
X135072380Y-84399523D01*
X134024761Y-84637619D02*
X134739047Y-84875714D01*
X134739047Y-84256666D01*
X137104523Y-84875714D02*
X137104523Y-85542380D01*
X136866428Y-84494761D02*
X136628333Y-85209047D01*
X137247380Y-85209047D01*
X137533095Y-84542380D02*
X138199761Y-84542380D01*
X137771190Y-85542380D01*
X138580714Y-85542380D02*
X138580714Y-84542380D01*
X138675952Y-85161428D02*
X138961666Y-85542380D01*
X138961666Y-84875714D02*
X138580714Y-85256666D01*
%TO.C,R5*%
X133802380Y-94781666D02*
X133326190Y-95115000D01*
X133802380Y-95353095D02*
X132802380Y-95353095D01*
X132802380Y-94972142D01*
X132850000Y-94876904D01*
X132897619Y-94829285D01*
X132992857Y-94781666D01*
X133135714Y-94781666D01*
X133230952Y-94829285D01*
X133278571Y-94876904D01*
X133326190Y-94972142D01*
X133326190Y-95353095D01*
X132802380Y-93876904D02*
X132802380Y-94353095D01*
X133278571Y-94400714D01*
X133230952Y-94353095D01*
X133183333Y-94257857D01*
X133183333Y-94019761D01*
X133230952Y-93924523D01*
X133278571Y-93876904D01*
X133373809Y-93829285D01*
X133611904Y-93829285D01*
X133707142Y-93876904D01*
X133754761Y-93924523D01*
X133802380Y-94019761D01*
X133802380Y-94257857D01*
X133754761Y-94353095D01*
X133707142Y-94400714D01*
X135929761Y-95067380D02*
X135358333Y-95067380D01*
X135644047Y-95067380D02*
X135644047Y-94067380D01*
X135548809Y-94210238D01*
X135453571Y-94305476D01*
X135358333Y-94353095D01*
X136548809Y-94067380D02*
X136644047Y-94067380D01*
X136739285Y-94115000D01*
X136786904Y-94162619D01*
X136834523Y-94257857D01*
X136882142Y-94448333D01*
X136882142Y-94686428D01*
X136834523Y-94876904D01*
X136786904Y-94972142D01*
X136739285Y-95019761D01*
X136644047Y-95067380D01*
X136548809Y-95067380D01*
X136453571Y-95019761D01*
X136405952Y-94972142D01*
X136358333Y-94876904D01*
X136310714Y-94686428D01*
X136310714Y-94448333D01*
X136358333Y-94257857D01*
X136405952Y-94162619D01*
X136453571Y-94115000D01*
X136548809Y-94067380D01*
X137310714Y-95067380D02*
X137310714Y-94067380D01*
X137405952Y-94686428D02*
X137691666Y-95067380D01*
X137691666Y-94400714D02*
X137310714Y-94781666D01*
%TO.C,R6*%
X135072380Y-82081666D02*
X134596190Y-82415000D01*
X135072380Y-82653095D02*
X134072380Y-82653095D01*
X134072380Y-82272142D01*
X134120000Y-82176904D01*
X134167619Y-82129285D01*
X134262857Y-82081666D01*
X134405714Y-82081666D01*
X134500952Y-82129285D01*
X134548571Y-82176904D01*
X134596190Y-82272142D01*
X134596190Y-82653095D01*
X134072380Y-81224523D02*
X134072380Y-81415000D01*
X134120000Y-81510238D01*
X134167619Y-81557857D01*
X134310476Y-81653095D01*
X134500952Y-81700714D01*
X134881904Y-81700714D01*
X134977142Y-81653095D01*
X135024761Y-81605476D01*
X135072380Y-81510238D01*
X135072380Y-81319761D01*
X135024761Y-81224523D01*
X134977142Y-81176904D01*
X134881904Y-81129285D01*
X134643809Y-81129285D01*
X134548571Y-81176904D01*
X134500952Y-81224523D01*
X134453333Y-81319761D01*
X134453333Y-81510238D01*
X134500952Y-81605476D01*
X134548571Y-81653095D01*
X134643809Y-81700714D01*
X137104523Y-81700714D02*
X137104523Y-82367380D01*
X136866428Y-81319761D02*
X136628333Y-82034047D01*
X137247380Y-82034047D01*
X137533095Y-81367380D02*
X138199761Y-81367380D01*
X137771190Y-82367380D01*
X138580714Y-82367380D02*
X138580714Y-81367380D01*
X138675952Y-81986428D02*
X138961666Y-82367380D01*
X138961666Y-81700714D02*
X138580714Y-82081666D01*
%TO.C,R7*%
X135072380Y-91606666D02*
X134596190Y-91940000D01*
X135072380Y-92178095D02*
X134072380Y-92178095D01*
X134072380Y-91797142D01*
X134120000Y-91701904D01*
X134167619Y-91654285D01*
X134262857Y-91606666D01*
X134405714Y-91606666D01*
X134500952Y-91654285D01*
X134548571Y-91701904D01*
X134596190Y-91797142D01*
X134596190Y-92178095D01*
X134072380Y-91273333D02*
X134072380Y-90606666D01*
X135072380Y-91035238D01*
X137199761Y-91892380D02*
X136628333Y-91892380D01*
X136914047Y-91892380D02*
X136914047Y-90892380D01*
X136818809Y-91035238D01*
X136723571Y-91130476D01*
X136628333Y-91178095D01*
X137818809Y-90892380D02*
X137914047Y-90892380D01*
X138009285Y-90940000D01*
X138056904Y-90987619D01*
X138104523Y-91082857D01*
X138152142Y-91273333D01*
X138152142Y-91511428D01*
X138104523Y-91701904D01*
X138056904Y-91797142D01*
X138009285Y-91844761D01*
X137914047Y-91892380D01*
X137818809Y-91892380D01*
X137723571Y-91844761D01*
X137675952Y-91797142D01*
X137628333Y-91701904D01*
X137580714Y-91511428D01*
X137580714Y-91273333D01*
X137628333Y-91082857D01*
X137675952Y-90987619D01*
X137723571Y-90940000D01*
X137818809Y-90892380D01*
X138580714Y-91892380D02*
X138580714Y-90892380D01*
X138675952Y-91511428D02*
X138961666Y-91892380D01*
X138961666Y-91225714D02*
X138580714Y-91606666D01*
%TO.C,R8*%
X135072380Y-88431666D02*
X134596190Y-88765000D01*
X135072380Y-89003095D02*
X134072380Y-89003095D01*
X134072380Y-88622142D01*
X134120000Y-88526904D01*
X134167619Y-88479285D01*
X134262857Y-88431666D01*
X134405714Y-88431666D01*
X134500952Y-88479285D01*
X134548571Y-88526904D01*
X134596190Y-88622142D01*
X134596190Y-89003095D01*
X134500952Y-87860238D02*
X134453333Y-87955476D01*
X134405714Y-88003095D01*
X134310476Y-88050714D01*
X134262857Y-88050714D01*
X134167619Y-88003095D01*
X134120000Y-87955476D01*
X134072380Y-87860238D01*
X134072380Y-87669761D01*
X134120000Y-87574523D01*
X134167619Y-87526904D01*
X134262857Y-87479285D01*
X134310476Y-87479285D01*
X134405714Y-87526904D01*
X134453333Y-87574523D01*
X134500952Y-87669761D01*
X134500952Y-87860238D01*
X134548571Y-87955476D01*
X134596190Y-88003095D01*
X134691428Y-88050714D01*
X134881904Y-88050714D01*
X134977142Y-88003095D01*
X135024761Y-87955476D01*
X135072380Y-87860238D01*
X135072380Y-87669761D01*
X135024761Y-87574523D01*
X134977142Y-87526904D01*
X134881904Y-87479285D01*
X134691428Y-87479285D01*
X134596190Y-87526904D01*
X134548571Y-87574523D01*
X134500952Y-87669761D01*
X137104523Y-88050714D02*
X137104523Y-88717380D01*
X136866428Y-87669761D02*
X136628333Y-88384047D01*
X137247380Y-88384047D01*
X137533095Y-87717380D02*
X138199761Y-87717380D01*
X137771190Y-88717380D01*
X138580714Y-88717380D02*
X138580714Y-87717380D01*
X138675952Y-88336428D02*
X138961666Y-88717380D01*
X138961666Y-88050714D02*
X138580714Y-88431666D01*
%TO.C,U1*%
X109093095Y-82637380D02*
X109093095Y-83446904D01*
X109140714Y-83542142D01*
X109188333Y-83589761D01*
X109283571Y-83637380D01*
X109474047Y-83637380D01*
X109569285Y-83589761D01*
X109616904Y-83542142D01*
X109664523Y-83446904D01*
X109664523Y-82637380D01*
X110664523Y-83637380D02*
X110093095Y-83637380D01*
X110378809Y-83637380D02*
X110378809Y-82637380D01*
X110283571Y-82780238D01*
X110188333Y-82875476D01*
X110093095Y-82923095D01*
X109640714Y-89503095D02*
X110307380Y-89503095D01*
X109259761Y-89741190D02*
X109974047Y-89979285D01*
X109974047Y-89360238D01*
X109307380Y-88788809D02*
X109307380Y-88693571D01*
X109355000Y-88598333D01*
X109402619Y-88550714D01*
X109497857Y-88503095D01*
X109688333Y-88455476D01*
X109926428Y-88455476D01*
X110116904Y-88503095D01*
X110212142Y-88550714D01*
X110259761Y-88598333D01*
X110307380Y-88693571D01*
X110307380Y-88788809D01*
X110259761Y-88884047D01*
X110212142Y-88931666D01*
X110116904Y-88979285D01*
X109926428Y-89026904D01*
X109688333Y-89026904D01*
X109497857Y-88979285D01*
X109402619Y-88931666D01*
X109355000Y-88884047D01*
X109307380Y-88788809D01*
X109307380Y-87598333D02*
X109307380Y-87788809D01*
X109355000Y-87884047D01*
X109402619Y-87931666D01*
X109545476Y-88026904D01*
X109735952Y-88074523D01*
X110116904Y-88074523D01*
X110212142Y-88026904D01*
X110259761Y-87979285D01*
X110307380Y-87884047D01*
X110307380Y-87693571D01*
X110259761Y-87598333D01*
X110212142Y-87550714D01*
X110116904Y-87503095D01*
X109878809Y-87503095D01*
X109783571Y-87550714D01*
X109735952Y-87598333D01*
X109688333Y-87693571D01*
X109688333Y-87884047D01*
X109735952Y-87979285D01*
X109783571Y-88026904D01*
X109878809Y-88074523D01*
X109307380Y-86645952D02*
X109307380Y-86836428D01*
X109355000Y-86931666D01*
X109402619Y-86979285D01*
X109545476Y-87074523D01*
X109735952Y-87122142D01*
X110116904Y-87122142D01*
X110212142Y-87074523D01*
X110259761Y-87026904D01*
X110307380Y-86931666D01*
X110307380Y-86741190D01*
X110259761Y-86645952D01*
X110212142Y-86598333D01*
X110116904Y-86550714D01*
X109878809Y-86550714D01*
X109783571Y-86598333D01*
X109735952Y-86645952D01*
X109688333Y-86741190D01*
X109688333Y-86931666D01*
X109735952Y-87026904D01*
X109783571Y-87074523D01*
X109878809Y-87122142D01*
%TO.C,C1*%
X109688333Y-77827142D02*
X109640714Y-77874761D01*
X109497857Y-77922380D01*
X109402619Y-77922380D01*
X109259761Y-77874761D01*
X109164523Y-77779523D01*
X109116904Y-77684285D01*
X109069285Y-77493809D01*
X109069285Y-77350952D01*
X109116904Y-77160476D01*
X109164523Y-77065238D01*
X109259761Y-76970000D01*
X109402619Y-76922380D01*
X109497857Y-76922380D01*
X109640714Y-76970000D01*
X109688333Y-77017619D01*
X110640714Y-77922380D02*
X110069285Y-77922380D01*
X110355000Y-77922380D02*
X110355000Y-76922380D01*
X110259761Y-77065238D01*
X110164523Y-77160476D01*
X110069285Y-77208095D01*
%TO.C,JP1*%
D10*
X143097333Y-101161904D02*
X143097333Y-101733333D01*
X143059238Y-101847619D01*
X142983047Y-101923809D01*
X142868761Y-101961904D01*
X142792571Y-101961904D01*
X143478285Y-101961904D02*
X143478285Y-101161904D01*
X143783047Y-101161904D01*
X143859238Y-101200000D01*
X143897333Y-101238095D01*
X143935428Y-101314285D01*
X143935428Y-101428571D01*
X143897333Y-101504761D01*
X143859238Y-101542857D01*
X143783047Y-101580952D01*
X143478285Y-101580952D01*
X144697333Y-101961904D02*
X144240190Y-101961904D01*
X144468761Y-101961904D02*
X144468761Y-101161904D01*
X144392571Y-101276190D01*
X144316380Y-101352380D01*
X144240190Y-101390476D01*
X142697333Y-104501904D02*
X142697333Y-103701904D01*
X143002095Y-103701904D01*
X143078285Y-103740000D01*
X143116380Y-103778095D01*
X143154476Y-103854285D01*
X143154476Y-103968571D01*
X143116380Y-104044761D01*
X143078285Y-104082857D01*
X143002095Y-104120952D01*
X142697333Y-104120952D01*
X143421142Y-103701904D02*
X143611619Y-104501904D01*
X143764000Y-103930476D01*
X143916380Y-104501904D01*
X144106857Y-103701904D01*
X144868761Y-104501904D02*
X144602095Y-104120952D01*
X144411619Y-104501904D02*
X144411619Y-103701904D01*
X144716380Y-103701904D01*
X144792571Y-103740000D01*
X144830666Y-103778095D01*
X144868761Y-103854285D01*
X144868761Y-103968571D01*
X144830666Y-104044761D01*
X144792571Y-104082857D01*
X144716380Y-104120952D01*
X144411619Y-104120952D01*
%TD*%
M02*
