%TF.GenerationSoftware,KiCad,Pcbnew,(5.1.8)-1*%
%TF.CreationDate,2021-01-20T22:30:23+01:00*%
%TF.ProjectId,D32 Joystick Adapter,44333220-4a6f-4797-9374-69636b204164,rev?*%
%TF.SameCoordinates,Original*%
%TF.FileFunction,Soldermask,Top*%
%TF.FilePolarity,Negative*%
%FSLAX46Y46*%
G04 Gerber Fmt 4.6, Leading zero omitted, Abs format (unit mm)*
G04 Created by KiCad (PCBNEW (5.1.8)-1) date 2021-01-20 22:30:23*
%MOMM*%
%LPD*%
G01*
G04 APERTURE LIST*
%ADD10O,1.600000X2.400000*%
%ADD11O,3.000000X5.000000*%
%ADD12R,1.600000X2.400000*%
%ADD13C,5.100000*%
%ADD14R,1.600000X1.600000*%
%ADD15C,1.600000*%
%ADD16C,4.000000*%
%ADD17O,1.600000X1.600000*%
%ADD18R,2.400000X1.600000*%
%ADD19O,2.400000X1.600000*%
G04 APERTURE END LIST*
D10*
%TO.C,J1*%
X122682000Y-86360000D03*
X118872000Y-83185000D03*
D11*
X126492000Y-74930000D03*
X118872000Y-74930000D03*
D10*
X118237000Y-88265000D03*
X122682000Y-91440000D03*
X127127000Y-88265000D03*
D12*
X126492000Y-83185000D03*
%TD*%
D13*
%TO.C,M1*%
X102235000Y-108585000D03*
%TD*%
D14*
%TO.C,J2*%
X117200000Y-102235000D03*
D15*
X119970000Y-102235000D03*
X122740000Y-102235000D03*
X125510000Y-102235000D03*
X128280000Y-102235000D03*
X118585000Y-105075000D03*
X121355000Y-105075000D03*
X124125000Y-105075000D03*
X126895000Y-105075000D03*
D16*
X110240000Y-103655000D03*
X135240000Y-103655000D03*
%TD*%
D13*
%TO.C,M2*%
X143510000Y-108585000D03*
%TD*%
%TO.C,M3*%
X143510000Y-75565000D03*
%TD*%
%TO.C,M4*%
X102235000Y-75565000D03*
%TD*%
D17*
%TO.C,R1*%
X139700000Y-97790000D03*
D15*
X129540000Y-97790000D03*
%TD*%
%TO.C,R2*%
X129540000Y-75565000D03*
D17*
X139700000Y-75565000D03*
%TD*%
D15*
%TO.C,R3*%
X130175000Y-78740000D03*
D17*
X140335000Y-78740000D03*
%TD*%
%TO.C,R4*%
X131445000Y-85090000D03*
D15*
X141605000Y-85090000D03*
%TD*%
D17*
%TO.C,R5*%
X140335000Y-94615000D03*
D15*
X130175000Y-94615000D03*
%TD*%
%TO.C,R6*%
X131445000Y-81915000D03*
D17*
X141605000Y-81915000D03*
%TD*%
D15*
%TO.C,R7*%
X131445000Y-91440000D03*
D17*
X141605000Y-91440000D03*
%TD*%
%TO.C,R8*%
X131445000Y-88265000D03*
D15*
X141605000Y-88265000D03*
%TD*%
D18*
%TO.C,U1*%
X106045000Y-80645000D03*
D19*
X113665000Y-95885000D03*
X106045000Y-83185000D03*
X113665000Y-93345000D03*
X106045000Y-85725000D03*
X113665000Y-90805000D03*
X106045000Y-88265000D03*
X113665000Y-88265000D03*
X106045000Y-90805000D03*
X113665000Y-85725000D03*
X106045000Y-93345000D03*
X113665000Y-83185000D03*
X106045000Y-95885000D03*
X113665000Y-80645000D03*
%TD*%
D15*
%TO.C,C1*%
X112395000Y-77470000D03*
X107395000Y-77470000D03*
%TD*%
M02*
