%TF.GenerationSoftware,KiCad,Pcbnew,(5.1.8)-1*%
%TF.CreationDate,2021-01-20T22:30:23+01:00*%
%TF.ProjectId,D32 Joystick Adapter,44333220-4a6f-4797-9374-69636b204164,rev?*%
%TF.SameCoordinates,Original*%
%TF.FileFunction,Copper,L1,Top*%
%TF.FilePolarity,Positive*%
%FSLAX46Y46*%
G04 Gerber Fmt 4.6, Leading zero omitted, Abs format (unit mm)*
G04 Created by KiCad (PCBNEW (5.1.8)-1) date 2021-01-20 22:30:23*
%MOMM*%
%LPD*%
G01*
G04 APERTURE LIST*
%TA.AperFunction,ComponentPad*%
%ADD10O,1.600000X2.400000*%
%TD*%
%TA.AperFunction,WasherPad*%
%ADD11O,3.000000X5.000000*%
%TD*%
%TA.AperFunction,ComponentPad*%
%ADD12R,1.600000X2.400000*%
%TD*%
%TA.AperFunction,ComponentPad*%
%ADD13C,3.500000*%
%TD*%
%TA.AperFunction,ComponentPad*%
%ADD14R,1.600000X1.600000*%
%TD*%
%TA.AperFunction,ComponentPad*%
%ADD15C,1.600000*%
%TD*%
%TA.AperFunction,ComponentPad*%
%ADD16C,4.000000*%
%TD*%
%TA.AperFunction,ComponentPad*%
%ADD17O,1.600000X1.600000*%
%TD*%
%TA.AperFunction,ComponentPad*%
%ADD18R,2.400000X1.600000*%
%TD*%
%TA.AperFunction,ComponentPad*%
%ADD19O,2.400000X1.600000*%
%TD*%
%TA.AperFunction,ViaPad*%
%ADD20C,0.800000*%
%TD*%
%TA.AperFunction,Conductor*%
%ADD21C,0.250000*%
%TD*%
%TA.AperFunction,Conductor*%
%ADD22C,0.381000*%
%TD*%
G04 APERTURE END LIST*
D10*
%TO.P,J1,6*%
%TO.N,FIRE2*%
X122682000Y-86360000D03*
%TO.P,J1,5*%
%TO.N,VCC*%
X118872000Y-83185000D03*
D11*
%TO.P,J1,*%
%TO.N,*%
X126492000Y-74930000D03*
X118872000Y-74930000D03*
D10*
%TO.P,J1,4*%
%TO.N,FIRE1*%
X118237000Y-88265000D03*
%TO.P,J1,3*%
%TO.N,GND*%
X122682000Y-91440000D03*
%TO.P,J1,2*%
%TO.N,POT_Y*%
X127127000Y-88265000D03*
D12*
%TO.P,J1,1*%
%TO.N,POT_X*%
X126492000Y-83185000D03*
%TD*%
D13*
%TO.P,M1,1*%
%TO.N,Net-(M1-Pad1)*%
X102235000Y-108585000D03*
%TD*%
D14*
%TO.P,J2,1*%
%TO.N,UP*%
X117200000Y-102235000D03*
D15*
%TO.P,J2,2*%
%TO.N,DOWN*%
X119970000Y-102235000D03*
%TO.P,J2,3*%
%TO.N,LEFT*%
X122740000Y-102235000D03*
%TO.P,J2,4*%
%TO.N,RIGHT*%
X125510000Y-102235000D03*
%TO.P,J2,5*%
%TO.N,Net-(J2-Pad5)*%
X128280000Y-102235000D03*
%TO.P,J2,6*%
%TO.N,FIRE1*%
X118585000Y-105075000D03*
%TO.P,J2,7*%
%TO.N,VCC*%
X121355000Y-105075000D03*
%TO.P,J2,8*%
%TO.N,GND*%
X124125000Y-105075000D03*
%TO.P,J2,9*%
%TO.N,FIRE2*%
X126895000Y-105075000D03*
D16*
%TO.P,J2,0*%
%TO.N,N/C*%
X110240000Y-103655000D03*
X135240000Y-103655000D03*
%TD*%
D13*
%TO.P,M2,1*%
%TO.N,Net-(M2-Pad1)*%
X143510000Y-108585000D03*
%TD*%
%TO.P,M3,1*%
%TO.N,Net-(M3-Pad1)*%
X143510000Y-75565000D03*
%TD*%
%TO.P,M4,1*%
%TO.N,Net-(M4-Pad1)*%
X102235000Y-75565000D03*
%TD*%
D17*
%TO.P,R1,2*%
%TO.N,VCC*%
X139700000Y-97790000D03*
D15*
%TO.P,R1,1*%
%TO.N,RIGHT*%
X129540000Y-97790000D03*
%TD*%
%TO.P,R2,1*%
%TO.N,Net-(R2-Pad1)*%
X129540000Y-75565000D03*
D17*
%TO.P,R2,2*%
%TO.N,VCC*%
X139700000Y-75565000D03*
%TD*%
D15*
%TO.P,R3,1*%
%TO.N,LEFT*%
X130175000Y-78740000D03*
D17*
%TO.P,R3,2*%
%TO.N,VCC*%
X140335000Y-78740000D03*
%TD*%
%TO.P,R4,2*%
%TO.N,Net-(R4-Pad2)*%
X131445000Y-85090000D03*
D15*
%TO.P,R4,1*%
%TO.N,GND*%
X141605000Y-85090000D03*
%TD*%
D17*
%TO.P,R5,2*%
%TO.N,VCC*%
X140335000Y-94615000D03*
D15*
%TO.P,R5,1*%
%TO.N,DOWN*%
X130175000Y-94615000D03*
%TD*%
%TO.P,R6,1*%
%TO.N,Net-(R6-Pad1)*%
X131445000Y-81915000D03*
D17*
%TO.P,R6,2*%
%TO.N,VCC*%
X141605000Y-81915000D03*
%TD*%
D15*
%TO.P,R7,1*%
%TO.N,UP*%
X131445000Y-91440000D03*
D17*
%TO.P,R7,2*%
%TO.N,VCC*%
X141605000Y-91440000D03*
%TD*%
%TO.P,R8,2*%
%TO.N,Net-(R8-Pad2)*%
X131445000Y-88265000D03*
D15*
%TO.P,R8,1*%
%TO.N,GND*%
X141605000Y-88265000D03*
%TD*%
D18*
%TO.P,U1,1*%
%TO.N,Net-(R2-Pad1)*%
X106045000Y-80645000D03*
D19*
%TO.P,U1,8*%
%TO.N,Net-(R8-Pad2)*%
X113665000Y-95885000D03*
%TO.P,U1,2*%
%TO.N,POT_X*%
X106045000Y-83185000D03*
%TO.P,U1,9*%
%TO.N,POT_Y*%
X113665000Y-93345000D03*
%TO.P,U1,3*%
%TO.N,POT_X*%
X106045000Y-85725000D03*
%TO.P,U1,10*%
%TO.N,POT_Y*%
X113665000Y-90805000D03*
%TO.P,U1,4*%
%TO.N,Net-(R4-Pad2)*%
X106045000Y-88265000D03*
%TO.P,U1,11*%
%TO.N,Net-(R6-Pad1)*%
X113665000Y-88265000D03*
%TO.P,U1,5*%
%TO.N,RIGHT*%
X106045000Y-90805000D03*
%TO.P,U1,12*%
%TO.N,UP*%
X113665000Y-85725000D03*
%TO.P,U1,6*%
%TO.N,DOWN*%
X106045000Y-93345000D03*
%TO.P,U1,13*%
%TO.N,LEFT*%
X113665000Y-83185000D03*
%TO.P,U1,7*%
%TO.N,GND*%
X106045000Y-95885000D03*
%TO.P,U1,14*%
%TO.N,VCC*%
X113665000Y-80645000D03*
%TD*%
D15*
%TO.P,C1,1*%
%TO.N,VCC*%
X112395000Y-77470000D03*
%TO.P,C1,2*%
%TO.N,GND*%
X107395000Y-77470000D03*
%TD*%
D20*
%TO.N,DOWN*%
X119380000Y-108040000D03*
%TO.N,LEFT*%
X120650000Y-82550000D03*
%TO.N,FIRE1*%
X118585000Y-92960000D03*
%TO.N,VCC*%
X121285000Y-108040000D03*
%TO.N,FIRE2*%
X120015000Y-87630000D03*
X125730000Y-96430000D03*
X127000000Y-98515000D03*
X120015000Y-93345000D03*
%TO.N,Net-(R4-Pad2)*%
X110400000Y-89535000D03*
X116205000Y-88265000D03*
%TD*%
D21*
%TO.N,UP*%
X113665000Y-85725000D02*
X112395000Y-85725000D01*
X112395000Y-85725000D02*
X111760000Y-86360000D01*
X111760000Y-86360000D02*
X111760000Y-97155000D01*
X111760000Y-97155000D02*
X112395000Y-97790000D01*
X115570000Y-97790000D02*
X116205000Y-98425000D01*
X112395000Y-97790000D02*
X115570000Y-97790000D01*
X116205000Y-98425000D02*
X116205000Y-101600000D01*
X116840000Y-102235000D02*
X116205000Y-101600000D01*
X117200000Y-102235000D02*
X116840000Y-102235000D01*
X116205000Y-92710000D02*
X116205000Y-98425000D01*
X116840000Y-92075000D02*
X116205000Y-92710000D01*
X119380000Y-92075000D02*
X116840000Y-92075000D01*
X123825000Y-89535000D02*
X121920000Y-89535000D01*
X125730000Y-91440000D02*
X123825000Y-89535000D01*
X121920000Y-89535000D02*
X119380000Y-92075000D01*
X131445000Y-91440000D02*
X125730000Y-91440000D01*
%TO.N,DOWN*%
X106045000Y-93345000D02*
X109220000Y-93345000D01*
X109220000Y-93345000D02*
X109855000Y-93980000D01*
X109855000Y-93980000D02*
X109855000Y-99060000D01*
X109855000Y-99060000D02*
X110490000Y-99695000D01*
X110490000Y-99695000D02*
X113665000Y-99695000D01*
X113665000Y-99695000D02*
X114300000Y-100330000D01*
X114300000Y-100330000D02*
X114300000Y-107315000D01*
X115025000Y-108040000D02*
X119380000Y-108040000D01*
X114300000Y-107315000D02*
X115025000Y-108040000D01*
X119970000Y-97835000D02*
X120650000Y-97155000D01*
X119970000Y-97835000D02*
X119970000Y-102235000D01*
X120650000Y-97155000D02*
X127635000Y-97155000D01*
X127635000Y-97155000D02*
X130175000Y-94615000D01*
%TO.N,LEFT*%
X121920000Y-106680000D02*
X122740000Y-105860000D01*
X115570000Y-106045000D02*
X116205000Y-106680000D01*
X122740000Y-105860000D02*
X122740000Y-102235000D01*
X116205000Y-106680000D02*
X121920000Y-106680000D01*
X115570000Y-99060000D02*
X115570000Y-106045000D01*
X114935000Y-98425000D02*
X115570000Y-99060000D01*
X111125000Y-97790000D02*
X111760000Y-98425000D01*
X111125000Y-83820000D02*
X111125000Y-97790000D01*
X111760000Y-83185000D02*
X111125000Y-83820000D01*
X111760000Y-98425000D02*
X114935000Y-98425000D01*
X113665000Y-83185000D02*
X111760000Y-83185000D01*
X130175000Y-78740000D02*
X128270000Y-80645000D01*
X122555000Y-80645000D02*
X120650000Y-82550000D01*
X128270000Y-80645000D02*
X122555000Y-80645000D01*
%TO.N,RIGHT*%
X124587000Y-107315000D02*
X125510000Y-106392000D01*
X125510000Y-106392000D02*
X125510000Y-102235000D01*
X115570000Y-107315000D02*
X124587000Y-107315000D01*
X114935000Y-106680000D02*
X115570000Y-107315000D01*
X114935000Y-99695000D02*
X114935000Y-106680000D01*
X111125000Y-99060000D02*
X114300000Y-99060000D01*
X110490000Y-98425000D02*
X111125000Y-99060000D01*
X114300000Y-99060000D02*
X114935000Y-99695000D01*
X110490000Y-91440000D02*
X110490000Y-98425000D01*
X109855000Y-90805000D02*
X110490000Y-91440000D01*
X106045000Y-90805000D02*
X109855000Y-90805000D01*
X129540000Y-97790000D02*
X126365000Y-97790000D01*
X125510000Y-98645000D02*
X125510000Y-102235000D01*
X126365000Y-97790000D02*
X125510000Y-98645000D01*
%TO.N,FIRE1*%
X118585000Y-105075000D02*
X118585000Y-92960000D01*
D22*
%TO.N,VCC*%
X113665000Y-80645000D02*
X118110000Y-80645000D01*
X118872000Y-81407000D02*
X118872000Y-83185000D01*
X118110000Y-80645000D02*
X118872000Y-81407000D01*
X139700000Y-78105000D02*
X140335000Y-78740000D01*
X139700000Y-75565000D02*
X139700000Y-78105000D01*
X140335000Y-78740000D02*
X140335000Y-80645000D01*
X140335000Y-97155000D02*
X139700000Y-97790000D01*
X140335000Y-94615000D02*
X140335000Y-97155000D01*
X141605000Y-81915000D02*
X140335000Y-81915000D01*
X140335000Y-80645000D02*
X140335000Y-81915000D01*
X141605000Y-91440000D02*
X140335000Y-91440000D01*
X140335000Y-91440000D02*
X140335000Y-94615000D01*
X140335000Y-81915000D02*
X140335000Y-91440000D01*
X139700000Y-97790000D02*
X139700000Y-107315000D01*
X138975000Y-108040000D02*
X121285000Y-108040000D01*
X139700000Y-107315000D02*
X138975000Y-108040000D01*
X110490000Y-81915000D02*
X111760000Y-80645000D01*
X111760000Y-80645000D02*
X113665000Y-80645000D01*
X104140000Y-81915000D02*
X110490000Y-81915000D01*
X103505000Y-82550000D02*
X104140000Y-81915000D01*
X103505000Y-104140000D02*
X103505000Y-82550000D01*
X108195501Y-108830501D02*
X103505000Y-104140000D01*
X120494499Y-108830501D02*
X108195501Y-108830501D01*
X121285000Y-108040000D02*
X120494499Y-108830501D01*
X139700000Y-75565000D02*
X132080000Y-75565000D01*
X132080000Y-75565000D02*
X130556000Y-77089000D01*
X129730500Y-77089000D02*
X127444500Y-79375000D01*
X130556000Y-77089000D02*
X129730500Y-77089000D01*
X127444500Y-79375000D02*
X119380000Y-79375000D01*
X119380000Y-79375000D02*
X118872000Y-79883000D01*
X118872000Y-79883000D02*
X118872000Y-81407000D01*
D21*
%TO.N,FIRE2*%
X122682000Y-86360000D02*
X121285000Y-86360000D01*
X121285000Y-86360000D02*
X120015000Y-87630000D01*
X127000000Y-104970000D02*
X126895000Y-105075000D01*
X127000000Y-98515000D02*
X127000000Y-104970000D01*
X120015000Y-93345000D02*
X120015000Y-95885000D01*
X120015000Y-95885000D02*
X120560000Y-96430000D01*
X120560000Y-96430000D02*
X125730000Y-96430000D01*
%TO.N,Net-(R2-Pad1)*%
X129540000Y-76200000D02*
X129540000Y-75565000D01*
X118745000Y-78740000D02*
X127000000Y-78740000D01*
X118110000Y-79375000D02*
X118745000Y-78740000D01*
X111760000Y-79375000D02*
X118110000Y-79375000D01*
X127000000Y-78740000D02*
X129540000Y-76200000D01*
X110490000Y-80645000D02*
X111760000Y-79375000D01*
X106045000Y-80645000D02*
X110490000Y-80645000D01*
%TO.N,Net-(R4-Pad2)*%
X109130000Y-88265000D02*
X110400000Y-89535000D01*
X106045000Y-88265000D02*
X109130000Y-88265000D01*
X123823590Y-84455000D02*
X125093590Y-85725000D01*
X121285000Y-84455000D02*
X123823590Y-84455000D01*
X119380000Y-86360000D02*
X121285000Y-84455000D01*
X116840000Y-86360000D02*
X119380000Y-86360000D01*
X116205000Y-86995000D02*
X116840000Y-86360000D01*
X116205000Y-88265000D02*
X116205000Y-86995000D01*
X131445000Y-85090000D02*
X128905000Y-85090000D01*
X128905000Y-85090000D02*
X128270000Y-85725000D01*
X125093590Y-85725000D02*
X128270000Y-85725000D01*
%TO.N,Net-(R6-Pad1)*%
X130810000Y-81915000D02*
X131445000Y-81915000D01*
X125095000Y-85090000D02*
X127635000Y-85090000D01*
X123825000Y-83820000D02*
X125095000Y-85090000D01*
X121283590Y-83820000D02*
X123825000Y-83820000D01*
X116205000Y-85725000D02*
X119378590Y-85725000D01*
X127635000Y-85090000D02*
X130810000Y-81915000D01*
X115570000Y-86360000D02*
X116205000Y-85725000D01*
X115570000Y-87810000D02*
X115570000Y-86360000D01*
X115115000Y-88265000D02*
X115570000Y-87810000D01*
X119378590Y-85725000D02*
X121283590Y-83820000D01*
X113665000Y-88265000D02*
X115115000Y-88265000D01*
%TO.N,Net-(R8-Pad2)*%
X130175000Y-88265000D02*
X131445000Y-88265000D01*
X128270000Y-90170000D02*
X130175000Y-88265000D01*
X125730000Y-90170000D02*
X128270000Y-90170000D01*
X121285000Y-88900000D02*
X124460000Y-88900000D01*
X118745000Y-91440000D02*
X121285000Y-88900000D01*
X116205000Y-91440000D02*
X118745000Y-91440000D01*
X124460000Y-88900000D02*
X125730000Y-90170000D01*
X115570000Y-92075000D02*
X116205000Y-91440000D01*
X115570000Y-95250000D02*
X115570000Y-92075000D01*
X114935000Y-95885000D02*
X115570000Y-95250000D01*
X113665000Y-95885000D02*
X114935000Y-95885000D01*
%TO.N,POT_X*%
X106045000Y-83185000D02*
X106045000Y-85725000D01*
X115570000Y-82550000D02*
X114935000Y-81915000D01*
X115570000Y-84455000D02*
X115570000Y-82550000D01*
X116205000Y-85090000D02*
X115570000Y-84455000D01*
X119377179Y-85090000D02*
X116205000Y-85090000D01*
X121282179Y-83185000D02*
X119377179Y-85090000D01*
X126492000Y-83185000D02*
X121282179Y-83185000D01*
X110490000Y-83185000D02*
X111760000Y-81915000D01*
X106045000Y-83185000D02*
X110490000Y-83185000D01*
X114935000Y-81915000D02*
X111760000Y-81915000D01*
%TO.N,POT_Y*%
X113665000Y-93345000D02*
X113665000Y-90805000D01*
X118110000Y-90805000D02*
X113665000Y-90805000D01*
X120650000Y-88265000D02*
X118110000Y-90805000D01*
X127127000Y-88265000D02*
X120650000Y-88265000D01*
%TD*%
M02*
