M48
INCH,TZ
T1C0.0157
T2C0.0315
T3C0.0394
T4C0.1200
T5C0.1260
%
G90
G05
T1
X43465Y-35250
X45750Y-34750
X46687Y-36598
X47000Y-42535
X47250Y-34500
X47250Y-36750
X47500Y-32500
X47750Y-42535
X49500Y-37965
X50000Y-38785
T2
X51250Y-37250
X55250Y-37250
X51750Y-33500
X55750Y-33500
X51250Y-31000
X55250Y-31000
X51000Y-29750
X55000Y-29750
X51000Y-38500
X55000Y-38500
X41750Y-31750
X41750Y-32750
X41750Y-33750
X41750Y-34750
X41750Y-35750
X41750Y-36750
X41750Y-37750
X44750Y-31750
X44750Y-32750
X44750Y-33750
X44750Y-34750
X44750Y-35750
X44750Y-36750
X44750Y-37750
X51750Y-36000
X55750Y-36000
X51750Y-34750
X55750Y-34750
X42281Y-30500
X44250Y-30500
X51750Y-32250
X55750Y-32250
T3
X46550Y-34750
X46800Y-32750
X48300Y-34000
X48300Y-36000
X49800Y-32750
X50050Y-34750
X46142Y-40250
X46687Y-41368
X47232Y-40250
X47778Y-41368
X48323Y-40250
X48868Y-41368
X49413Y-40250
X49959Y-41368
X50504Y-40250
T4
X40250Y-29750
X40250Y-42750
X56500Y-29750
X56500Y-42750
T5
X43402Y-40809
X53244Y-40809
T0
M30
