%TF.GenerationSoftware,KiCad,Pcbnew,(5.1.8)-1*%
%TF.CreationDate,2021-01-20T22:30:23+01:00*%
%TF.ProjectId,D32 Joystick Adapter,44333220-4a6f-4797-9374-69636b204164,rev?*%
%TF.SameCoordinates,Original*%
%TF.FileFunction,Legend,Bot*%
%TF.FilePolarity,Positive*%
%FSLAX46Y46*%
G04 Gerber Fmt 4.6, Leading zero omitted, Abs format (unit mm)*
G04 Created by KiCad (PCBNEW (5.1.8)-1) date 2021-01-20 22:30:23*
%MOMM*%
%LPD*%
G01*
G04 APERTURE LIST*
%ADD10C,0.100000*%
%ADD11C,0.150000*%
%ADD12C,0.120000*%
G04 APERTURE END LIST*
D10*
X139342952Y-82021904D02*
X139342952Y-82593333D01*
X139381047Y-82707619D01*
X139457238Y-82783809D01*
X139571523Y-82821904D01*
X139647714Y-82821904D01*
X138542952Y-82821904D02*
X139000095Y-82821904D01*
X138771523Y-82821904D02*
X138771523Y-82021904D01*
X138847714Y-82136190D01*
X138923904Y-82212380D01*
X139000095Y-82250476D01*
X137590571Y-82821904D02*
X137590571Y-82021904D01*
X137285809Y-82021904D01*
X137209619Y-82060000D01*
X137171523Y-82098095D01*
X137133428Y-82174285D01*
X137133428Y-82288571D01*
X137171523Y-82364761D01*
X137209619Y-82402857D01*
X137285809Y-82440952D01*
X137590571Y-82440952D01*
X136790571Y-82821904D02*
X136790571Y-82021904D01*
X136409619Y-82821904D02*
X136409619Y-82021904D01*
X135952476Y-82821904D01*
X135952476Y-82021904D01*
X135419142Y-82021904D02*
X135266761Y-82021904D01*
X135190571Y-82060000D01*
X135114380Y-82136190D01*
X135076285Y-82288571D01*
X135076285Y-82555238D01*
X135114380Y-82707619D01*
X135190571Y-82783809D01*
X135266761Y-82821904D01*
X135419142Y-82821904D01*
X135495333Y-82783809D01*
X135571523Y-82707619D01*
X135609619Y-82555238D01*
X135609619Y-82288571D01*
X135571523Y-82136190D01*
X135495333Y-82060000D01*
X135419142Y-82021904D01*
X134733428Y-82021904D02*
X134733428Y-82669523D01*
X134695333Y-82745714D01*
X134657238Y-82783809D01*
X134581047Y-82821904D01*
X134428666Y-82821904D01*
X134352476Y-82783809D01*
X134314380Y-82745714D01*
X134276285Y-82669523D01*
X134276285Y-82021904D01*
X134009619Y-82021904D02*
X133552476Y-82021904D01*
X133781047Y-82821904D02*
X133781047Y-82021904D01*
X133285809Y-82745714D02*
X133247714Y-82783809D01*
X133285809Y-82821904D01*
X133323904Y-82783809D01*
X133285809Y-82745714D01*
X133285809Y-82821904D01*
X133285809Y-82326666D02*
X133247714Y-82364761D01*
X133285809Y-82402857D01*
X133323904Y-82364761D01*
X133285809Y-82326666D01*
X133285809Y-82402857D01*
X139152476Y-84121904D02*
X139609619Y-84121904D01*
X139381047Y-84121904D02*
X139381047Y-83321904D01*
X139457238Y-83436190D01*
X139533428Y-83512380D01*
X139609619Y-83550476D01*
X138200095Y-84121904D02*
X138200095Y-83321904D01*
X137895333Y-83321904D01*
X137819142Y-83360000D01*
X137781047Y-83398095D01*
X137742952Y-83474285D01*
X137742952Y-83588571D01*
X137781047Y-83664761D01*
X137819142Y-83702857D01*
X137895333Y-83740952D01*
X138200095Y-83740952D01*
X137247714Y-83321904D02*
X137095333Y-83321904D01*
X137019142Y-83360000D01*
X136942952Y-83436190D01*
X136904857Y-83588571D01*
X136904857Y-83855238D01*
X136942952Y-84007619D01*
X137019142Y-84083809D01*
X137095333Y-84121904D01*
X137247714Y-84121904D01*
X137323904Y-84083809D01*
X137400095Y-84007619D01*
X137438190Y-83855238D01*
X137438190Y-83588571D01*
X137400095Y-83436190D01*
X137323904Y-83360000D01*
X137247714Y-83321904D01*
X136676285Y-83321904D02*
X136219142Y-83321904D01*
X136447714Y-84121904D02*
X136447714Y-83321904D01*
X136142952Y-84198095D02*
X135533428Y-84198095D01*
X135419142Y-83321904D02*
X134885809Y-84121904D01*
X134885809Y-83321904D02*
X135419142Y-84121904D01*
X139609619Y-84698095D02*
X139571523Y-84660000D01*
X139495333Y-84621904D01*
X139304857Y-84621904D01*
X139228666Y-84660000D01*
X139190571Y-84698095D01*
X139152476Y-84774285D01*
X139152476Y-84850476D01*
X139190571Y-84964761D01*
X139647714Y-85421904D01*
X139152476Y-85421904D01*
X138200095Y-85421904D02*
X138200095Y-84621904D01*
X137895333Y-84621904D01*
X137819142Y-84660000D01*
X137781047Y-84698095D01*
X137742952Y-84774285D01*
X137742952Y-84888571D01*
X137781047Y-84964761D01*
X137819142Y-85002857D01*
X137895333Y-85040952D01*
X138200095Y-85040952D01*
X137247714Y-84621904D02*
X137095333Y-84621904D01*
X137019142Y-84660000D01*
X136942952Y-84736190D01*
X136904857Y-84888571D01*
X136904857Y-85155238D01*
X136942952Y-85307619D01*
X137019142Y-85383809D01*
X137095333Y-85421904D01*
X137247714Y-85421904D01*
X137323904Y-85383809D01*
X137400095Y-85307619D01*
X137438190Y-85155238D01*
X137438190Y-84888571D01*
X137400095Y-84736190D01*
X137323904Y-84660000D01*
X137247714Y-84621904D01*
X136676285Y-84621904D02*
X136219142Y-84621904D01*
X136447714Y-85421904D02*
X136447714Y-84621904D01*
X136142952Y-85498095D02*
X135533428Y-85498095D01*
X135190571Y-85040952D02*
X135190571Y-85421904D01*
X135457238Y-84621904D02*
X135190571Y-85040952D01*
X134923904Y-84621904D01*
X139647714Y-85921904D02*
X139152476Y-85921904D01*
X139419142Y-86226666D01*
X139304857Y-86226666D01*
X139228666Y-86264761D01*
X139190571Y-86302857D01*
X139152476Y-86379047D01*
X139152476Y-86569523D01*
X139190571Y-86645714D01*
X139228666Y-86683809D01*
X139304857Y-86721904D01*
X139533428Y-86721904D01*
X139609619Y-86683809D01*
X139647714Y-86645714D01*
X137781047Y-85960000D02*
X137857238Y-85921904D01*
X137971523Y-85921904D01*
X138085809Y-85960000D01*
X138162000Y-86036190D01*
X138200095Y-86112380D01*
X138238190Y-86264761D01*
X138238190Y-86379047D01*
X138200095Y-86531428D01*
X138162000Y-86607619D01*
X138085809Y-86683809D01*
X137971523Y-86721904D01*
X137895333Y-86721904D01*
X137781047Y-86683809D01*
X137742952Y-86645714D01*
X137742952Y-86379047D01*
X137895333Y-86379047D01*
X137400095Y-86721904D02*
X137400095Y-85921904D01*
X136942952Y-86721904D01*
X136942952Y-85921904D01*
X136562000Y-86721904D02*
X136562000Y-85921904D01*
X136371523Y-85921904D01*
X136257238Y-85960000D01*
X136181047Y-86036190D01*
X136142952Y-86112380D01*
X136104857Y-86264761D01*
X136104857Y-86379047D01*
X136142952Y-86531428D01*
X136181047Y-86607619D01*
X136257238Y-86683809D01*
X136371523Y-86721904D01*
X136562000Y-86721904D01*
X139228666Y-87488571D02*
X139228666Y-88021904D01*
X139419142Y-87183809D02*
X139609619Y-87755238D01*
X139114380Y-87755238D01*
X137628666Y-87183809D02*
X138314380Y-88212380D01*
X137095333Y-87602857D02*
X137362000Y-87602857D01*
X137362000Y-88021904D02*
X137362000Y-87221904D01*
X136981047Y-87221904D01*
X136676285Y-88021904D02*
X136676285Y-87221904D01*
X135838190Y-88021904D02*
X136104857Y-87640952D01*
X136295333Y-88021904D02*
X136295333Y-87221904D01*
X135990571Y-87221904D01*
X135914380Y-87260000D01*
X135876285Y-87298095D01*
X135838190Y-87374285D01*
X135838190Y-87488571D01*
X135876285Y-87564761D01*
X135914380Y-87602857D01*
X135990571Y-87640952D01*
X136295333Y-87640952D01*
X135495333Y-87602857D02*
X135228666Y-87602857D01*
X135114380Y-88021904D02*
X135495333Y-88021904D01*
X135495333Y-87221904D01*
X135114380Y-87221904D01*
X134352476Y-88021904D02*
X134809619Y-88021904D01*
X134581047Y-88021904D02*
X134581047Y-87221904D01*
X134657238Y-87336190D01*
X134733428Y-87412380D01*
X134809619Y-87450476D01*
X139190571Y-88521904D02*
X139571523Y-88521904D01*
X139609619Y-88902857D01*
X139571523Y-88864761D01*
X139495333Y-88826666D01*
X139304857Y-88826666D01*
X139228666Y-88864761D01*
X139190571Y-88902857D01*
X139152476Y-88979047D01*
X139152476Y-89169523D01*
X139190571Y-89245714D01*
X139228666Y-89283809D01*
X139304857Y-89321904D01*
X139495333Y-89321904D01*
X139571523Y-89283809D01*
X139609619Y-89245714D01*
X138314380Y-88521904D02*
X138047714Y-89321904D01*
X137781047Y-88521904D01*
X137057238Y-89245714D02*
X137095333Y-89283809D01*
X137209619Y-89321904D01*
X137285809Y-89321904D01*
X137400095Y-89283809D01*
X137476285Y-89207619D01*
X137514380Y-89131428D01*
X137552476Y-88979047D01*
X137552476Y-88864761D01*
X137514380Y-88712380D01*
X137476285Y-88636190D01*
X137400095Y-88560000D01*
X137285809Y-88521904D01*
X137209619Y-88521904D01*
X137095333Y-88560000D01*
X137057238Y-88598095D01*
X136257238Y-89245714D02*
X136295333Y-89283809D01*
X136409619Y-89321904D01*
X136485809Y-89321904D01*
X136600095Y-89283809D01*
X136676285Y-89207619D01*
X136714380Y-89131428D01*
X136752476Y-88979047D01*
X136752476Y-88864761D01*
X136714380Y-88712380D01*
X136676285Y-88636190D01*
X136600095Y-88560000D01*
X136485809Y-88521904D01*
X136409619Y-88521904D01*
X136295333Y-88560000D01*
X136257238Y-88598095D01*
X139228666Y-89821904D02*
X139381047Y-89821904D01*
X139457238Y-89860000D01*
X139495333Y-89898095D01*
X139571523Y-90012380D01*
X139609619Y-90164761D01*
X139609619Y-90469523D01*
X139571523Y-90545714D01*
X139533428Y-90583809D01*
X139457238Y-90621904D01*
X139304857Y-90621904D01*
X139228666Y-90583809D01*
X139190571Y-90545714D01*
X139152476Y-90469523D01*
X139152476Y-90279047D01*
X139190571Y-90202857D01*
X139228666Y-90164761D01*
X139304857Y-90126666D01*
X139457238Y-90126666D01*
X139533428Y-90164761D01*
X139571523Y-90202857D01*
X139609619Y-90279047D01*
X137628666Y-89783809D02*
X138314380Y-90812380D01*
X137095333Y-90202857D02*
X137362000Y-90202857D01*
X137362000Y-90621904D02*
X137362000Y-89821904D01*
X136981047Y-89821904D01*
X136676285Y-90621904D02*
X136676285Y-89821904D01*
X135838190Y-90621904D02*
X136104857Y-90240952D01*
X136295333Y-90621904D02*
X136295333Y-89821904D01*
X135990571Y-89821904D01*
X135914380Y-89860000D01*
X135876285Y-89898095D01*
X135838190Y-89974285D01*
X135838190Y-90088571D01*
X135876285Y-90164761D01*
X135914380Y-90202857D01*
X135990571Y-90240952D01*
X136295333Y-90240952D01*
X135495333Y-90202857D02*
X135228666Y-90202857D01*
X135114380Y-90621904D02*
X135495333Y-90621904D01*
X135495333Y-89821904D01*
X135114380Y-89821904D01*
X134809619Y-89898095D02*
X134771523Y-89860000D01*
X134695333Y-89821904D01*
X134504857Y-89821904D01*
X134428666Y-89860000D01*
X134390571Y-89898095D01*
X134352476Y-89974285D01*
X134352476Y-90050476D01*
X134390571Y-90164761D01*
X134847714Y-90621904D01*
X134352476Y-90621904D01*
X128498571Y-86506095D02*
X128460476Y-86468000D01*
X128384285Y-86429904D01*
X128193809Y-86429904D01*
X128117619Y-86468000D01*
X128079523Y-86506095D01*
X128041428Y-86582285D01*
X128041428Y-86658476D01*
X128079523Y-86772761D01*
X128536666Y-87229904D01*
X128041428Y-87229904D01*
X122529619Y-84016904D02*
X122682000Y-84016904D01*
X122758190Y-84055000D01*
X122796285Y-84093095D01*
X122872476Y-84207380D01*
X122910571Y-84359761D01*
X122910571Y-84664523D01*
X122872476Y-84740714D01*
X122834380Y-84778809D01*
X122758190Y-84816904D01*
X122605809Y-84816904D01*
X122529619Y-84778809D01*
X122491523Y-84740714D01*
X122453428Y-84664523D01*
X122453428Y-84474047D01*
X122491523Y-84397857D01*
X122529619Y-84359761D01*
X122605809Y-84321666D01*
X122758190Y-84321666D01*
X122834380Y-84359761D01*
X122872476Y-84397857D01*
X122910571Y-84474047D01*
X122948666Y-89096904D02*
X122453428Y-89096904D01*
X122720095Y-89401666D01*
X122605809Y-89401666D01*
X122529619Y-89439761D01*
X122491523Y-89477857D01*
X122453428Y-89554047D01*
X122453428Y-89744523D01*
X122491523Y-89820714D01*
X122529619Y-89858809D01*
X122605809Y-89896904D01*
X122834380Y-89896904D01*
X122910571Y-89858809D01*
X122948666Y-89820714D01*
X119824523Y-81349904D02*
X120205476Y-81349904D01*
X120243571Y-81730857D01*
X120205476Y-81692761D01*
X120129285Y-81654666D01*
X119938809Y-81654666D01*
X119862619Y-81692761D01*
X119824523Y-81730857D01*
X119786428Y-81807047D01*
X119786428Y-81997523D01*
X119824523Y-82073714D01*
X119862619Y-82111809D01*
X119938809Y-82149904D01*
X120129285Y-82149904D01*
X120205476Y-82111809D01*
X120243571Y-82073714D01*
X124866428Y-82022904D02*
X125323571Y-82022904D01*
X125095000Y-82022904D02*
X125095000Y-81222904D01*
X125171190Y-81337190D01*
X125247380Y-81413380D01*
X125323571Y-81451476D01*
X116941619Y-86696571D02*
X116941619Y-87229904D01*
X117132095Y-86391809D02*
X117322571Y-86963238D01*
X116827333Y-86963238D01*
D11*
X127856619Y-94813333D02*
X127904238Y-94765714D01*
X127999476Y-94622857D01*
X128047095Y-94527619D01*
X128094714Y-94384761D01*
X128142333Y-94146666D01*
X128142333Y-93956190D01*
X128094714Y-93718095D01*
X128047095Y-93575238D01*
X127999476Y-93480000D01*
X127904238Y-93337142D01*
X127856619Y-93289523D01*
X127618523Y-93765714D02*
X127237571Y-93765714D01*
X127475666Y-94432380D02*
X127475666Y-93575238D01*
X127428047Y-93480000D01*
X127332809Y-93432380D01*
X127237571Y-93432380D01*
X126904238Y-94432380D02*
X126904238Y-93765714D01*
X126904238Y-93956190D02*
X126856619Y-93860952D01*
X126809000Y-93813333D01*
X126713761Y-93765714D01*
X126618523Y-93765714D01*
X126142333Y-94432380D02*
X126237571Y-94384761D01*
X126285190Y-94337142D01*
X126332809Y-94241904D01*
X126332809Y-93956190D01*
X126285190Y-93860952D01*
X126237571Y-93813333D01*
X126142333Y-93765714D01*
X125999476Y-93765714D01*
X125904238Y-93813333D01*
X125856619Y-93860952D01*
X125809000Y-93956190D01*
X125809000Y-94241904D01*
X125856619Y-94337142D01*
X125904238Y-94384761D01*
X125999476Y-94432380D01*
X126142333Y-94432380D01*
X125380428Y-93765714D02*
X125380428Y-94432380D01*
X125380428Y-93860952D02*
X125332809Y-93813333D01*
X125237571Y-93765714D01*
X125094714Y-93765714D01*
X124999476Y-93813333D01*
X124951857Y-93908571D01*
X124951857Y-94432380D01*
X124618523Y-93765714D02*
X124237571Y-93765714D01*
X124475666Y-93432380D02*
X124475666Y-94289523D01*
X124428047Y-94384761D01*
X124332809Y-94432380D01*
X124237571Y-94432380D01*
X122999476Y-94432380D02*
X123094714Y-94384761D01*
X123142333Y-94337142D01*
X123189952Y-94241904D01*
X123189952Y-93956190D01*
X123142333Y-93860952D01*
X123094714Y-93813333D01*
X122999476Y-93765714D01*
X122856619Y-93765714D01*
X122761380Y-93813333D01*
X122713761Y-93860952D01*
X122666142Y-93956190D01*
X122666142Y-94241904D01*
X122713761Y-94337142D01*
X122761380Y-94384761D01*
X122856619Y-94432380D01*
X122999476Y-94432380D01*
X122380428Y-93765714D02*
X121999476Y-93765714D01*
X122237571Y-94432380D02*
X122237571Y-93575238D01*
X122189952Y-93480000D01*
X122094714Y-93432380D01*
X121999476Y-93432380D01*
X120904238Y-93765714D02*
X120904238Y-94765714D01*
X120904238Y-93813333D02*
X120809000Y-93765714D01*
X120618523Y-93765714D01*
X120523285Y-93813333D01*
X120475666Y-93860952D01*
X120428047Y-93956190D01*
X120428047Y-94241904D01*
X120475666Y-94337142D01*
X120523285Y-94384761D01*
X120618523Y-94432380D01*
X120809000Y-94432380D01*
X120904238Y-94384761D01*
X119856619Y-94432380D02*
X119951857Y-94384761D01*
X119999476Y-94289523D01*
X119999476Y-93432380D01*
X119047095Y-93765714D02*
X119047095Y-94432380D01*
X119475666Y-93765714D02*
X119475666Y-94289523D01*
X119428047Y-94384761D01*
X119332809Y-94432380D01*
X119189952Y-94432380D01*
X119094714Y-94384761D01*
X119047095Y-94337142D01*
X118142333Y-93765714D02*
X118142333Y-94575238D01*
X118189952Y-94670476D01*
X118237571Y-94718095D01*
X118332809Y-94765714D01*
X118475666Y-94765714D01*
X118570904Y-94718095D01*
X118142333Y-94384761D02*
X118237571Y-94432380D01*
X118428047Y-94432380D01*
X118523285Y-94384761D01*
X118570904Y-94337142D01*
X118618523Y-94241904D01*
X118618523Y-93956190D01*
X118570904Y-93860952D01*
X118523285Y-93813333D01*
X118428047Y-93765714D01*
X118237571Y-93765714D01*
X118142333Y-93813333D01*
X117761380Y-94813333D02*
X117713761Y-94765714D01*
X117618523Y-94622857D01*
X117570904Y-94527619D01*
X117523285Y-94384761D01*
X117475666Y-94146666D01*
X117475666Y-93956190D01*
X117523285Y-93718095D01*
X117570904Y-93575238D01*
X117618523Y-93480000D01*
X117713761Y-93337142D01*
X117761380Y-93289523D01*
D12*
%TO.C,J1*%
X125221688Y-80009876D02*
G75*
G02*
X120142001Y-80010001I-2539688J-6350124D01*
G01*
X125222000Y-80009998D02*
G75*
G02*
X120142002Y-80010000I-2540000J2539998D01*
G01*
%TD*%
M02*
