%TF.GenerationSoftware,KiCad,Pcbnew,(5.1.8)-1*%
%TF.CreationDate,2021-01-26T14:35:44+01:00*%
%TF.ProjectId,D32 Joystick Adapter Faceplate A2,44333220-4a6f-4797-9374-69636b204164,rev?*%
%TF.SameCoordinates,Original*%
%TF.FileFunction,Profile,NP*%
%FSLAX46Y46*%
G04 Gerber Fmt 4.6, Leading zero omitted, Abs format (unit mm)*
G04 Created by KiCad (PCBNEW (5.1.8)-1) date 2021-01-26 14:35:44*
%MOMM*%
%LPD*%
G01*
G04 APERTURE LIST*
%TA.AperFunction,Profile*%
%ADD10C,0.050000*%
%TD*%
G04 APERTURE END LIST*
D10*
X112141000Y-108648500D02*
G75*
G02*
X112014000Y-108521500I0J127000D01*
G01*
X133477000Y-108521500D02*
G75*
G02*
X133350000Y-108648500I-127000J0D01*
G01*
X133477000Y-104775000D02*
G75*
G02*
X133604000Y-104648000I127000J0D01*
G01*
X137033000Y-104648000D02*
G75*
G02*
X137160000Y-104775000I0J-127000D01*
G01*
X111887000Y-104648000D02*
G75*
G02*
X112014000Y-104775000I0J-127000D01*
G01*
X108331000Y-104775000D02*
G75*
G02*
X108458000Y-104648000I127000J0D01*
G01*
X132397500Y-108648500D02*
X133350000Y-108648500D01*
X133477000Y-108521500D02*
X133477000Y-104775000D01*
X137160000Y-108648500D02*
X137160000Y-104775000D01*
X137033000Y-104648000D02*
X133604000Y-104648000D01*
X108331000Y-108648500D02*
X107823000Y-108648500D01*
X112014000Y-108521500D02*
X112014000Y-104775000D01*
X111887000Y-104648000D02*
X108458000Y-104648000D01*
X108331000Y-108648500D02*
X108331000Y-104775000D01*
X143510000Y-112395000D02*
X138938000Y-112395000D01*
X138938000Y-112395000D02*
G75*
G02*
X138303000Y-111760000I0J635000D01*
G01*
X107188000Y-111760000D02*
G75*
G02*
X106553000Y-112395000I-635000J0D01*
G01*
X138303000Y-109283500D02*
X138303000Y-111760000D01*
X137668000Y-108648500D02*
G75*
G02*
X138303000Y-109283500I0J-635000D01*
G01*
X137160000Y-108648500D02*
X137668000Y-108648500D01*
X107188000Y-109283500D02*
X107188000Y-111760000D01*
X112141000Y-108648500D02*
X113093500Y-108648500D01*
X107188000Y-109283500D02*
G75*
G02*
X107823000Y-108648500I635000J0D01*
G01*
X132397500Y-108648500D02*
G75*
G02*
X131762500Y-108013500I0J635000D01*
G01*
X113728500Y-108013500D02*
G75*
G02*
X113093500Y-108648500I-635000J0D01*
G01*
X131127500Y-100266500D02*
G75*
G02*
X131762500Y-100901500I0J-635000D01*
G01*
X113728500Y-100901500D02*
G75*
G02*
X114363500Y-100266500I635000J0D01*
G01*
X131762500Y-100901500D02*
X131762500Y-108013500D01*
X113728500Y-100901500D02*
X113728500Y-108013500D01*
X114363500Y-100266500D02*
X131127500Y-100266500D01*
X147320000Y-108585000D02*
G75*
G02*
X143510000Y-112395000I-3810000J0D01*
G01*
X143510000Y-71755000D02*
G75*
G02*
X147320000Y-75565000I0J-3810000D01*
G01*
X98425000Y-75565000D02*
G75*
G02*
X102235000Y-71755000I3810000J0D01*
G01*
X102235000Y-112395000D02*
G75*
G02*
X98425000Y-108585000I0J3810000D01*
G01*
X106553000Y-112395000D02*
X102235000Y-112395000D01*
X147320000Y-75565000D02*
X147320000Y-108585000D01*
X102235000Y-71755000D02*
X143510000Y-71755000D01*
X98425000Y-108585000D02*
X98425000Y-75565000D01*
M02*
