%TF.GenerationSoftware,KiCad,Pcbnew,(5.1.8)-1*%
%TF.CreationDate,2021-01-26T14:35:43+01:00*%
%TF.ProjectId,D32 Joystick Adapter Faceplate A2,44333220-4a6f-4797-9374-69636b204164,rev?*%
%TF.SameCoordinates,Original*%
%TF.FileFunction,Legend,Top*%
%TF.FilePolarity,Positive*%
%FSLAX46Y46*%
G04 Gerber Fmt 4.6, Leading zero omitted, Abs format (unit mm)*
G04 Created by KiCad (PCBNEW (5.1.8)-1) date 2021-01-26 14:35:43*
%MOMM*%
%LPD*%
G01*
G04 APERTURE LIST*
%ADD10C,0.010000*%
G04 APERTURE END LIST*
D10*
%TO.C,G\u002A\u002A\u002A*%
G36*
X157691667Y-122555000D02*
G01*
X89958334Y-122555000D01*
X89958334Y-93217999D01*
X109304667Y-93217999D01*
X109305026Y-94102320D01*
X109307641Y-94832806D01*
X109314819Y-95424956D01*
X109328867Y-95894270D01*
X109352092Y-96256246D01*
X109386802Y-96526384D01*
X109435302Y-96720181D01*
X109499901Y-96853137D01*
X109582905Y-96940751D01*
X109686620Y-96998522D01*
X109813355Y-97041948D01*
X109876607Y-97060390D01*
X109999847Y-97071703D01*
X110280936Y-97082256D01*
X110708388Y-97092046D01*
X111270722Y-97101071D01*
X111956453Y-97109329D01*
X112754098Y-97116817D01*
X113652173Y-97123533D01*
X114639195Y-97129475D01*
X115703679Y-97134639D01*
X116834144Y-97139025D01*
X118019104Y-97142629D01*
X119247077Y-97145449D01*
X120506578Y-97147484D01*
X121786125Y-97148729D01*
X123074234Y-97149184D01*
X124359420Y-97148845D01*
X125630202Y-97147711D01*
X126875094Y-97145779D01*
X128082613Y-97143047D01*
X129241277Y-97139512D01*
X130339601Y-97135172D01*
X131366101Y-97130025D01*
X132309295Y-97124068D01*
X133157698Y-97117299D01*
X133899828Y-97109715D01*
X134524199Y-97101315D01*
X135019330Y-97092096D01*
X135373736Y-97082055D01*
X135575934Y-97071191D01*
X135615634Y-97065660D01*
X135763019Y-97023257D01*
X135884662Y-96975177D01*
X135983033Y-96905917D01*
X136060602Y-96799970D01*
X136119840Y-96641831D01*
X136163216Y-96415997D01*
X136193202Y-96106960D01*
X136212268Y-95699218D01*
X136222884Y-95177264D01*
X136227520Y-94525593D01*
X136228648Y-93728700D01*
X136228667Y-93217999D01*
X136228421Y-92333808D01*
X136226038Y-91603444D01*
X136219046Y-91011404D01*
X136204975Y-90542181D01*
X136181356Y-90180271D01*
X136145717Y-89910169D01*
X136095588Y-89716369D01*
X136028499Y-89583367D01*
X135941980Y-89495658D01*
X135833560Y-89437736D01*
X135700768Y-89394097D01*
X135615634Y-89370339D01*
X135487657Y-89358205D01*
X135201874Y-89346926D01*
X134769810Y-89336502D01*
X134202989Y-89326933D01*
X133512938Y-89318219D01*
X132711181Y-89310360D01*
X131809243Y-89303355D01*
X130818649Y-89297206D01*
X129750924Y-89291912D01*
X128617594Y-89287472D01*
X127430183Y-89283888D01*
X126200216Y-89281159D01*
X124939218Y-89279284D01*
X123658716Y-89278265D01*
X122370232Y-89278100D01*
X121085294Y-89278791D01*
X119815424Y-89280336D01*
X118572150Y-89282736D01*
X117366995Y-89285992D01*
X116211485Y-89290102D01*
X115117145Y-89295067D01*
X114095500Y-89300887D01*
X113158074Y-89307563D01*
X112316394Y-89315093D01*
X111581983Y-89323478D01*
X110966368Y-89332718D01*
X110481072Y-89342813D01*
X110137622Y-89353763D01*
X109947542Y-89365568D01*
X109917700Y-89370339D01*
X109770314Y-89412742D01*
X109648672Y-89460822D01*
X109550301Y-89530082D01*
X109472732Y-89636029D01*
X109413494Y-89794168D01*
X109370117Y-90020002D01*
X109340131Y-90329039D01*
X109321066Y-90736781D01*
X109310450Y-91258735D01*
X109305813Y-91910406D01*
X109304686Y-92707299D01*
X109304667Y-93217999D01*
X89958334Y-93217999D01*
X89958334Y-84793666D01*
X117644334Y-84793666D01*
X117644334Y-85132333D01*
X117654364Y-85349488D01*
X117708718Y-85446023D01*
X117843792Y-85470465D01*
X117898334Y-85471000D01*
X118152334Y-85471000D01*
X118152334Y-87215894D01*
X118491000Y-87235876D01*
X118829667Y-87255859D01*
X118829667Y-87215894D01*
X119761000Y-87215894D01*
X120099667Y-87235876D01*
X120438334Y-87255859D01*
X120438334Y-85459752D01*
X120664637Y-85486542D01*
X120852582Y-85548119D01*
X120927601Y-85648613D01*
X120872679Y-85746456D01*
X120785920Y-85782801D01*
X120646265Y-85896858D01*
X120611010Y-86128076D01*
X120679687Y-86460666D01*
X120816266Y-86804500D01*
X120942065Y-87056494D01*
X121046348Y-87189484D01*
X121172017Y-87241070D01*
X121323438Y-87249000D01*
X121520886Y-87230784D01*
X121620697Y-87185923D01*
X121623667Y-87175623D01*
X121593330Y-87062107D01*
X121522680Y-86868000D01*
X121877667Y-86868000D01*
X121890343Y-87065361D01*
X121962711Y-87147259D01*
X122146283Y-87164254D01*
X122179566Y-87164333D01*
X122436169Y-87138764D01*
X122644686Y-87076828D01*
X122652401Y-87072851D01*
X122799110Y-86935060D01*
X122932399Y-86718713D01*
X122945677Y-86688566D01*
X123012917Y-86494819D01*
X123015217Y-86332195D01*
X122949458Y-86132505D01*
X123250204Y-86132505D01*
X123251474Y-86279585D01*
X123313912Y-86352549D01*
X123481008Y-86382298D01*
X123613195Y-86390406D01*
X123847237Y-86396012D01*
X123958215Y-86361533D01*
X123977966Y-86301200D01*
X124340005Y-86301200D01*
X124356621Y-86616121D01*
X124490460Y-86899384D01*
X124540818Y-86956515D01*
X124817987Y-87124554D01*
X125155195Y-87176576D01*
X125489137Y-87112582D01*
X125733849Y-86956515D01*
X125896980Y-86688712D01*
X125940956Y-86372139D01*
X125863174Y-86089432D01*
X126449667Y-86089432D01*
X126456757Y-86428994D01*
X126486378Y-86650851D01*
X126551056Y-86806334D01*
X126657291Y-86940303D01*
X126837876Y-87090620D01*
X127055035Y-87154888D01*
X127254000Y-87164333D01*
X127537090Y-87140567D01*
X127732805Y-87049824D01*
X127850710Y-86940303D01*
X127960646Y-86800273D01*
X128023544Y-86642976D01*
X128051928Y-86417079D01*
X128058334Y-86089432D01*
X128033330Y-85597804D01*
X127949842Y-85250056D01*
X127795150Y-85027037D01*
X127556534Y-84909596D01*
X127254000Y-84878333D01*
X126927493Y-84915980D01*
X126696541Y-85041690D01*
X126548427Y-85274613D01*
X126470430Y-85633901D01*
X126449667Y-86089432D01*
X125863174Y-86089432D01*
X125859311Y-86075392D01*
X125822372Y-86017552D01*
X125750130Y-85814124D01*
X125777252Y-85715809D01*
X125821922Y-85470460D01*
X125743413Y-85195867D01*
X125631259Y-85032114D01*
X125413863Y-84905474D01*
X125128096Y-84880426D01*
X124835470Y-84949920D01*
X124597500Y-85106905D01*
X124556473Y-85155306D01*
X124442156Y-85349797D01*
X124438457Y-85523579D01*
X124472010Y-85628657D01*
X124518350Y-85848068D01*
X124449978Y-86020699D01*
X124447556Y-86024032D01*
X124340005Y-86301200D01*
X123977966Y-86301200D01*
X123992013Y-86258296D01*
X123994334Y-86152234D01*
X123982711Y-85990909D01*
X123916481Y-85916409D01*
X123748601Y-85895310D01*
X123631343Y-85894333D01*
X123402729Y-85904076D01*
X123293907Y-85953839D01*
X123255588Y-86074423D01*
X123250204Y-86132505D01*
X122949458Y-86132505D01*
X122947184Y-86125601D01*
X122896866Y-86008846D01*
X122789528Y-85719578D01*
X122782495Y-85548563D01*
X122877352Y-85476475D01*
X122940997Y-85471000D01*
X123026066Y-85410020D01*
X123061111Y-85212687D01*
X123063000Y-85122458D01*
X123054332Y-84903996D01*
X123011406Y-84814992D01*
X122908836Y-84815806D01*
X122872500Y-84824969D01*
X122681564Y-84866383D01*
X122587712Y-84877177D01*
X122470382Y-84933288D01*
X122302681Y-85070009D01*
X122270212Y-85101545D01*
X122086042Y-85395086D01*
X122057521Y-85740044D01*
X122177594Y-86100433D01*
X122265378Y-86353479D01*
X122222816Y-86514371D01*
X122053020Y-86571654D01*
X122049657Y-86571666D01*
X121931349Y-86603822D01*
X121883519Y-86730612D01*
X121877667Y-86868000D01*
X121522680Y-86868000D01*
X121515212Y-86847484D01*
X121442468Y-86666235D01*
X121342244Y-86414146D01*
X121306784Y-86263827D01*
X121333844Y-86161535D01*
X121417068Y-86058066D01*
X121545907Y-85804377D01*
X121564333Y-85500595D01*
X121473752Y-85220992D01*
X121399381Y-85124418D01*
X121129175Y-84955634D01*
X120728295Y-84843542D01*
X120228369Y-84796551D01*
X120163167Y-84795686D01*
X119761000Y-84793666D01*
X119761000Y-87215894D01*
X118829667Y-87215894D01*
X118829667Y-86363429D01*
X118831860Y-85965506D01*
X118842222Y-85706652D01*
X118866422Y-85556625D01*
X118910134Y-85485180D01*
X118979027Y-85462072D01*
X118999000Y-85460416D01*
X119194530Y-85446255D01*
X119274167Y-85439186D01*
X119348631Y-85354217D01*
X119387124Y-85148342D01*
X119388743Y-85111102D01*
X119397486Y-84793666D01*
X117644334Y-84793666D01*
X89958334Y-84793666D01*
X89958334Y-78739999D01*
X108881334Y-78739999D01*
X108881693Y-79624320D01*
X108884308Y-80354806D01*
X108891486Y-80946956D01*
X108905534Y-81416270D01*
X108928759Y-81778246D01*
X108963468Y-82048384D01*
X109011969Y-82242181D01*
X109076568Y-82375137D01*
X109159571Y-82462751D01*
X109263287Y-82520522D01*
X109390022Y-82563948D01*
X109453274Y-82582390D01*
X109576514Y-82593703D01*
X109857602Y-82604256D01*
X110285055Y-82614046D01*
X110847389Y-82623071D01*
X111533120Y-82631329D01*
X112330765Y-82638817D01*
X113228840Y-82645533D01*
X114215861Y-82651475D01*
X115280346Y-82656639D01*
X116410810Y-82661025D01*
X117595771Y-82664629D01*
X118823744Y-82667449D01*
X120083245Y-82669484D01*
X121362792Y-82670729D01*
X122650900Y-82671184D01*
X123936087Y-82670845D01*
X125206868Y-82669711D01*
X126451760Y-82667779D01*
X127659280Y-82665047D01*
X128817944Y-82661512D01*
X129916267Y-82657172D01*
X130942768Y-82652025D01*
X131885962Y-82646068D01*
X132734365Y-82639299D01*
X133476494Y-82631715D01*
X134100866Y-82623315D01*
X134595997Y-82614096D01*
X134950403Y-82604055D01*
X135152600Y-82593191D01*
X135192301Y-82587660D01*
X135339686Y-82545257D01*
X135461329Y-82497177D01*
X135559699Y-82427917D01*
X135637268Y-82321970D01*
X135696506Y-82163831D01*
X135739883Y-81937997D01*
X135769869Y-81628960D01*
X135788935Y-81221218D01*
X135799551Y-80699264D01*
X135804187Y-80047593D01*
X135805314Y-79250700D01*
X135805334Y-78739999D01*
X135805088Y-77855808D01*
X135802704Y-77125444D01*
X135795713Y-76533404D01*
X135781642Y-76064181D01*
X135758022Y-75702271D01*
X135722383Y-75432169D01*
X135672255Y-75238369D01*
X135605166Y-75105367D01*
X135518646Y-75017658D01*
X135410226Y-74959736D01*
X135277435Y-74916097D01*
X135192301Y-74892339D01*
X135064324Y-74880205D01*
X134778541Y-74868926D01*
X134346476Y-74858502D01*
X133779656Y-74848933D01*
X133089605Y-74840219D01*
X132287847Y-74832360D01*
X131385909Y-74825355D01*
X130395315Y-74819206D01*
X129327591Y-74813912D01*
X128194260Y-74809472D01*
X127006849Y-74805888D01*
X125776882Y-74803159D01*
X124515885Y-74801284D01*
X123235382Y-74800265D01*
X121946899Y-74800100D01*
X120661960Y-74800791D01*
X119392091Y-74802336D01*
X118148817Y-74804736D01*
X116943662Y-74807992D01*
X115788152Y-74812102D01*
X114693812Y-74817067D01*
X113672166Y-74822887D01*
X112734741Y-74829563D01*
X111893060Y-74837093D01*
X111158650Y-74845478D01*
X110543034Y-74854718D01*
X110057739Y-74864813D01*
X109714289Y-74875763D01*
X109524209Y-74887568D01*
X109494366Y-74892339D01*
X109346981Y-74934742D01*
X109225338Y-74982822D01*
X109126968Y-75052082D01*
X109049399Y-75158029D01*
X108990161Y-75316168D01*
X108946784Y-75542002D01*
X108916798Y-75851039D01*
X108897732Y-76258781D01*
X108887116Y-76780735D01*
X108882480Y-77432406D01*
X108881353Y-78229299D01*
X108881334Y-78739999D01*
X89958334Y-78739999D01*
X89958334Y-64135000D01*
X157691667Y-64135000D01*
X157691667Y-122555000D01*
G37*
X157691667Y-122555000D02*
X89958334Y-122555000D01*
X89958334Y-93217999D01*
X109304667Y-93217999D01*
X109305026Y-94102320D01*
X109307641Y-94832806D01*
X109314819Y-95424956D01*
X109328867Y-95894270D01*
X109352092Y-96256246D01*
X109386802Y-96526384D01*
X109435302Y-96720181D01*
X109499901Y-96853137D01*
X109582905Y-96940751D01*
X109686620Y-96998522D01*
X109813355Y-97041948D01*
X109876607Y-97060390D01*
X109999847Y-97071703D01*
X110280936Y-97082256D01*
X110708388Y-97092046D01*
X111270722Y-97101071D01*
X111956453Y-97109329D01*
X112754098Y-97116817D01*
X113652173Y-97123533D01*
X114639195Y-97129475D01*
X115703679Y-97134639D01*
X116834144Y-97139025D01*
X118019104Y-97142629D01*
X119247077Y-97145449D01*
X120506578Y-97147484D01*
X121786125Y-97148729D01*
X123074234Y-97149184D01*
X124359420Y-97148845D01*
X125630202Y-97147711D01*
X126875094Y-97145779D01*
X128082613Y-97143047D01*
X129241277Y-97139512D01*
X130339601Y-97135172D01*
X131366101Y-97130025D01*
X132309295Y-97124068D01*
X133157698Y-97117299D01*
X133899828Y-97109715D01*
X134524199Y-97101315D01*
X135019330Y-97092096D01*
X135373736Y-97082055D01*
X135575934Y-97071191D01*
X135615634Y-97065660D01*
X135763019Y-97023257D01*
X135884662Y-96975177D01*
X135983033Y-96905917D01*
X136060602Y-96799970D01*
X136119840Y-96641831D01*
X136163216Y-96415997D01*
X136193202Y-96106960D01*
X136212268Y-95699218D01*
X136222884Y-95177264D01*
X136227520Y-94525593D01*
X136228648Y-93728700D01*
X136228667Y-93217999D01*
X136228421Y-92333808D01*
X136226038Y-91603444D01*
X136219046Y-91011404D01*
X136204975Y-90542181D01*
X136181356Y-90180271D01*
X136145717Y-89910169D01*
X136095588Y-89716369D01*
X136028499Y-89583367D01*
X135941980Y-89495658D01*
X135833560Y-89437736D01*
X135700768Y-89394097D01*
X135615634Y-89370339D01*
X135487657Y-89358205D01*
X135201874Y-89346926D01*
X134769810Y-89336502D01*
X134202989Y-89326933D01*
X133512938Y-89318219D01*
X132711181Y-89310360D01*
X131809243Y-89303355D01*
X130818649Y-89297206D01*
X129750924Y-89291912D01*
X128617594Y-89287472D01*
X127430183Y-89283888D01*
X126200216Y-89281159D01*
X124939218Y-89279284D01*
X123658716Y-89278265D01*
X122370232Y-89278100D01*
X121085294Y-89278791D01*
X119815424Y-89280336D01*
X118572150Y-89282736D01*
X117366995Y-89285992D01*
X116211485Y-89290102D01*
X115117145Y-89295067D01*
X114095500Y-89300887D01*
X113158074Y-89307563D01*
X112316394Y-89315093D01*
X111581983Y-89323478D01*
X110966368Y-89332718D01*
X110481072Y-89342813D01*
X110137622Y-89353763D01*
X109947542Y-89365568D01*
X109917700Y-89370339D01*
X109770314Y-89412742D01*
X109648672Y-89460822D01*
X109550301Y-89530082D01*
X109472732Y-89636029D01*
X109413494Y-89794168D01*
X109370117Y-90020002D01*
X109340131Y-90329039D01*
X109321066Y-90736781D01*
X109310450Y-91258735D01*
X109305813Y-91910406D01*
X109304686Y-92707299D01*
X109304667Y-93217999D01*
X89958334Y-93217999D01*
X89958334Y-84793666D01*
X117644334Y-84793666D01*
X117644334Y-85132333D01*
X117654364Y-85349488D01*
X117708718Y-85446023D01*
X117843792Y-85470465D01*
X117898334Y-85471000D01*
X118152334Y-85471000D01*
X118152334Y-87215894D01*
X118491000Y-87235876D01*
X118829667Y-87255859D01*
X118829667Y-87215894D01*
X119761000Y-87215894D01*
X120099667Y-87235876D01*
X120438334Y-87255859D01*
X120438334Y-85459752D01*
X120664637Y-85486542D01*
X120852582Y-85548119D01*
X120927601Y-85648613D01*
X120872679Y-85746456D01*
X120785920Y-85782801D01*
X120646265Y-85896858D01*
X120611010Y-86128076D01*
X120679687Y-86460666D01*
X120816266Y-86804500D01*
X120942065Y-87056494D01*
X121046348Y-87189484D01*
X121172017Y-87241070D01*
X121323438Y-87249000D01*
X121520886Y-87230784D01*
X121620697Y-87185923D01*
X121623667Y-87175623D01*
X121593330Y-87062107D01*
X121522680Y-86868000D01*
X121877667Y-86868000D01*
X121890343Y-87065361D01*
X121962711Y-87147259D01*
X122146283Y-87164254D01*
X122179566Y-87164333D01*
X122436169Y-87138764D01*
X122644686Y-87076828D01*
X122652401Y-87072851D01*
X122799110Y-86935060D01*
X122932399Y-86718713D01*
X122945677Y-86688566D01*
X123012917Y-86494819D01*
X123015217Y-86332195D01*
X122949458Y-86132505D01*
X123250204Y-86132505D01*
X123251474Y-86279585D01*
X123313912Y-86352549D01*
X123481008Y-86382298D01*
X123613195Y-86390406D01*
X123847237Y-86396012D01*
X123958215Y-86361533D01*
X123977966Y-86301200D01*
X124340005Y-86301200D01*
X124356621Y-86616121D01*
X124490460Y-86899384D01*
X124540818Y-86956515D01*
X124817987Y-87124554D01*
X125155195Y-87176576D01*
X125489137Y-87112582D01*
X125733849Y-86956515D01*
X125896980Y-86688712D01*
X125940956Y-86372139D01*
X125863174Y-86089432D01*
X126449667Y-86089432D01*
X126456757Y-86428994D01*
X126486378Y-86650851D01*
X126551056Y-86806334D01*
X126657291Y-86940303D01*
X126837876Y-87090620D01*
X127055035Y-87154888D01*
X127254000Y-87164333D01*
X127537090Y-87140567D01*
X127732805Y-87049824D01*
X127850710Y-86940303D01*
X127960646Y-86800273D01*
X128023544Y-86642976D01*
X128051928Y-86417079D01*
X128058334Y-86089432D01*
X128033330Y-85597804D01*
X127949842Y-85250056D01*
X127795150Y-85027037D01*
X127556534Y-84909596D01*
X127254000Y-84878333D01*
X126927493Y-84915980D01*
X126696541Y-85041690D01*
X126548427Y-85274613D01*
X126470430Y-85633901D01*
X126449667Y-86089432D01*
X125863174Y-86089432D01*
X125859311Y-86075392D01*
X125822372Y-86017552D01*
X125750130Y-85814124D01*
X125777252Y-85715809D01*
X125821922Y-85470460D01*
X125743413Y-85195867D01*
X125631259Y-85032114D01*
X125413863Y-84905474D01*
X125128096Y-84880426D01*
X124835470Y-84949920D01*
X124597500Y-85106905D01*
X124556473Y-85155306D01*
X124442156Y-85349797D01*
X124438457Y-85523579D01*
X124472010Y-85628657D01*
X124518350Y-85848068D01*
X124449978Y-86020699D01*
X124447556Y-86024032D01*
X124340005Y-86301200D01*
X123977966Y-86301200D01*
X123992013Y-86258296D01*
X123994334Y-86152234D01*
X123982711Y-85990909D01*
X123916481Y-85916409D01*
X123748601Y-85895310D01*
X123631343Y-85894333D01*
X123402729Y-85904076D01*
X123293907Y-85953839D01*
X123255588Y-86074423D01*
X123250204Y-86132505D01*
X122949458Y-86132505D01*
X122947184Y-86125601D01*
X122896866Y-86008846D01*
X122789528Y-85719578D01*
X122782495Y-85548563D01*
X122877352Y-85476475D01*
X122940997Y-85471000D01*
X123026066Y-85410020D01*
X123061111Y-85212687D01*
X123063000Y-85122458D01*
X123054332Y-84903996D01*
X123011406Y-84814992D01*
X122908836Y-84815806D01*
X122872500Y-84824969D01*
X122681564Y-84866383D01*
X122587712Y-84877177D01*
X122470382Y-84933288D01*
X122302681Y-85070009D01*
X122270212Y-85101545D01*
X122086042Y-85395086D01*
X122057521Y-85740044D01*
X122177594Y-86100433D01*
X122265378Y-86353479D01*
X122222816Y-86514371D01*
X122053020Y-86571654D01*
X122049657Y-86571666D01*
X121931349Y-86603822D01*
X121883519Y-86730612D01*
X121877667Y-86868000D01*
X121522680Y-86868000D01*
X121515212Y-86847484D01*
X121442468Y-86666235D01*
X121342244Y-86414146D01*
X121306784Y-86263827D01*
X121333844Y-86161535D01*
X121417068Y-86058066D01*
X121545907Y-85804377D01*
X121564333Y-85500595D01*
X121473752Y-85220992D01*
X121399381Y-85124418D01*
X121129175Y-84955634D01*
X120728295Y-84843542D01*
X120228369Y-84796551D01*
X120163167Y-84795686D01*
X119761000Y-84793666D01*
X119761000Y-87215894D01*
X118829667Y-87215894D01*
X118829667Y-86363429D01*
X118831860Y-85965506D01*
X118842222Y-85706652D01*
X118866422Y-85556625D01*
X118910134Y-85485180D01*
X118979027Y-85462072D01*
X118999000Y-85460416D01*
X119194530Y-85446255D01*
X119274167Y-85439186D01*
X119348631Y-85354217D01*
X119387124Y-85148342D01*
X119388743Y-85111102D01*
X119397486Y-84793666D01*
X117644334Y-84793666D01*
X89958334Y-84793666D01*
X89958334Y-78739999D01*
X108881334Y-78739999D01*
X108881693Y-79624320D01*
X108884308Y-80354806D01*
X108891486Y-80946956D01*
X108905534Y-81416270D01*
X108928759Y-81778246D01*
X108963468Y-82048384D01*
X109011969Y-82242181D01*
X109076568Y-82375137D01*
X109159571Y-82462751D01*
X109263287Y-82520522D01*
X109390022Y-82563948D01*
X109453274Y-82582390D01*
X109576514Y-82593703D01*
X109857602Y-82604256D01*
X110285055Y-82614046D01*
X110847389Y-82623071D01*
X111533120Y-82631329D01*
X112330765Y-82638817D01*
X113228840Y-82645533D01*
X114215861Y-82651475D01*
X115280346Y-82656639D01*
X116410810Y-82661025D01*
X117595771Y-82664629D01*
X118823744Y-82667449D01*
X120083245Y-82669484D01*
X121362792Y-82670729D01*
X122650900Y-82671184D01*
X123936087Y-82670845D01*
X125206868Y-82669711D01*
X126451760Y-82667779D01*
X127659280Y-82665047D01*
X128817944Y-82661512D01*
X129916267Y-82657172D01*
X130942768Y-82652025D01*
X131885962Y-82646068D01*
X132734365Y-82639299D01*
X133476494Y-82631715D01*
X134100866Y-82623315D01*
X134595997Y-82614096D01*
X134950403Y-82604055D01*
X135152600Y-82593191D01*
X135192301Y-82587660D01*
X135339686Y-82545257D01*
X135461329Y-82497177D01*
X135559699Y-82427917D01*
X135637268Y-82321970D01*
X135696506Y-82163831D01*
X135739883Y-81937997D01*
X135769869Y-81628960D01*
X135788935Y-81221218D01*
X135799551Y-80699264D01*
X135804187Y-80047593D01*
X135805314Y-79250700D01*
X135805334Y-78739999D01*
X135805088Y-77855808D01*
X135802704Y-77125444D01*
X135795713Y-76533404D01*
X135781642Y-76064181D01*
X135758022Y-75702271D01*
X135722383Y-75432169D01*
X135672255Y-75238369D01*
X135605166Y-75105367D01*
X135518646Y-75017658D01*
X135410226Y-74959736D01*
X135277435Y-74916097D01*
X135192301Y-74892339D01*
X135064324Y-74880205D01*
X134778541Y-74868926D01*
X134346476Y-74858502D01*
X133779656Y-74848933D01*
X133089605Y-74840219D01*
X132287847Y-74832360D01*
X131385909Y-74825355D01*
X130395315Y-74819206D01*
X129327591Y-74813912D01*
X128194260Y-74809472D01*
X127006849Y-74805888D01*
X125776882Y-74803159D01*
X124515885Y-74801284D01*
X123235382Y-74800265D01*
X121946899Y-74800100D01*
X120661960Y-74800791D01*
X119392091Y-74802336D01*
X118148817Y-74804736D01*
X116943662Y-74807992D01*
X115788152Y-74812102D01*
X114693812Y-74817067D01*
X113672166Y-74822887D01*
X112734741Y-74829563D01*
X111893060Y-74837093D01*
X111158650Y-74845478D01*
X110543034Y-74854718D01*
X110057739Y-74864813D01*
X109714289Y-74875763D01*
X109524209Y-74887568D01*
X109494366Y-74892339D01*
X109346981Y-74934742D01*
X109225338Y-74982822D01*
X109126968Y-75052082D01*
X109049399Y-75158029D01*
X108990161Y-75316168D01*
X108946784Y-75542002D01*
X108916798Y-75851039D01*
X108897732Y-76258781D01*
X108887116Y-76780735D01*
X108882480Y-77432406D01*
X108881353Y-78229299D01*
X108881334Y-78739999D01*
X89958334Y-78739999D01*
X89958334Y-64135000D01*
X157691667Y-64135000D01*
X157691667Y-122555000D01*
G36*
X117911547Y-93888243D02*
G01*
X118074180Y-94015820D01*
X118229718Y-94191387D01*
X118315687Y-94327341D01*
X118321667Y-94352874D01*
X118249529Y-94444409D01*
X118079920Y-94499736D01*
X117883044Y-94506278D01*
X117737062Y-94457595D01*
X117464124Y-94317099D01*
X117245291Y-94317225D01*
X117101422Y-94454648D01*
X117065842Y-94564642D01*
X117091418Y-94768816D01*
X117223666Y-94901018D01*
X117408095Y-94941236D01*
X117590211Y-94869452D01*
X117663982Y-94784333D01*
X117848939Y-94643072D01*
X118045700Y-94615000D01*
X118240564Y-94636032D01*
X118310143Y-94718864D01*
X118264754Y-94893099D01*
X118193790Y-95040027D01*
X118022752Y-95278393D01*
X117789318Y-95411168D01*
X117450112Y-95460021D01*
X117349718Y-95461666D01*
X117050623Y-95433610D01*
X116839765Y-95332428D01*
X116754928Y-95257291D01*
X116535791Y-94933481D01*
X116470409Y-94570120D01*
X116495579Y-94396117D01*
X116649668Y-94092879D01*
X116910522Y-93880303D01*
X117235928Y-93768559D01*
X117583675Y-93767816D01*
X117911547Y-93888243D01*
G37*
X117911547Y-93888243D02*
X118074180Y-94015820D01*
X118229718Y-94191387D01*
X118315687Y-94327341D01*
X118321667Y-94352874D01*
X118249529Y-94444409D01*
X118079920Y-94499736D01*
X117883044Y-94506278D01*
X117737062Y-94457595D01*
X117464124Y-94317099D01*
X117245291Y-94317225D01*
X117101422Y-94454648D01*
X117065842Y-94564642D01*
X117091418Y-94768816D01*
X117223666Y-94901018D01*
X117408095Y-94941236D01*
X117590211Y-94869452D01*
X117663982Y-94784333D01*
X117848939Y-94643072D01*
X118045700Y-94615000D01*
X118240564Y-94636032D01*
X118310143Y-94718864D01*
X118264754Y-94893099D01*
X118193790Y-95040027D01*
X118022752Y-95278393D01*
X117789318Y-95411168D01*
X117450112Y-95460021D01*
X117349718Y-95461666D01*
X117050623Y-95433610D01*
X116839765Y-95332428D01*
X116754928Y-95257291D01*
X116535791Y-94933481D01*
X116470409Y-94570120D01*
X116495579Y-94396117D01*
X116649668Y-94092879D01*
X116910522Y-93880303D01*
X117235928Y-93768559D01*
X117583675Y-93767816D01*
X117911547Y-93888243D01*
G36*
X119686126Y-93805409D02*
G01*
X119961554Y-93961520D01*
X119973072Y-93972708D01*
X120191637Y-94289081D01*
X120262165Y-94621856D01*
X120198656Y-94938266D01*
X120015111Y-95205545D01*
X119725532Y-95390927D01*
X119343919Y-95461646D01*
X119336849Y-95461666D01*
X119045694Y-95437783D01*
X118839961Y-95347028D01*
X118712497Y-95236739D01*
X118482694Y-94910449D01*
X118426750Y-94625900D01*
X118999000Y-94625900D01*
X119067266Y-94819730D01*
X119231490Y-94928912D01*
X119430807Y-94932686D01*
X119590754Y-94827766D01*
X119656485Y-94639412D01*
X119614847Y-94430782D01*
X119487587Y-94278664D01*
X119428070Y-94253301D01*
X119243206Y-94280483D01*
X119079241Y-94416223D01*
X118999840Y-94605235D01*
X118999000Y-94625900D01*
X118426750Y-94625900D01*
X118415519Y-94568777D01*
X118510865Y-94234062D01*
X118718454Y-93972783D01*
X119001462Y-93811044D01*
X119345057Y-93755252D01*
X119686126Y-93805409D01*
G37*
X119686126Y-93805409D02*
X119961554Y-93961520D01*
X119973072Y-93972708D01*
X120191637Y-94289081D01*
X120262165Y-94621856D01*
X120198656Y-94938266D01*
X120015111Y-95205545D01*
X119725532Y-95390927D01*
X119343919Y-95461646D01*
X119336849Y-95461666D01*
X119045694Y-95437783D01*
X118839961Y-95347028D01*
X118712497Y-95236739D01*
X118482694Y-94910449D01*
X118426750Y-94625900D01*
X118999000Y-94625900D01*
X119067266Y-94819730D01*
X119231490Y-94928912D01*
X119430807Y-94932686D01*
X119590754Y-94827766D01*
X119656485Y-94639412D01*
X119614847Y-94430782D01*
X119487587Y-94278664D01*
X119428070Y-94253301D01*
X119243206Y-94280483D01*
X119079241Y-94416223D01*
X118999840Y-94605235D01*
X118999000Y-94625900D01*
X118426750Y-94625900D01*
X118415519Y-94568777D01*
X118510865Y-94234062D01*
X118718454Y-93972783D01*
X119001462Y-93811044D01*
X119345057Y-93755252D01*
X119686126Y-93805409D01*
G36*
X121764908Y-93786379D02*
G01*
X122028743Y-93823202D01*
X122187720Y-93919357D01*
X122268388Y-94103303D01*
X122297296Y-94403496D01*
X122301000Y-94778767D01*
X122301000Y-95461666D01*
X122047000Y-95461666D01*
X121914532Y-95453877D01*
X121831836Y-95409702D01*
X121789154Y-95297931D01*
X121776731Y-95087354D01*
X121784809Y-94746759D01*
X121788944Y-94636166D01*
X121783265Y-94361686D01*
X121744488Y-94211280D01*
X121714793Y-94191666D01*
X121664627Y-94272734D01*
X121633361Y-94503079D01*
X121623667Y-94826666D01*
X121623667Y-95461666D01*
X121115667Y-95461666D01*
X121115667Y-94826666D01*
X121105161Y-94506706D01*
X121076723Y-94283692D01*
X121034971Y-94192260D01*
X121031000Y-94191666D01*
X120988339Y-94270458D01*
X120958604Y-94483744D01*
X120946413Y-94796888D01*
X120946334Y-94826666D01*
X120946334Y-95461666D01*
X120438334Y-95461666D01*
X120438334Y-94778767D01*
X120443885Y-94355090D01*
X120478237Y-94072273D01*
X120567938Y-93901858D01*
X120739538Y-93815386D01*
X121019583Y-93784399D01*
X121369667Y-93780428D01*
X121764908Y-93786379D01*
G37*
X121764908Y-93786379D02*
X122028743Y-93823202D01*
X122187720Y-93919357D01*
X122268388Y-94103303D01*
X122297296Y-94403496D01*
X122301000Y-94778767D01*
X122301000Y-95461666D01*
X122047000Y-95461666D01*
X121914532Y-95453877D01*
X121831836Y-95409702D01*
X121789154Y-95297931D01*
X121776731Y-95087354D01*
X121784809Y-94746759D01*
X121788944Y-94636166D01*
X121783265Y-94361686D01*
X121744488Y-94211280D01*
X121714793Y-94191666D01*
X121664627Y-94272734D01*
X121633361Y-94503079D01*
X121623667Y-94826666D01*
X121623667Y-95461666D01*
X121115667Y-95461666D01*
X121115667Y-94826666D01*
X121105161Y-94506706D01*
X121076723Y-94283692D01*
X121034971Y-94192260D01*
X121031000Y-94191666D01*
X120988339Y-94270458D01*
X120958604Y-94483744D01*
X120946413Y-94796888D01*
X120946334Y-94826666D01*
X120946334Y-95461666D01*
X120438334Y-95461666D01*
X120438334Y-94778767D01*
X120443885Y-94355090D01*
X120478237Y-94072273D01*
X120567938Y-93901858D01*
X120739538Y-93815386D01*
X121019583Y-93784399D01*
X121369667Y-93780428D01*
X121764908Y-93786379D01*
G36*
X123459389Y-93834046D02*
G01*
X123676382Y-94019709D01*
X123767005Y-94308113D01*
X123768556Y-94357581D01*
X123712415Y-94651475D01*
X123546444Y-94817712D01*
X123274314Y-94852740D01*
X123258207Y-94851009D01*
X123076002Y-94840122D01*
X122997306Y-94895364D01*
X122978693Y-95061573D01*
X122978334Y-95140001D01*
X122966870Y-95350024D01*
X122906349Y-95440640D01*
X122757572Y-95461488D01*
X122724334Y-95461666D01*
X122470334Y-95461666D01*
X122470334Y-94784333D01*
X122489929Y-94370993D01*
X122978334Y-94370993D01*
X123030499Y-94416896D01*
X123063000Y-94403333D01*
X123144506Y-94291174D01*
X123147667Y-94266339D01*
X123095501Y-94220436D01*
X123063000Y-94234000D01*
X122981494Y-94346159D01*
X122978334Y-94370993D01*
X122489929Y-94370993D01*
X122491197Y-94344254D01*
X122563945Y-94046186D01*
X122703817Y-93866820D01*
X122926052Y-93782844D01*
X123134545Y-93768333D01*
X123459389Y-93834046D01*
G37*
X123459389Y-93834046D02*
X123676382Y-94019709D01*
X123767005Y-94308113D01*
X123768556Y-94357581D01*
X123712415Y-94651475D01*
X123546444Y-94817712D01*
X123274314Y-94852740D01*
X123258207Y-94851009D01*
X123076002Y-94840122D01*
X122997306Y-94895364D01*
X122978693Y-95061573D01*
X122978334Y-95140001D01*
X122966870Y-95350024D01*
X122906349Y-95440640D01*
X122757572Y-95461488D01*
X122724334Y-95461666D01*
X122470334Y-95461666D01*
X122470334Y-94784333D01*
X122489929Y-94370993D01*
X122978334Y-94370993D01*
X123030499Y-94416896D01*
X123063000Y-94403333D01*
X123144506Y-94291174D01*
X123147667Y-94266339D01*
X123095501Y-94220436D01*
X123063000Y-94234000D01*
X122981494Y-94346159D01*
X122978334Y-94370993D01*
X122489929Y-94370993D01*
X122491197Y-94344254D01*
X122563945Y-94046186D01*
X122703817Y-93866820D01*
X122926052Y-93782844D01*
X123134545Y-93768333D01*
X123459389Y-93834046D01*
G36*
X124524135Y-94382166D02*
G01*
X124553354Y-94996000D01*
X124570177Y-94382166D01*
X124587000Y-93768333D01*
X125179667Y-93768333D01*
X125179667Y-94426827D01*
X125162636Y-94869282D01*
X125101513Y-95169434D01*
X124981251Y-95351805D01*
X124786802Y-95440918D01*
X124544667Y-95461666D01*
X124274520Y-95437898D01*
X124107857Y-95351369D01*
X124041468Y-95273494D01*
X123960241Y-95072608D01*
X123917995Y-94745418D01*
X123909667Y-94426827D01*
X123909667Y-93768333D01*
X124494915Y-93768333D01*
X124524135Y-94382166D01*
G37*
X124524135Y-94382166D02*
X124553354Y-94996000D01*
X124570177Y-94382166D01*
X124587000Y-93768333D01*
X125179667Y-93768333D01*
X125179667Y-94426827D01*
X125162636Y-94869282D01*
X125101513Y-95169434D01*
X124981251Y-95351805D01*
X124786802Y-95440918D01*
X124544667Y-95461666D01*
X124274520Y-95437898D01*
X124107857Y-95351369D01*
X124041468Y-95273494D01*
X123960241Y-95072608D01*
X123917995Y-94745418D01*
X123909667Y-94426827D01*
X123909667Y-93768333D01*
X124494915Y-93768333D01*
X124524135Y-94382166D01*
G36*
X126277596Y-93770588D02*
G01*
X126478744Y-93784553D01*
X126579659Y-93821023D01*
X126614890Y-93890795D01*
X126619000Y-93980000D01*
X126579313Y-94145981D01*
X126449667Y-94191666D01*
X126363089Y-94206664D01*
X126312290Y-94275052D01*
X126287913Y-94431921D01*
X126280599Y-94712362D01*
X126280334Y-94826666D01*
X126280334Y-95461666D01*
X125687667Y-95461666D01*
X125687667Y-94826666D01*
X125685029Y-94503679D01*
X125669189Y-94314351D01*
X125628257Y-94223014D01*
X125550345Y-94194000D01*
X125476000Y-94191666D01*
X125314878Y-94156697D01*
X125265227Y-94019006D01*
X125264334Y-93980000D01*
X125271551Y-93875022D01*
X125316238Y-93812163D01*
X125432942Y-93780627D01*
X125656212Y-93769617D01*
X125941667Y-93768333D01*
X126277596Y-93770588D01*
G37*
X126277596Y-93770588D02*
X126478744Y-93784553D01*
X126579659Y-93821023D01*
X126614890Y-93890795D01*
X126619000Y-93980000D01*
X126579313Y-94145981D01*
X126449667Y-94191666D01*
X126363089Y-94206664D01*
X126312290Y-94275052D01*
X126287913Y-94431921D01*
X126280599Y-94712362D01*
X126280334Y-94826666D01*
X126280334Y-95461666D01*
X125687667Y-95461666D01*
X125687667Y-94826666D01*
X125685029Y-94503679D01*
X125669189Y-94314351D01*
X125628257Y-94223014D01*
X125550345Y-94194000D01*
X125476000Y-94191666D01*
X125314878Y-94156697D01*
X125265227Y-94019006D01*
X125264334Y-93980000D01*
X125271551Y-93875022D01*
X125316238Y-93812163D01*
X125432942Y-93780627D01*
X125656212Y-93769617D01*
X125941667Y-93768333D01*
X126277596Y-93770588D01*
G36*
X127549636Y-93775535D02*
G01*
X127674112Y-93811283D01*
X127716068Y-93896786D01*
X127719667Y-93974111D01*
X127670040Y-94146007D01*
X127529167Y-94206944D01*
X127380273Y-94260095D01*
X127338667Y-94318666D01*
X127410677Y-94395068D01*
X127529167Y-94430388D01*
X127687952Y-94507725D01*
X127727439Y-94634708D01*
X127651451Y-94747409D01*
X127508000Y-94784333D01*
X127337762Y-94828493D01*
X127296334Y-94911333D01*
X127369934Y-95013476D01*
X127508000Y-95038333D01*
X127669122Y-95073302D01*
X127718773Y-95210993D01*
X127719667Y-95250000D01*
X127703535Y-95381386D01*
X127624685Y-95443122D01*
X127437435Y-95460998D01*
X127344714Y-95461666D01*
X127045388Y-95427992D01*
X126846118Y-95337428D01*
X126836714Y-95328619D01*
X126751576Y-95166920D01*
X126709924Y-94881442D01*
X126703667Y-94645719D01*
X126716768Y-94249363D01*
X126769129Y-93992341D01*
X126880338Y-93845800D01*
X127069984Y-93780888D01*
X127299312Y-93768333D01*
X127549636Y-93775535D01*
G37*
X127549636Y-93775535D02*
X127674112Y-93811283D01*
X127716068Y-93896786D01*
X127719667Y-93974111D01*
X127670040Y-94146007D01*
X127529167Y-94206944D01*
X127380273Y-94260095D01*
X127338667Y-94318666D01*
X127410677Y-94395068D01*
X127529167Y-94430388D01*
X127687952Y-94507725D01*
X127727439Y-94634708D01*
X127651451Y-94747409D01*
X127508000Y-94784333D01*
X127337762Y-94828493D01*
X127296334Y-94911333D01*
X127369934Y-95013476D01*
X127508000Y-95038333D01*
X127669122Y-95073302D01*
X127718773Y-95210993D01*
X127719667Y-95250000D01*
X127703535Y-95381386D01*
X127624685Y-95443122D01*
X127437435Y-95460998D01*
X127344714Y-95461666D01*
X127045388Y-95427992D01*
X126846118Y-95337428D01*
X126836714Y-95328619D01*
X126751576Y-95166920D01*
X126709924Y-94881442D01*
X126703667Y-94645719D01*
X126716768Y-94249363D01*
X126769129Y-93992341D01*
X126880338Y-93845800D01*
X127069984Y-93780888D01*
X127299312Y-93768333D01*
X127549636Y-93775535D01*
G36*
X128758980Y-93781764D02*
G01*
X128968841Y-93828885D01*
X129100589Y-93919934D01*
X129103545Y-93923166D01*
X129206740Y-94124912D01*
X129240947Y-94376610D01*
X129200876Y-94598544D01*
X129153209Y-94671591D01*
X129113686Y-94799060D01*
X129173517Y-95025236D01*
X129195542Y-95079864D01*
X129278827Y-95286316D01*
X129325025Y-95414665D01*
X129328334Y-95429673D01*
X129253716Y-95450718D01*
X129069962Y-95461352D01*
X129027913Y-95461666D01*
X128809401Y-95437140D01*
X128681467Y-95330543D01*
X128607894Y-95186500D01*
X128488295Y-94911333D01*
X128484981Y-95186500D01*
X128467868Y-95371174D01*
X128387806Y-95446884D01*
X128192490Y-95461662D01*
X128185334Y-95461666D01*
X127889000Y-95461666D01*
X127889000Y-94313669D01*
X128481667Y-94313669D01*
X128509569Y-94435998D01*
X128582881Y-94399328D01*
X128605051Y-94366850D01*
X128594434Y-94258110D01*
X128567715Y-94234853D01*
X128494085Y-94253248D01*
X128481667Y-94313669D01*
X127889000Y-94313669D01*
X127889000Y-93768333D01*
X128426211Y-93768333D01*
X128758980Y-93781764D01*
G37*
X128758980Y-93781764D02*
X128968841Y-93828885D01*
X129100589Y-93919934D01*
X129103545Y-93923166D01*
X129206740Y-94124912D01*
X129240947Y-94376610D01*
X129200876Y-94598544D01*
X129153209Y-94671591D01*
X129113686Y-94799060D01*
X129173517Y-95025236D01*
X129195542Y-95079864D01*
X129278827Y-95286316D01*
X129325025Y-95414665D01*
X129328334Y-95429673D01*
X129253716Y-95450718D01*
X129069962Y-95461352D01*
X129027913Y-95461666D01*
X128809401Y-95437140D01*
X128681467Y-95330543D01*
X128607894Y-95186500D01*
X128488295Y-94911333D01*
X128484981Y-95186500D01*
X128467868Y-95371174D01*
X128387806Y-95446884D01*
X128192490Y-95461662D01*
X128185334Y-95461666D01*
X127889000Y-95461666D01*
X127889000Y-94313669D01*
X128481667Y-94313669D01*
X128509569Y-94435998D01*
X128582881Y-94399328D01*
X128605051Y-94366850D01*
X128594434Y-94258110D01*
X128567715Y-94234853D01*
X128494085Y-94253248D01*
X128481667Y-94313669D01*
X127889000Y-94313669D01*
X127889000Y-93768333D01*
X128426211Y-93768333D01*
X128758980Y-93781764D01*
G36*
X119272500Y-90909968D02*
G01*
X119473919Y-90988723D01*
X119625796Y-91116219D01*
X119767855Y-91297175D01*
X119828346Y-91453605D01*
X119827117Y-91476053D01*
X119732208Y-91596249D01*
X119548219Y-91635103D01*
X119335056Y-91591751D01*
X119171522Y-91485521D01*
X119013777Y-91367778D01*
X118869008Y-91378679D01*
X118827726Y-91398705D01*
X118698451Y-91548534D01*
X118659295Y-91762372D01*
X118712166Y-91965625D01*
X118810687Y-92064842D01*
X119000186Y-92095327D01*
X119170852Y-92020725D01*
X119252426Y-91873711D01*
X119253000Y-91859126D01*
X119323701Y-91766918D01*
X119542915Y-91736346D01*
X119549334Y-91736333D01*
X119752651Y-91754619D01*
X119835050Y-91827745D01*
X119845667Y-91912179D01*
X119788297Y-92081814D01*
X119645755Y-92284654D01*
X119598180Y-92335512D01*
X119396270Y-92500005D01*
X119177805Y-92571080D01*
X118956667Y-92583000D01*
X118671275Y-92559498D01*
X118465541Y-92466922D01*
X118315154Y-92335512D01*
X118137126Y-92106755D01*
X118071527Y-91850770D01*
X118067667Y-91736333D01*
X118103365Y-91447648D01*
X118237341Y-91220452D01*
X118315154Y-91137153D01*
X118505912Y-90978725D01*
X118708940Y-90906147D01*
X118980942Y-90889666D01*
X119272500Y-90909968D01*
G37*
X119272500Y-90909968D02*
X119473919Y-90988723D01*
X119625796Y-91116219D01*
X119767855Y-91297175D01*
X119828346Y-91453605D01*
X119827117Y-91476053D01*
X119732208Y-91596249D01*
X119548219Y-91635103D01*
X119335056Y-91591751D01*
X119171522Y-91485521D01*
X119013777Y-91367778D01*
X118869008Y-91378679D01*
X118827726Y-91398705D01*
X118698451Y-91548534D01*
X118659295Y-91762372D01*
X118712166Y-91965625D01*
X118810687Y-92064842D01*
X119000186Y-92095327D01*
X119170852Y-92020725D01*
X119252426Y-91873711D01*
X119253000Y-91859126D01*
X119323701Y-91766918D01*
X119542915Y-91736346D01*
X119549334Y-91736333D01*
X119752651Y-91754619D01*
X119835050Y-91827745D01*
X119845667Y-91912179D01*
X119788297Y-92081814D01*
X119645755Y-92284654D01*
X119598180Y-92335512D01*
X119396270Y-92500005D01*
X119177805Y-92571080D01*
X118956667Y-92583000D01*
X118671275Y-92559498D01*
X118465541Y-92466922D01*
X118315154Y-92335512D01*
X118137126Y-92106755D01*
X118071527Y-91850770D01*
X118067667Y-91736333D01*
X118103365Y-91447648D01*
X118237341Y-91220452D01*
X118315154Y-91137153D01*
X118505912Y-90978725D01*
X118708940Y-90906147D01*
X118980942Y-90889666D01*
X119272500Y-90909968D01*
G36*
X121232331Y-90932957D02*
G01*
X121532504Y-91108859D01*
X121696784Y-91273079D01*
X121773145Y-91448037D01*
X121792924Y-91709221D01*
X121793000Y-91736333D01*
X121776420Y-92007764D01*
X121705786Y-92186879D01*
X121549761Y-92349165D01*
X121532504Y-92363807D01*
X121195108Y-92550526D01*
X120828534Y-92593514D01*
X120478071Y-92493778D01*
X120262487Y-92335512D01*
X120084460Y-92106755D01*
X120018860Y-91850770D01*
X120015000Y-91736333D01*
X120607667Y-91736333D01*
X120666089Y-91967266D01*
X120815207Y-92091882D01*
X121015801Y-92081052D01*
X121049980Y-92064842D01*
X121170139Y-91913126D01*
X121200334Y-91736333D01*
X121147350Y-91509747D01*
X121049980Y-91407824D01*
X120844799Y-91372671D01*
X120684830Y-91477616D01*
X120609296Y-91693528D01*
X120607667Y-91736333D01*
X120015000Y-91736333D01*
X120087058Y-91385014D01*
X120279867Y-91114526D01*
X120558380Y-90939359D01*
X120887550Y-90874006D01*
X121232331Y-90932957D01*
G37*
X121232331Y-90932957D02*
X121532504Y-91108859D01*
X121696784Y-91273079D01*
X121773145Y-91448037D01*
X121792924Y-91709221D01*
X121793000Y-91736333D01*
X121776420Y-92007764D01*
X121705786Y-92186879D01*
X121549761Y-92349165D01*
X121532504Y-92363807D01*
X121195108Y-92550526D01*
X120828534Y-92593514D01*
X120478071Y-92493778D01*
X120262487Y-92335512D01*
X120084460Y-92106755D01*
X120018860Y-91850770D01*
X120015000Y-91736333D01*
X120607667Y-91736333D01*
X120666089Y-91967266D01*
X120815207Y-92091882D01*
X121015801Y-92081052D01*
X121049980Y-92064842D01*
X121170139Y-91913126D01*
X121200334Y-91736333D01*
X121147350Y-91509747D01*
X121049980Y-91407824D01*
X120844799Y-91372671D01*
X120684830Y-91477616D01*
X120609296Y-91693528D01*
X120607667Y-91736333D01*
X120015000Y-91736333D01*
X120087058Y-91385014D01*
X120279867Y-91114526D01*
X120558380Y-90939359D01*
X120887550Y-90874006D01*
X121232331Y-90932957D01*
G36*
X122555000Y-91442657D02*
G01*
X122566377Y-91769622D01*
X122604832Y-91959246D01*
X122676853Y-92042266D01*
X122682000Y-92044382D01*
X122776766Y-92159206D01*
X122809000Y-92338058D01*
X122785445Y-92514121D01*
X122681020Y-92576559D01*
X122576167Y-92581703D01*
X122365995Y-92558689D01*
X122242797Y-92516480D01*
X122103425Y-92336516D01*
X122008659Y-92015537D01*
X121964696Y-91577449D01*
X121962334Y-91434488D01*
X121962334Y-90889666D01*
X122555000Y-90889666D01*
X122555000Y-91442657D01*
G37*
X122555000Y-91442657D02*
X122566377Y-91769622D01*
X122604832Y-91959246D01*
X122676853Y-92042266D01*
X122682000Y-92044382D01*
X122776766Y-92159206D01*
X122809000Y-92338058D01*
X122785445Y-92514121D01*
X122681020Y-92576559D01*
X122576167Y-92581703D01*
X122365995Y-92558689D01*
X122242797Y-92516480D01*
X122103425Y-92336516D01*
X122008659Y-92015537D01*
X121964696Y-91577449D01*
X121962334Y-91434488D01*
X121962334Y-90889666D01*
X122555000Y-90889666D01*
X122555000Y-91442657D01*
G36*
X124026331Y-90932957D02*
G01*
X124326504Y-91108859D01*
X124490784Y-91273079D01*
X124567145Y-91448037D01*
X124586924Y-91709221D01*
X124587000Y-91736333D01*
X124570420Y-92007764D01*
X124499786Y-92186879D01*
X124343761Y-92349165D01*
X124326504Y-92363807D01*
X123989108Y-92550526D01*
X123622534Y-92593514D01*
X123272071Y-92493778D01*
X123056487Y-92335512D01*
X122878460Y-92106755D01*
X122812860Y-91850770D01*
X122809000Y-91736333D01*
X123401667Y-91736333D01*
X123460089Y-91967266D01*
X123609207Y-92091882D01*
X123809801Y-92081052D01*
X123843980Y-92064842D01*
X123964139Y-91913126D01*
X123994334Y-91736333D01*
X123941350Y-91509747D01*
X123843980Y-91407824D01*
X123638799Y-91372671D01*
X123478830Y-91477616D01*
X123403296Y-91693528D01*
X123401667Y-91736333D01*
X122809000Y-91736333D01*
X122881058Y-91385014D01*
X123073867Y-91114526D01*
X123352380Y-90939359D01*
X123681550Y-90874006D01*
X124026331Y-90932957D01*
G37*
X124026331Y-90932957D02*
X124326504Y-91108859D01*
X124490784Y-91273079D01*
X124567145Y-91448037D01*
X124586924Y-91709221D01*
X124587000Y-91736333D01*
X124570420Y-92007764D01*
X124499786Y-92186879D01*
X124343761Y-92349165D01*
X124326504Y-92363807D01*
X123989108Y-92550526D01*
X123622534Y-92593514D01*
X123272071Y-92493778D01*
X123056487Y-92335512D01*
X122878460Y-92106755D01*
X122812860Y-91850770D01*
X122809000Y-91736333D01*
X123401667Y-91736333D01*
X123460089Y-91967266D01*
X123609207Y-92091882D01*
X123809801Y-92081052D01*
X123843980Y-92064842D01*
X123964139Y-91913126D01*
X123994334Y-91736333D01*
X123941350Y-91509747D01*
X123843980Y-91407824D01*
X123638799Y-91372671D01*
X123478830Y-91477616D01*
X123403296Y-91693528D01*
X123401667Y-91736333D01*
X122809000Y-91736333D01*
X122881058Y-91385014D01*
X123073867Y-91114526D01*
X123352380Y-90939359D01*
X123681550Y-90874006D01*
X124026331Y-90932957D01*
G36*
X125349000Y-91482333D02*
G01*
X125360187Y-91786357D01*
X125390171Y-91996434D01*
X125433585Y-92074999D01*
X125433667Y-92075000D01*
X125477099Y-91996690D01*
X125507110Y-91786804D01*
X125518333Y-91482908D01*
X125518334Y-91482333D01*
X125518334Y-90889666D01*
X126111000Y-90889666D01*
X126111000Y-91487899D01*
X126081932Y-91970301D01*
X125992375Y-92305858D01*
X125838806Y-92507189D01*
X125823159Y-92518203D01*
X125659838Y-92564773D01*
X125415605Y-92578434D01*
X125175617Y-92559375D01*
X125036797Y-92516480D01*
X124897425Y-92336516D01*
X124802659Y-92015537D01*
X124758696Y-91577449D01*
X124756334Y-91434488D01*
X124756334Y-90889666D01*
X125349000Y-90889666D01*
X125349000Y-91482333D01*
G37*
X125349000Y-91482333D02*
X125360187Y-91786357D01*
X125390171Y-91996434D01*
X125433585Y-92074999D01*
X125433667Y-92075000D01*
X125477099Y-91996690D01*
X125507110Y-91786804D01*
X125518333Y-91482908D01*
X125518334Y-91482333D01*
X125518334Y-90889666D01*
X126111000Y-90889666D01*
X126111000Y-91487899D01*
X126081932Y-91970301D01*
X125992375Y-92305858D01*
X125838806Y-92507189D01*
X125823159Y-92518203D01*
X125659838Y-92564773D01*
X125415605Y-92578434D01*
X125175617Y-92559375D01*
X125036797Y-92516480D01*
X124897425Y-92336516D01*
X124802659Y-92015537D01*
X124758696Y-91577449D01*
X124756334Y-91434488D01*
X124756334Y-90889666D01*
X125349000Y-90889666D01*
X125349000Y-91482333D01*
G36*
X127198303Y-90904714D02*
G01*
X127408414Y-90958553D01*
X127550334Y-91059000D01*
X127686362Y-91280664D01*
X127709778Y-91521116D01*
X127615902Y-91715863D01*
X127599091Y-91731001D01*
X127527374Y-91820805D01*
X127534810Y-91947122D01*
X127599091Y-92119649D01*
X127693556Y-92375515D01*
X127696981Y-92515363D01*
X127597013Y-92573113D01*
X127430389Y-92583000D01*
X127216310Y-92556536D01*
X127099646Y-92449207D01*
X127056073Y-92350166D01*
X126971035Y-92117333D01*
X126964351Y-92350166D01*
X126940146Y-92507252D01*
X126845353Y-92571524D01*
X126661334Y-92583000D01*
X126365000Y-92583000D01*
X126365000Y-91447055D01*
X126873000Y-91447055D01*
X126922354Y-91539773D01*
X127023904Y-91524989D01*
X127107597Y-91413541D01*
X127070748Y-91327175D01*
X127007056Y-91313000D01*
X126890424Y-91381169D01*
X126873000Y-91447055D01*
X126365000Y-91447055D01*
X126365000Y-90889666D01*
X126873000Y-90889666D01*
X127198303Y-90904714D01*
G37*
X127198303Y-90904714D02*
X127408414Y-90958553D01*
X127550334Y-91059000D01*
X127686362Y-91280664D01*
X127709778Y-91521116D01*
X127615902Y-91715863D01*
X127599091Y-91731001D01*
X127527374Y-91820805D01*
X127534810Y-91947122D01*
X127599091Y-92119649D01*
X127693556Y-92375515D01*
X127696981Y-92515363D01*
X127597013Y-92573113D01*
X127430389Y-92583000D01*
X127216310Y-92556536D01*
X127099646Y-92449207D01*
X127056073Y-92350166D01*
X126971035Y-92117333D01*
X126964351Y-92350166D01*
X126940146Y-92507252D01*
X126845353Y-92571524D01*
X126661334Y-92583000D01*
X126365000Y-92583000D01*
X126365000Y-91447055D01*
X126873000Y-91447055D01*
X126922354Y-91539773D01*
X127023904Y-91524989D01*
X127107597Y-91413541D01*
X127070748Y-91327175D01*
X127007056Y-91313000D01*
X126890424Y-91381169D01*
X126873000Y-91447055D01*
X126365000Y-91447055D01*
X126365000Y-90889666D01*
X126873000Y-90889666D01*
X127198303Y-90904714D01*
G36*
X125184411Y-86161459D02*
G01*
X125335381Y-86217727D01*
X125388426Y-86363147D01*
X125391334Y-86444666D01*
X125365206Y-86630741D01*
X125255691Y-86709121D01*
X125164195Y-86724907D01*
X124946553Y-86692813D01*
X124849975Y-86588436D01*
X124817607Y-86386746D01*
X124917385Y-86227366D01*
X125112194Y-86157680D01*
X125184411Y-86161459D01*
G37*
X125184411Y-86161459D02*
X125335381Y-86217727D01*
X125388426Y-86363147D01*
X125391334Y-86444666D01*
X125365206Y-86630741D01*
X125255691Y-86709121D01*
X125164195Y-86724907D01*
X124946553Y-86692813D01*
X124849975Y-86588436D01*
X124817607Y-86386746D01*
X124917385Y-86227366D01*
X125112194Y-86157680D01*
X125184411Y-86161459D01*
G36*
X125303315Y-85341353D02*
G01*
X125349000Y-85471000D01*
X125299391Y-85603784D01*
X125137334Y-85640333D01*
X124971352Y-85600646D01*
X124925667Y-85471000D01*
X124975276Y-85338215D01*
X125137334Y-85301666D01*
X125303315Y-85341353D01*
G37*
X125303315Y-85341353D02*
X125349000Y-85471000D01*
X125299391Y-85603784D01*
X125137334Y-85640333D01*
X124971352Y-85600646D01*
X124925667Y-85471000D01*
X124975276Y-85338215D01*
X125137334Y-85301666D01*
X125303315Y-85341353D01*
G36*
X127367783Y-85480650D02*
G01*
X127431159Y-85535104D01*
X127458841Y-85672619D01*
X127465545Y-85931450D01*
X127465667Y-86021333D01*
X127461955Y-86317168D01*
X127441011Y-86481945D01*
X127388121Y-86553920D01*
X127288570Y-86571349D01*
X127254000Y-86571666D01*
X127140217Y-86562016D01*
X127076842Y-86507562D01*
X127049159Y-86370047D01*
X127042456Y-86111215D01*
X127042334Y-86021333D01*
X127046045Y-85725497D01*
X127066989Y-85560721D01*
X127119879Y-85488746D01*
X127219430Y-85471317D01*
X127254000Y-85471000D01*
X127367783Y-85480650D01*
G37*
X127367783Y-85480650D02*
X127431159Y-85535104D01*
X127458841Y-85672619D01*
X127465545Y-85931450D01*
X127465667Y-86021333D01*
X127461955Y-86317168D01*
X127441011Y-86481945D01*
X127388121Y-86553920D01*
X127288570Y-86571349D01*
X127254000Y-86571666D01*
X127140217Y-86562016D01*
X127076842Y-86507562D01*
X127049159Y-86370047D01*
X127042456Y-86111215D01*
X127042334Y-86021333D01*
X127046045Y-85725497D01*
X127066989Y-85560721D01*
X127119879Y-85488746D01*
X127219430Y-85471317D01*
X127254000Y-85471000D01*
X127367783Y-85480650D01*
G36*
X118454791Y-79305608D02*
G01*
X118686983Y-79356981D01*
X118845184Y-79482588D01*
X118941525Y-79707150D01*
X118988135Y-80055386D01*
X118997752Y-80412166D01*
X118999000Y-81068333D01*
X118702667Y-81068333D01*
X118502269Y-81052519D01*
X118420229Y-80981353D01*
X118406334Y-80856666D01*
X118362173Y-80686428D01*
X118279334Y-80645000D01*
X118177190Y-80718600D01*
X118152334Y-80856666D01*
X118130193Y-80999808D01*
X118030562Y-81058407D01*
X117856000Y-81068333D01*
X117559667Y-81068333D01*
X117559667Y-80437317D01*
X117579324Y-79960291D01*
X117582228Y-79946500D01*
X118167612Y-79946500D01*
X118188138Y-80101747D01*
X118279334Y-80137000D01*
X118384129Y-80078557D01*
X118391055Y-79946500D01*
X118337905Y-79797606D01*
X118279334Y-79756000D01*
X118202932Y-79828010D01*
X118167612Y-79946500D01*
X117582228Y-79946500D01*
X117649205Y-79628487D01*
X117785678Y-79421213D01*
X118005107Y-79317777D01*
X118323860Y-79297488D01*
X118454791Y-79305608D01*
G37*
X118454791Y-79305608D02*
X118686983Y-79356981D01*
X118845184Y-79482588D01*
X118941525Y-79707150D01*
X118988135Y-80055386D01*
X118997752Y-80412166D01*
X118999000Y-81068333D01*
X118702667Y-81068333D01*
X118502269Y-81052519D01*
X118420229Y-80981353D01*
X118406334Y-80856666D01*
X118362173Y-80686428D01*
X118279334Y-80645000D01*
X118177190Y-80718600D01*
X118152334Y-80856666D01*
X118130193Y-80999808D01*
X118030562Y-81058407D01*
X117856000Y-81068333D01*
X117559667Y-81068333D01*
X117559667Y-80437317D01*
X117579324Y-79960291D01*
X117582228Y-79946500D01*
X118167612Y-79946500D01*
X118188138Y-80101747D01*
X118279334Y-80137000D01*
X118384129Y-80078557D01*
X118391055Y-79946500D01*
X118337905Y-79797606D01*
X118279334Y-79756000D01*
X118202932Y-79828010D01*
X118167612Y-79946500D01*
X117582228Y-79946500D01*
X117649205Y-79628487D01*
X117785678Y-79421213D01*
X118005107Y-79317777D01*
X118323860Y-79297488D01*
X118454791Y-79305608D01*
G36*
X120316575Y-79337532D02*
G01*
X120687388Y-79480492D01*
X120922790Y-79721255D01*
X121025590Y-80061864D01*
X121031000Y-80179333D01*
X120966043Y-80549213D01*
X120769299Y-80818655D01*
X120437955Y-80989704D01*
X119969202Y-81064402D01*
X119807538Y-81068333D01*
X119253000Y-81068333D01*
X119253000Y-80179333D01*
X119845667Y-80179333D01*
X119852239Y-80415729D01*
X119886298Y-80520820D01*
X119969355Y-80532526D01*
X120036167Y-80515156D01*
X120235960Y-80412296D01*
X120332500Y-80323935D01*
X120420063Y-80186969D01*
X120438334Y-80131184D01*
X120365054Y-80017509D01*
X120180921Y-79901376D01*
X120036167Y-79845323D01*
X119920474Y-79823246D01*
X119864552Y-79875824D01*
X119846882Y-80040785D01*
X119845667Y-80179333D01*
X119253000Y-80179333D01*
X119253000Y-79290333D01*
X119807538Y-79290333D01*
X120316575Y-79337532D01*
G37*
X120316575Y-79337532D02*
X120687388Y-79480492D01*
X120922790Y-79721255D01*
X121025590Y-80061864D01*
X121031000Y-80179333D01*
X120966043Y-80549213D01*
X120769299Y-80818655D01*
X120437955Y-80989704D01*
X119969202Y-81064402D01*
X119807538Y-81068333D01*
X119253000Y-81068333D01*
X119253000Y-80179333D01*
X119845667Y-80179333D01*
X119852239Y-80415729D01*
X119886298Y-80520820D01*
X119969355Y-80532526D01*
X120036167Y-80515156D01*
X120235960Y-80412296D01*
X120332500Y-80323935D01*
X120420063Y-80186969D01*
X120438334Y-80131184D01*
X120365054Y-80017509D01*
X120180921Y-79901376D01*
X120036167Y-79845323D01*
X119920474Y-79823246D01*
X119864552Y-79875824D01*
X119846882Y-80040785D01*
X119845667Y-80179333D01*
X119253000Y-80179333D01*
X119253000Y-79290333D01*
X119807538Y-79290333D01*
X120316575Y-79337532D01*
G36*
X122010791Y-79305608D02*
G01*
X122242983Y-79356981D01*
X122401184Y-79482588D01*
X122497525Y-79707150D01*
X122544135Y-80055386D01*
X122553752Y-80412166D01*
X122555000Y-81068333D01*
X122258667Y-81068333D01*
X122058269Y-81052519D01*
X121976229Y-80981353D01*
X121962334Y-80856666D01*
X121916770Y-80684585D01*
X121830012Y-80645000D01*
X121729652Y-80709189D01*
X121724178Y-80835500D01*
X121718402Y-80963279D01*
X121624737Y-81025710D01*
X121433167Y-81052277D01*
X121115667Y-81078555D01*
X121115667Y-80442428D01*
X121133428Y-80005527D01*
X121723292Y-80005527D01*
X121764199Y-80118493D01*
X121835334Y-80137000D01*
X121942089Y-80076134D01*
X121946215Y-79988833D01*
X121875648Y-79869555D01*
X121778646Y-79890150D01*
X121723292Y-80005527D01*
X121133428Y-80005527D01*
X121135107Y-79964251D01*
X121204302Y-79631358D01*
X121339560Y-79423035D01*
X121557192Y-79318568D01*
X121873509Y-79297243D01*
X122010791Y-79305608D01*
G37*
X122010791Y-79305608D02*
X122242983Y-79356981D01*
X122401184Y-79482588D01*
X122497525Y-79707150D01*
X122544135Y-80055386D01*
X122553752Y-80412166D01*
X122555000Y-81068333D01*
X122258667Y-81068333D01*
X122058269Y-81052519D01*
X121976229Y-80981353D01*
X121962334Y-80856666D01*
X121916770Y-80684585D01*
X121830012Y-80645000D01*
X121729652Y-80709189D01*
X121724178Y-80835500D01*
X121718402Y-80963279D01*
X121624737Y-81025710D01*
X121433167Y-81052277D01*
X121115667Y-81078555D01*
X121115667Y-80442428D01*
X121133428Y-80005527D01*
X121723292Y-80005527D01*
X121764199Y-80118493D01*
X121835334Y-80137000D01*
X121942089Y-80076134D01*
X121946215Y-79988833D01*
X121875648Y-79869555D01*
X121778646Y-79890150D01*
X121723292Y-80005527D01*
X121133428Y-80005527D01*
X121135107Y-79964251D01*
X121204302Y-79631358D01*
X121339560Y-79423035D01*
X121557192Y-79318568D01*
X121873509Y-79297243D01*
X122010791Y-79305608D01*
G36*
X126533924Y-79296057D02*
G01*
X126657323Y-79331000D01*
X126699256Y-79421818D01*
X126703667Y-79544333D01*
X126681167Y-79725582D01*
X126584229Y-79791994D01*
X126487003Y-79798333D01*
X126342953Y-79825209D01*
X126322667Y-79883000D01*
X126442087Y-79954125D01*
X126539330Y-79967666D01*
X126668958Y-80019982D01*
X126703667Y-80179333D01*
X126668697Y-80340455D01*
X126531007Y-80390106D01*
X126492000Y-80391000D01*
X126332885Y-80419982D01*
X126280334Y-80475666D01*
X126352790Y-80539312D01*
X126492000Y-80560333D01*
X126643272Y-80587670D01*
X126698612Y-80703878D01*
X126703667Y-80814333D01*
X126694235Y-80965319D01*
X126636658Y-81040208D01*
X126487010Y-81065656D01*
X126285134Y-81068333D01*
X125963116Y-81031855D01*
X125754920Y-80907014D01*
X125641397Y-80670700D01*
X125603395Y-80299801D01*
X125603000Y-80245161D01*
X125596950Y-79985261D01*
X125565457Y-79852364D01*
X125488511Y-79804226D01*
X125391334Y-79798333D01*
X125283671Y-79806247D01*
X125220562Y-79853767D01*
X125190116Y-79976561D01*
X125180445Y-80210299D01*
X125179667Y-80433333D01*
X125179667Y-81068333D01*
X124587000Y-81068333D01*
X124587000Y-80433333D01*
X124583782Y-80109957D01*
X124567026Y-79920476D01*
X124526076Y-79829478D01*
X124450278Y-79801550D01*
X124396500Y-79800165D01*
X124212805Y-79875210D01*
X124079000Y-80073833D01*
X123916255Y-80297981D01*
X123676834Y-80399974D01*
X123489486Y-80424301D01*
X123414770Y-80373141D01*
X123401667Y-80227906D01*
X123437604Y-80019569D01*
X123503267Y-79899933D01*
X123551535Y-79818851D01*
X123452125Y-79798333D01*
X123375203Y-79814487D01*
X123334408Y-79886072D01*
X123323863Y-80047768D01*
X123337694Y-80334257D01*
X123344548Y-80433333D01*
X123389713Y-81068333D01*
X122724334Y-81068333D01*
X122724334Y-80402418D01*
X122748234Y-79934902D01*
X122828795Y-79610615D01*
X122979307Y-79409100D01*
X123213061Y-79309899D01*
X123446847Y-79290333D01*
X123748494Y-79323919D01*
X123953904Y-79438767D01*
X123991035Y-79475631D01*
X124163667Y-79660929D01*
X124163667Y-79475631D01*
X124173903Y-79385767D01*
X124226866Y-79330904D01*
X124355935Y-79302447D01*
X124594491Y-79291801D01*
X124883334Y-79290333D01*
X125232247Y-79292885D01*
X125445250Y-79306365D01*
X125555753Y-79339509D01*
X125597164Y-79401052D01*
X125603000Y-79478505D01*
X125603000Y-79666677D01*
X125734801Y-79478505D01*
X125856102Y-79358596D01*
X126036643Y-79302548D01*
X126285134Y-79290333D01*
X126533924Y-79296057D01*
G37*
X126533924Y-79296057D02*
X126657323Y-79331000D01*
X126699256Y-79421818D01*
X126703667Y-79544333D01*
X126681167Y-79725582D01*
X126584229Y-79791994D01*
X126487003Y-79798333D01*
X126342953Y-79825209D01*
X126322667Y-79883000D01*
X126442087Y-79954125D01*
X126539330Y-79967666D01*
X126668958Y-80019982D01*
X126703667Y-80179333D01*
X126668697Y-80340455D01*
X126531007Y-80390106D01*
X126492000Y-80391000D01*
X126332885Y-80419982D01*
X126280334Y-80475666D01*
X126352790Y-80539312D01*
X126492000Y-80560333D01*
X126643272Y-80587670D01*
X126698612Y-80703878D01*
X126703667Y-80814333D01*
X126694235Y-80965319D01*
X126636658Y-81040208D01*
X126487010Y-81065656D01*
X126285134Y-81068333D01*
X125963116Y-81031855D01*
X125754920Y-80907014D01*
X125641397Y-80670700D01*
X125603395Y-80299801D01*
X125603000Y-80245161D01*
X125596950Y-79985261D01*
X125565457Y-79852364D01*
X125488511Y-79804226D01*
X125391334Y-79798333D01*
X125283671Y-79806247D01*
X125220562Y-79853767D01*
X125190116Y-79976561D01*
X125180445Y-80210299D01*
X125179667Y-80433333D01*
X125179667Y-81068333D01*
X124587000Y-81068333D01*
X124587000Y-80433333D01*
X124583782Y-80109957D01*
X124567026Y-79920476D01*
X124526076Y-79829478D01*
X124450278Y-79801550D01*
X124396500Y-79800165D01*
X124212805Y-79875210D01*
X124079000Y-80073833D01*
X123916255Y-80297981D01*
X123676834Y-80399974D01*
X123489486Y-80424301D01*
X123414770Y-80373141D01*
X123401667Y-80227906D01*
X123437604Y-80019569D01*
X123503267Y-79899933D01*
X123551535Y-79818851D01*
X123452125Y-79798333D01*
X123375203Y-79814487D01*
X123334408Y-79886072D01*
X123323863Y-80047768D01*
X123337694Y-80334257D01*
X123344548Y-80433333D01*
X123389713Y-81068333D01*
X122724334Y-81068333D01*
X122724334Y-80402418D01*
X122748234Y-79934902D01*
X122828795Y-79610615D01*
X122979307Y-79409100D01*
X123213061Y-79309899D01*
X123446847Y-79290333D01*
X123748494Y-79323919D01*
X123953904Y-79438767D01*
X123991035Y-79475631D01*
X124163667Y-79660929D01*
X124163667Y-79475631D01*
X124173903Y-79385767D01*
X124226866Y-79330904D01*
X124355935Y-79302447D01*
X124594491Y-79291801D01*
X124883334Y-79290333D01*
X125232247Y-79292885D01*
X125445250Y-79306365D01*
X125555753Y-79339509D01*
X125597164Y-79401052D01*
X125603000Y-79478505D01*
X125603000Y-79666677D01*
X125734801Y-79478505D01*
X125856102Y-79358596D01*
X126036643Y-79302548D01*
X126285134Y-79290333D01*
X126533924Y-79296057D01*
G36*
X127808508Y-79297883D02*
G01*
X127999102Y-79331485D01*
X128126636Y-79407568D01*
X128221522Y-79513418D01*
X128370742Y-79770878D01*
X128370473Y-80003247D01*
X128266710Y-80200670D01*
X128185619Y-80347831D01*
X128195879Y-80484734D01*
X128266710Y-80638638D01*
X128372597Y-80877704D01*
X128369134Y-81008667D01*
X128244903Y-81061565D01*
X128103371Y-81068333D01*
X127872247Y-81035137D01*
X127726759Y-80907693D01*
X127683427Y-80835500D01*
X127557113Y-80602666D01*
X127553723Y-80835500D01*
X127532120Y-80992450D01*
X127439374Y-81056732D01*
X127254000Y-81068333D01*
X126957667Y-81068333D01*
X126957667Y-79925333D01*
X127550334Y-79925333D01*
X127593293Y-80030706D01*
X127641350Y-80036105D01*
X127728825Y-79948697D01*
X127732367Y-79925333D01*
X127666452Y-79826058D01*
X127641350Y-79814561D01*
X127564148Y-79855431D01*
X127550334Y-79925333D01*
X126957667Y-79925333D01*
X126957667Y-79290333D01*
X127501855Y-79290333D01*
X127808508Y-79297883D01*
G37*
X127808508Y-79297883D02*
X127999102Y-79331485D01*
X128126636Y-79407568D01*
X128221522Y-79513418D01*
X128370742Y-79770878D01*
X128370473Y-80003247D01*
X128266710Y-80200670D01*
X128185619Y-80347831D01*
X128195879Y-80484734D01*
X128266710Y-80638638D01*
X128372597Y-80877704D01*
X128369134Y-81008667D01*
X128244903Y-81061565D01*
X128103371Y-81068333D01*
X127872247Y-81035137D01*
X127726759Y-80907693D01*
X127683427Y-80835500D01*
X127557113Y-80602666D01*
X127553723Y-80835500D01*
X127532120Y-80992450D01*
X127439374Y-81056732D01*
X127254000Y-81068333D01*
X126957667Y-81068333D01*
X126957667Y-79925333D01*
X127550334Y-79925333D01*
X127593293Y-80030706D01*
X127641350Y-80036105D01*
X127728825Y-79948697D01*
X127732367Y-79925333D01*
X127666452Y-79826058D01*
X127641350Y-79814561D01*
X127564148Y-79855431D01*
X127550334Y-79925333D01*
X126957667Y-79925333D01*
X126957667Y-79290333D01*
X127501855Y-79290333D01*
X127808508Y-79297883D01*
G36*
X117983000Y-76788682D02*
G01*
X117958633Y-77276681D01*
X117882273Y-77616586D01*
X117749031Y-77822950D01*
X117610318Y-77898423D01*
X117390668Y-77960640D01*
X117284500Y-77990423D01*
X117183883Y-77987706D01*
X117142117Y-77878260D01*
X117136334Y-77734702D01*
X117158353Y-77521806D01*
X117212240Y-77392337D01*
X117221000Y-77385333D01*
X117263256Y-77280271D01*
X117293601Y-77054209D01*
X117305655Y-76755391D01*
X117305667Y-76745336D01*
X117305667Y-76157666D01*
X117983000Y-76157666D01*
X117983000Y-76788682D01*
G37*
X117983000Y-76788682D02*
X117958633Y-77276681D01*
X117882273Y-77616586D01*
X117749031Y-77822950D01*
X117610318Y-77898423D01*
X117390668Y-77960640D01*
X117284500Y-77990423D01*
X117183883Y-77987706D01*
X117142117Y-77878260D01*
X117136334Y-77734702D01*
X117158353Y-77521806D01*
X117212240Y-77392337D01*
X117221000Y-77385333D01*
X117263256Y-77280271D01*
X117293601Y-77054209D01*
X117305655Y-76755391D01*
X117305667Y-76745336D01*
X117305667Y-76157666D01*
X117983000Y-76157666D01*
X117983000Y-76788682D01*
G36*
X119497204Y-76223653D02*
G01*
X119807513Y-76423250D01*
X120013131Y-76745820D01*
X120075486Y-77092978D01*
X119969614Y-77429437D01*
X119763177Y-77692515D01*
X119570758Y-77850239D01*
X119361879Y-77921170D01*
X119109019Y-77935666D01*
X118784825Y-77903140D01*
X118532932Y-77817593D01*
X118500895Y-77797601D01*
X118259541Y-77535691D01*
X118131330Y-77198370D01*
X118135609Y-76945778D01*
X118760166Y-76945778D01*
X118762199Y-77186219D01*
X118886938Y-77310400D01*
X119104251Y-77327241D01*
X119295199Y-77289149D01*
X119369405Y-77190720D01*
X119380000Y-77046666D01*
X119363379Y-76875781D01*
X119279231Y-76805868D01*
X119084826Y-76792666D01*
X118864453Y-76820388D01*
X118768183Y-76915448D01*
X118760166Y-76945778D01*
X118135609Y-76945778D01*
X118137284Y-76846950D01*
X118154293Y-76786730D01*
X118341981Y-76446198D01*
X118636928Y-76236667D01*
X119038913Y-76158286D01*
X119083667Y-76157666D01*
X119497204Y-76223653D01*
G37*
X119497204Y-76223653D02*
X119807513Y-76423250D01*
X120013131Y-76745820D01*
X120075486Y-77092978D01*
X119969614Y-77429437D01*
X119763177Y-77692515D01*
X119570758Y-77850239D01*
X119361879Y-77921170D01*
X119109019Y-77935666D01*
X118784825Y-77903140D01*
X118532932Y-77817593D01*
X118500895Y-77797601D01*
X118259541Y-77535691D01*
X118131330Y-77198370D01*
X118135609Y-76945778D01*
X118760166Y-76945778D01*
X118762199Y-77186219D01*
X118886938Y-77310400D01*
X119104251Y-77327241D01*
X119295199Y-77289149D01*
X119369405Y-77190720D01*
X119380000Y-77046666D01*
X119363379Y-76875781D01*
X119279231Y-76805868D01*
X119084826Y-76792666D01*
X118864453Y-76820388D01*
X118768183Y-76915448D01*
X118760166Y-76945778D01*
X118135609Y-76945778D01*
X118137284Y-76846950D01*
X118154293Y-76786730D01*
X118341981Y-76446198D01*
X118636928Y-76236667D01*
X119038913Y-76158286D01*
X119083667Y-76157666D01*
X119497204Y-76223653D01*
G36*
X121518113Y-76178139D02*
G01*
X121539000Y-76204491D01*
X121495519Y-76296827D01*
X121385919Y-76474760D01*
X121327334Y-76562812D01*
X121198755Y-76792960D01*
X121134283Y-77041042D01*
X121115718Y-77379470D01*
X121115667Y-77404987D01*
X121115667Y-77935666D01*
X120438334Y-77935666D01*
X120438334Y-77398036D01*
X120426090Y-77070749D01*
X120375246Y-76837956D01*
X120264632Y-76625718D01*
X120183802Y-76509036D01*
X119929271Y-76157666D01*
X120251536Y-76157666D01*
X120488747Y-76182899D01*
X120657999Y-76245038D01*
X120675400Y-76259266D01*
X120790614Y-76317271D01*
X120878600Y-76259266D01*
X121001367Y-76201767D01*
X121193029Y-76165417D01*
X121387355Y-76155710D01*
X121518113Y-76178139D01*
G37*
X121518113Y-76178139D02*
X121539000Y-76204491D01*
X121495519Y-76296827D01*
X121385919Y-76474760D01*
X121327334Y-76562812D01*
X121198755Y-76792960D01*
X121134283Y-77041042D01*
X121115718Y-77379470D01*
X121115667Y-77404987D01*
X121115667Y-77935666D01*
X120438334Y-77935666D01*
X120438334Y-77398036D01*
X120426090Y-77070749D01*
X120375246Y-76837956D01*
X120264632Y-76625718D01*
X120183802Y-76509036D01*
X119929271Y-76157666D01*
X120251536Y-76157666D01*
X120488747Y-76182899D01*
X120657999Y-76245038D01*
X120675400Y-76259266D01*
X120790614Y-76317271D01*
X120878600Y-76259266D01*
X121001367Y-76201767D01*
X121193029Y-76165417D01*
X121387355Y-76155710D01*
X121518113Y-76178139D01*
G36*
X123168834Y-76142154D02*
G01*
X123994334Y-76169286D01*
X123994334Y-76417476D01*
X123970267Y-76596311D01*
X123868883Y-76660501D01*
X123782667Y-76665666D01*
X123675004Y-76673580D01*
X123611895Y-76721100D01*
X123581450Y-76843895D01*
X123571778Y-77077633D01*
X123571000Y-77300666D01*
X123571000Y-77935666D01*
X122978334Y-77935666D01*
X122978334Y-76684885D01*
X122722726Y-76647370D01*
X122477430Y-76658248D01*
X122348820Y-76764330D01*
X122357247Y-76945085D01*
X122379791Y-76993355D01*
X122470787Y-77308658D01*
X122416664Y-77593320D01*
X122238274Y-77811247D01*
X121956472Y-77926350D01*
X121835334Y-77935666D01*
X121636722Y-77922560D01*
X121555269Y-77848613D01*
X121539037Y-77661888D01*
X121539000Y-77639333D01*
X121563627Y-77425592D01*
X121646563Y-77345592D01*
X121675059Y-77343000D01*
X121768063Y-77300359D01*
X121747751Y-77194833D01*
X121652382Y-76853284D01*
X121658048Y-76547209D01*
X121701147Y-76425094D01*
X121823653Y-76290590D01*
X122036307Y-76200166D01*
X122360345Y-76149728D01*
X122817004Y-76135182D01*
X123168834Y-76142154D01*
G37*
X123168834Y-76142154D02*
X123994334Y-76169286D01*
X123994334Y-76417476D01*
X123970267Y-76596311D01*
X123868883Y-76660501D01*
X123782667Y-76665666D01*
X123675004Y-76673580D01*
X123611895Y-76721100D01*
X123581450Y-76843895D01*
X123571778Y-77077633D01*
X123571000Y-77300666D01*
X123571000Y-77935666D01*
X122978334Y-77935666D01*
X122978334Y-76684885D01*
X122722726Y-76647370D01*
X122477430Y-76658248D01*
X122348820Y-76764330D01*
X122357247Y-76945085D01*
X122379791Y-76993355D01*
X122470787Y-77308658D01*
X122416664Y-77593320D01*
X122238274Y-77811247D01*
X121956472Y-77926350D01*
X121835334Y-77935666D01*
X121636722Y-77922560D01*
X121555269Y-77848613D01*
X121539037Y-77661888D01*
X121539000Y-77639333D01*
X121563627Y-77425592D01*
X121646563Y-77345592D01*
X121675059Y-77343000D01*
X121768063Y-77300359D01*
X121747751Y-77194833D01*
X121652382Y-76853284D01*
X121658048Y-76547209D01*
X121701147Y-76425094D01*
X121823653Y-76290590D01*
X122036307Y-76200166D01*
X122360345Y-76149728D01*
X122817004Y-76135182D01*
X123168834Y-76142154D01*
G36*
X124671667Y-77935666D02*
G01*
X124079000Y-77935666D01*
X124079000Y-76157666D01*
X124671667Y-76157666D01*
X124671667Y-77935666D01*
G37*
X124671667Y-77935666D02*
X124079000Y-77935666D01*
X124079000Y-76157666D01*
X124671667Y-76157666D01*
X124671667Y-77935666D01*
G36*
X126229127Y-76208471D02*
G01*
X126538349Y-76349211D01*
X126732100Y-76562373D01*
X126785641Y-76771500D01*
X126741904Y-76878220D01*
X126581004Y-76917903D01*
X126508934Y-76919666D01*
X126288341Y-76893716D01*
X126140998Y-76831015D01*
X126138248Y-76828380D01*
X125993374Y-76770440D01*
X125803814Y-76764880D01*
X125629414Y-76811297D01*
X125566399Y-76933589D01*
X125560667Y-77046666D01*
X125583000Y-77226555D01*
X125685282Y-77304081D01*
X125828597Y-77326657D01*
X126032784Y-77318749D01*
X126133964Y-77225005D01*
X126151802Y-77178491D01*
X126231385Y-77058377D01*
X126400238Y-77009381D01*
X126534129Y-77004333D01*
X126861180Y-77004333D01*
X126783915Y-77279500D01*
X126610982Y-77624733D01*
X126326020Y-77845135D01*
X125938254Y-77934074D01*
X125871118Y-77935666D01*
X125557958Y-77903235D01*
X125309098Y-77819119D01*
X125274229Y-77797601D01*
X125032874Y-77535691D01*
X124904663Y-77198370D01*
X124910618Y-76846950D01*
X124927626Y-76786730D01*
X125117375Y-76445724D01*
X125414492Y-76234132D01*
X125810538Y-76157825D01*
X125831651Y-76157666D01*
X126229127Y-76208471D01*
G37*
X126229127Y-76208471D02*
X126538349Y-76349211D01*
X126732100Y-76562373D01*
X126785641Y-76771500D01*
X126741904Y-76878220D01*
X126581004Y-76917903D01*
X126508934Y-76919666D01*
X126288341Y-76893716D01*
X126140998Y-76831015D01*
X126138248Y-76828380D01*
X125993374Y-76770440D01*
X125803814Y-76764880D01*
X125629414Y-76811297D01*
X125566399Y-76933589D01*
X125560667Y-77046666D01*
X125583000Y-77226555D01*
X125685282Y-77304081D01*
X125828597Y-77326657D01*
X126032784Y-77318749D01*
X126133964Y-77225005D01*
X126151802Y-77178491D01*
X126231385Y-77058377D01*
X126400238Y-77009381D01*
X126534129Y-77004333D01*
X126861180Y-77004333D01*
X126783915Y-77279500D01*
X126610982Y-77624733D01*
X126326020Y-77845135D01*
X125938254Y-77934074D01*
X125871118Y-77935666D01*
X125557958Y-77903235D01*
X125309098Y-77819119D01*
X125274229Y-77797601D01*
X125032874Y-77535691D01*
X124904663Y-77198370D01*
X124910618Y-76846950D01*
X124927626Y-76786730D01*
X125117375Y-76445724D01*
X125414492Y-76234132D01*
X125810538Y-76157825D01*
X125831651Y-76157666D01*
X126229127Y-76208471D01*
G36*
X127532757Y-76169348D02*
G01*
X127616206Y-76237952D01*
X127636307Y-76413817D01*
X127636945Y-76475166D01*
X127638890Y-76792666D01*
X127822920Y-76475166D01*
X127961116Y-76270876D01*
X128103001Y-76179457D01*
X128317930Y-76157701D01*
X128332544Y-76157666D01*
X128658138Y-76157666D01*
X128431738Y-76543989D01*
X128301769Y-76784438D01*
X128255790Y-76945810D01*
X128281963Y-77088637D01*
X128311702Y-77157823D01*
X128422465Y-77401885D01*
X128537770Y-77665526D01*
X128657473Y-77945719D01*
X128304882Y-77919526D01*
X128086253Y-77890842D01*
X127955639Y-77816350D01*
X127856585Y-77650665D01*
X127798376Y-77512333D01*
X127644461Y-77131333D01*
X127639731Y-77533500D01*
X127635000Y-77935666D01*
X127042334Y-77935666D01*
X127042334Y-76157666D01*
X127338667Y-76157666D01*
X127532757Y-76169348D01*
G37*
X127532757Y-76169348D02*
X127616206Y-76237952D01*
X127636307Y-76413817D01*
X127636945Y-76475166D01*
X127638890Y-76792666D01*
X127822920Y-76475166D01*
X127961116Y-76270876D01*
X128103001Y-76179457D01*
X128317930Y-76157701D01*
X128332544Y-76157666D01*
X128658138Y-76157666D01*
X128431738Y-76543989D01*
X128301769Y-76784438D01*
X128255790Y-76945810D01*
X128281963Y-77088637D01*
X128311702Y-77157823D01*
X128422465Y-77401885D01*
X128537770Y-77665526D01*
X128657473Y-77945719D01*
X128304882Y-77919526D01*
X128086253Y-77890842D01*
X127955639Y-77816350D01*
X127856585Y-77650665D01*
X127798376Y-77512333D01*
X127644461Y-77131333D01*
X127639731Y-77533500D01*
X127635000Y-77935666D01*
X127042334Y-77935666D01*
X127042334Y-76157666D01*
X127338667Y-76157666D01*
X127532757Y-76169348D01*
%TD*%
M02*
